{
.appVersion = "3436";
.formatVersion = 3;
DisplayStrings = (
"ϝ",
"τ",
"ε",
"1",
"̔",
"̓",
"ͳ",
"Ͳ"
);
customParameters = (
{
name = vendorID;
value = Alts;
},
{
name = panose;
value = (
2,
0,
5,
0,
0,
0,
0,
2,
0,
4
);
},
{
name = unicodeRanges;
value = (
0,
1,
2,
3,
7,
29,
30,
31,
32,
33,
38
);
},
{
name = fsType;
value = (
);
},
{
name = glyphOrder;
value = (
.notdef,
.null,
CR,
space,
exclam,
quotedbl,
numbersign,
dollar,
percent,
ampersand,
quotesingle,
parenleft,
parenright,
asterisk,
plus,
comma,
hyphen,
period,
slash,
zero,
one,
two,
three,
four,
five,
six,
seven,
eight,
nine,
colon,
semicolon,
less,
equalorig,
greater,
question,
at,
A,
B,
C,
D,
E,
F,
G,
H,
I,
J,
K,
L,
M,
N,
O,
P,
Q,
R,
S,
T,
U,
V,
W,
X,
Y,
Z,
bracketleft,
backslash,
bracketright,
asciicircum,
underscore,
grave,
a,
b,
c,
d,
e,
f,
g,
h,
i,
j,
k,
l,
m,
n,
o,
p,
q,
r,
s,
t,
u,
v,
w,
x,
y,
z,
braceleft,
bar,
braceright,
asciitilde,
ch202,
exclamdown,
cent,
sterling,
currency,
yen,
brokenbar,
section,
dieresis,
copyright,
ordfeminine,
guillemotleft,
logicalnot,
registered,
glyph328,
degree,
plusminus,
twosuperior,
threesuperior,
acute,
uni00B5,
paragraph,
periodcentered,
cedilla,
onesuperior,
ordmasculine,
guillemotright,
onequarter,
onehalf,
threequarters,
questiondown,
Agrave,
Aacute,
Acircumflex,
Atilde,
Adieresis,
Aring,
AE,
Ccedilla,
Egrave,
Eacute,
Ecircumflex,
Edieresis,
Igrave,
Iacute,
Icircumflex,
Idieresis,
Eth,
Ntilde,
Ograve,
Oacute,
Ocircumflex,
Otilde,
Odieresis,
multiply,
Oslash,
Ugrave,
Uacute,
Ucircumflex,
Udieresis,
Yacute,
Thorn,
germandbls,
agrave,
aacute,
acircumflex,
atilde,
adieresis,
aring,
ae,
ccedilla,
egrave,
eacute,
ecircumflex,
edieresis,
igrave,
iacute,
icircumflex,
idieresis,
eth,
ntilde,
ograve,
oacute,
ocircumflex,
otilde,
odieresis,
divide,
oslash,
ugrave,
uacute,
ucircumflex,
udieresis,
yacute,
thorn,
ydieresis,
Amacron,
amacron,
Abreve,
abreve,
Aogonek,
aogonek,
Cacute,
cacute,
Ccircumflex,
ccircumflex,
Cdotaccent,
cdotaccent,
Ccaron,
ccaron,
Dcaron,
dcaron,

glyphs = (
{
glyphname = .notdef;
layers = (
{
layerId = m01;
shapes = (
{
closed = 1;
nodes = (
(438,700,l),
(63,700,l),
(63,0,l),
(438,0,l)
);
},
{
closed = 1;
nodes = (
(375,638,l),
(375,63,l),
(125,63,l),
(125,638,l)
);
}
);
userData = {
assembly = "PUSHW[ ]	/* 1 value pushed */
8
MDAP[1]	/* MoveDirectAbsPt */
PUSHW[ ]	/* 1 value pushed */
5
MDAP[1]	/* MoveDirectAbsPt */
PUSHW[ ]	/* 1 value pushed */
8
SRP0[ ]	/* SetRefPoint0 */
PUSHW[ ]	/* 1 value pushed */
0
MDRP[10000]	/* MoveDirectRelPt */
PUSHW[ ]	/* 1 value pushed */
0
MDAP[1]	/* MoveDirectAbsPt */
PUSHW[ ]	/* 1 value pushed */
5
SRP0[ ]	/* SetRefPoint0 */
PUSHW[ ]	/* 1 value pushed */
3
MDRP[11100]	/* MoveDirectRelPt */
PUSHW[ ]	/* 1 value pushed */
0
SRP0[ ]	/* SetRefPoint0 */
PUSHW[ ]	/* 1 value pushed */
4
MDRP[11100]	/* MoveDirectRelPt */
PUSHW[ ]	/* 1 value pushed */
3
SRP0[ ]	/* SetRefPoint0 */
PUSHW[ ]	/* 1 value pushed */
9
MDRP[11100]	/* MoveDirectRelPt */
SVTCA[0]	/* SetFreedomAndProjectionVectorToAxis */
PUSHW[ ]	/* 1 value pushed */
0
RCVT[ ]	/* ReadCVT */
IF[ ]	/* If */
PUSHW[ ]	/* 1 value pushed */
0
MDAP[1]	/* MoveDirectAbsPt */
ELSE[ ]	/* Else */
PUSHW[ ]	/* 2 values pushed */
0 1
MIAP[0]	/* MoveIndirectAbsPt */
EIF[ ]	/* EndIf */
PUSHW[ ]	/* 3 values pushed */
2 6 3
CALL[ ]	/* CallFunction */
PUSHW[ ]	/* 1 value pushed */
0
SRP0[ ]	/* SetRefPoint0 */
PUSHW[ ]	/* 1 value pushed */
4
MDRP[11100]	/* MoveDirectRelPt */
IUP[0]	/* InterpolateUntPts */
IUP[1]	/* InterpolateUntPts */";
};
width = 500;
}
);
note = .notdef;
},
{
glyphname = exclam;
layers = (
{
layerId = m01;
shapes = (
{
closed = 1;
nodes = (
(84,515,o),
(84,342,qs),
(84,233,o),
(82,109,o),
(80,93,q),
(132,93,l),
(131,106,o),
(130,230,o),
(130,342,qs),
(130,504,o),
(140,540,q),
(73,540,l)
);
},
{
closed = 1;
nodes = (
(119,53,o),
(105,53,qs),
(90,53,o),
(69,32,o),
(69,17,qs),
(69,2,o),
(90,-19,o),
(105,-19,qs),
(119,-19,o),
(141,2,o),
(141,17,qs),
(141,32,o)
);
}
);
userData = {
assembly = "PUSHW[ ]	/* 3 values pushed */
2 18 3
CALL[ ]	/* CallFunction */
NPUSHW[ ]	/* 21 values pushed */
102 2 118 2 134 2 150 2 166 2 182 2 198 2 214 2 230 2 246 2 10
DELTAP1[ ]	/* DeltaExceptionP1 */
NPUSHW[ ]	/* 7 values pushed */
6 2 22 2 38 2 3
DELTAP2[ ]	/* DeltaExceptionP2 */
NPUSHW[ ]	/* 5 values pushed */
53 2 69 2 2
DELTAP2[ ]	/* DeltaExceptionP2 */
PUSHW[ ]	/* 1 value pushed */
2
SRP0[ ]	/* SetRefPoint0 */
PUSHW[ ]	/* 1 value pushed */
5
MDRP[10000]	/* MoveDirectRelPt */
PUSHW[ ]	/* 1 value pushed */
5
MDAP[1]	/* MoveDirectAbsPt */
PUSHW[ ]	/* 1 value pushed */
2
SRP0[ ]	/* SetRefPoint0 */
PUSHW[ ]	/* 1 value pushed */
9
MDRP[11100]	/* MoveDirectRelPt */
PUSHW[ ]	/* 3 values pushed */
11 18 2
SRP1[ ]	/* SetRefPoint1 */
SRP2[ ]	/* SetRefPoint2 */
IP[ ]	/* InterpolatePts */
SVTCA[0]	/* SetFreedomAndProjectionVectorToAxis */
PUSHW[ ]	/* 1 value pushed */
0
MDAP[1]	/* MoveDirectAbsPt */
PUSHW[ ]	/* 1 value pushed */
0
RCVT[ ]	/* ReadCVT */
IF[ ]	/* If */
PUSHW[ ]	/* 1 value pushed */
15
MDAP[1]	/* MoveDirectAbsPt */
ELSE[ ]	/* Else */
PUSHW[ ]	/* 2 values pushed */
15 1
MIAP[0]	/* MoveIndirectAbsPt */
EIF[ ]	/* EndIf */
PUSHW[ ]	/* 1 value pushed */
21
MDRP[11100]	/* MoveDirectRelPt */
NPUSHW[ ]	/* 21 values pushed */
103 21 119 21 135 21 151 21 167 21 183 21 199 21 215 21 231 21 247 21 10
DELTAP1[ ]	/* DeltaExceptionP1 */
NPUSHW[ ]	/* 7 values pushed */
7 21 23 21 39 21 3
DELTAP2[ ]	/* DeltaExceptionP2 */
NPUSHW[ ]	/* 5 values pushed */
54 21 70 21 2
DELTAP2[ ]	/* DeltaExceptionP2 */
IUP[0]	/* InterpolateUntPts */
IUP[1]	/* InterpolateUntPts */";
};
width = 209;
}
);
note = exclam;
unicode = 33;
},
{
glyphname = quotedbl;
layers = (
{
layerId = m01;
shapes = (
{
closed = 1;
nodes = (
(42,449,l),
(91,449,l),
(109,626,l),
(44,630,l)
);
},
{
closed = 1;
nodes = (
(136,449,l),
(185,449,l),
(203,626,l),
(138,630,l)
);
}
);
userData = {
assembly = "SVTCA[0]	/* SetFreedomAndProjectionVectorToAxis */
PUSHW[ ]	/* 1 value pushed */
0
RCVT[ ]	/* ReadCVT */
IF[ ]	/* If */
PUSHW[ ]	/* 1 value pushed */
3
MDAP[1]	/* MoveDirectAbsPt */
ELSE[ ]	/* Else */
PUSHW[ ]	/* 2 values pushed */
3 7
MIAP[0]	/* MoveIndirectAbsPt */
EIF[ ]	/* EndIf */
PUSHW[ ]	/* 1 value pushed */
0
RCVT[ ]	/* ReadCVT */
IF[ ]	/* If */
PUSHW[ ]	/* 1 value pushed */
4
MDAP[1]	/* MoveDirectAbsPt */
ELSE[ ]	/* Else */
PUSHW[ ]	/* 2 values pushed */
4 7
MIAP[0]	/* MoveIndirectAbsPt */
EIF[ ]	/* EndIf */
PUSHW[ ]	/* 1 value pushed */
3
SRP0[ ]	/* SetRefPoint0 */
PUSHW[ ]	/* 1 value pushed */
1
MDRP[11100]	/* MoveDirectRelPt */
PUSHW[ ]	/* 1 value pushed */
5
MDRP[10000]	/* MoveDirectRelPt */
PUSHW[ ]	/* 1 value pushed */
6
MDRP[10000]	/* MoveDirectRelPt */
IUP[0]	/* InterpolateUntPts */
IUP[1]	/* InterpolateUntPts */";
};
width = 245;
}
);
note = quotedbl;
unicode = 34;
},
{
glyphname = numbersign;
layers = (
{
layerId = m01;
shapes = (
{
closed = 1;
nodes = (
(495,399,l),
(459,226,l),
(286,226,l),
(322,399,l)
);
},
{
closed = 1;
nodes = (
(547,399,l),
(735,399,l),
(747,451,l),
(559,451,l),
(596,628,l),
(544,628,l),
(507,451,l),
(334,451,l),
(371,628,l),
(319,628,l),
(282,451,l),
(118,451,l),
(106,399,l),
(270,399,l),
(234,226,l),
(70,226,l),
(59,174,l),
(223,174,l),
(185,-1,l),
(237,-1,l),
(275,174,l),
(448,174,l),
(410,-1,l),
(462,-1,l),
(500,174,l),
(688,174,l),
(699,226,l),
(511,226,l)
);
}
);
userData = {
assembly = "SVTCA[0]	/* SetFreedomAndProjectionVectorToAxis */
PUSHW[ ]	/* 1 value pushed */
0
RCVT[ ]	/* ReadCVT */
IF[ ]	/* If */
PUSHW[ ]	/* 1 value pushed */
21
MDAP[1]	/* MoveDirectAbsPt */
ELSE[ ]	/* Else */
PUSHW[ ]	/* 2 values pushed */
21 7
MIAP[0]	/* MoveIndirectAbsPt */
EIF[ ]	/* EndIf */
PUSHW[ ]	/* 1 value pushed */
0
RCVT[ ]	/* ReadCVT */
IF[ ]	/* If */
PUSHW[ ]	/* 1 value pushed */
25
MDAP[1]	/* MoveDirectAbsPt */
ELSE[ ]	/* Else */
PUSHW[ ]	/* 2 values pushed */
25 7
MIAP[0]	/* MoveIndirectAbsPt */
EIF[ ]	/* EndIf */
PUSHW[ ]	/* 1 value pushed */
0
RCVT[ ]	/* ReadCVT */
IF[ ]	/* If */
PUSHW[ ]	/* 1 value pushed */
7
MDAP[1]	/* MoveDirectAbsPt */
ELSE[ ]	/* Else */
PUSHW[ ]	/* 2 values pushed */
7 1
MIAP[0]	/* MoveIndirectAbsPt */
EIF[ ]	/* EndIf */
PUSHW[ ]	/* 1 value pushed */
0
RCVT[ ]	/* ReadCVT */
IF[ ]	/* If */
PUSHW[ ]	/* 1 value pushed */
11
MDAP[1]	/* MoveDirectAbsPt */
ELSE[ ]	/* Else */
PUSHW[ ]	/* 2 values pushed */
11 1
MIAP[0]	/* MoveIndirectAbsPt */
EIF[ ]	/* EndIf */
PUSHW[ ]	/* 1 value pushed */
0
MDRP[11100]	/* MoveDirectRelPt */
PUSHW[ ]	/* 1 value pushed */
1
MDRP[10000]	/* MoveDirectRelPt */
PUSHW[ ]	/* 1 value pushed */
25
SRP0[ ]	/* SetRefPoint0 */
PUSHW[ ]	/* 1 value pushed */
2
MDRP[11100]	/* MoveDirectRelPt */
PUSHW[ ]	/* 1 value pushed */
3
MDRP[10000]	/* MoveDirectRelPt */
PUSHW[ ]	/* 1 value pushed */
1
SRP0[ ]	/* SetRefPoint0 */
PUSHW[ ]	/* 1 value pushed */
4
MDRP[10000]	/* MoveDirectRelPt */
PUSHW[ ]	/* 1 value pushed */
5
MDRP[11100]	/* MoveDirectRelPt */
PUSHW[ ]	/* 1 value pushed */
9
MDRP[10000]	/* MoveDirectRelPt */
PUSHW[ ]	/* 1 value pushed */
5
SRP0[ ]	/* SetRefPoint0 */
PUSHW[ ]	/* 1 value pushed */
13
MDRP[10000]	/* MoveDirectRelPt */
PUSHW[ ]	/* 1 value pushed */
4
SRP0[ ]	/* SetRefPoint0 */
PUSHW[ ]	/* 1 value pushed */
15
MDRP[10000]	/* MoveDirectRelPt */
PUSHW[ ]	/* 1 value pushed */
16
MDRP[10000]	/* MoveDirectRelPt */
PUSHW[ ]	/* 1 value pushed */
3
SRP0[ ]	/* SetRefPoint0 */
PUSHW[ ]	/* 1 value pushed */
17
MDRP[10000]	/* MoveDirectRelPt */
PUSHW[ ]	/* 1 value pushed */
18
MDRP[10000]	/* MoveDirectRelPt */
PUSHW[ ]	/* 1 value pushed */
2
SRP0[ ]	/* SetRefPoint0 */
PUSHW[ ]	/* 1 value pushed */
24
MDRP[11100]	/* MoveDirectRelPt */
PUSHW[ ]	/* 1 value pushed */
19
MDRP[10000]	/* MoveDirectRelPt */
PUSHW[ ]	/* 1 value pushed */
24
SRP0[ ]	/* SetRefPoint0 */
PUSHW[ ]	/* 1 value pushed */
27
MDRP[10000]	/* MoveDirectRelPt */
PUSHW[ ]	/* 1 value pushed */
18
SRP0[ ]	/* SetRefPoint0 */
PUSHW[ ]	/* 1 value pushed */
29
MDRP[10000]	/* MoveDirectRelPt */
PUSHW[ ]	/* 1 value pushed */
30
MDRP[10000]	/* MoveDirectRelPt */
PUSHW[ ]	/* 1 value pushed */
16
SRP0[ ]	/* SetRefPoint0 */
PUSHW[ ]	/* 1 value pushed */
31
MDRP[10000]	/* MoveDirectRelPt */
IUP[0]	/* InterpolateUntPts */
IUP[1]	/* InterpolateUntPts */";
};
width = 803;
}
);
note = numbersign;
unicode = 35;
},
{
glyphname = dollar;
layers = (
{
layerId = m01;
shapes = (
{
closed = 1;
nodes = (
(343,250,o),
(366,243,q),
(412,224,o),
(418,174,qs),
(426,112,o),
(369,76,qs),
(322,45,o),
(274,50,q),
(274,271,l),
(297,264,o)
);
},
{
closed = 1;
nodes = (
(154,384,qs),
(126,400,o),
(120,436,qs),
(119,441,o),
(118,452,o),
(118,457,qs),
(118,506,o),
(187,570,o),
(239,573,q),
(239,353,l),
(168,376,o)
);
},
{
closed = 1;
nodes = (
(353,-10,o),
(414,30,qs),
(483,76,o),
(488,156,qs),
(493,245,o),
(418,292,qs),
(382,315,o),
(329,329,qs),
(278,342,o),
(275,338,q),
(274,338,o),
(274,574,q),
(338,569,o),
(376,544,qs),
(386,537,o),
(392,505,q),
(430,505,l),
(429,542,o),
(429,591,o),
(429,605,q),
(424,604,o),
(375,615,qs),
(299,634,o),
(274,634,q),
(274,703,l),
(239,703,l),
(239,632,l),
(160,625,o),
(107,576,qs),
(51,523,o),
(51,446,qs),
(51,374,o),
(110,333,qs),
(144,310,o),
(239,282,q),
(239,48,l),
(177,50,o),
(123,89,qs),
(98,107,o),
(95,124,q),
(57,124,l),
(54,50,o),
(54,23,q),
(71,26,o),
(99,16,qs),
(179,-13,o),
(239,-11,q),
(239,-74,l),
(274,-74,l),
(274,-9,l)
);
}
);
userData = {
assembly = "PUSHW[ ]	/* 3 values pushed */
14 39 3
CALL[ ]	/* CallFunction */
PUSHW[ ]	/* 3 values pushed */
0 35 3
CALL[ ]	/* CallFunction */
PUSHW[ ]	/* 1 value pushed */
35
SRP0[ ]	/* SetRefPoint0 */
PUSHW[ ]	/* 1 value pushed */
10
MDRP[10000]	/* MoveDirectRelPt */
PUSHW[ ]	/* 1 value pushed */
34
SRP0[ ]	/* SetRefPoint0 */
PUSHW[ ]	/* 1 value pushed */
11
MDRP[10000]	/* MoveDirectRelPt */
NPUSHW[ ]	/* 21 values pushed */
102 14 118 14 134 14 150 14 166 14 182 14 198 14 214 14 230 14 246 14 10
DELTAP1[ ]	/* DeltaExceptionP1 */
NPUSHW[ ]	/* 7 values pushed */
6 14 22 14 38 14 3
DELTAP2[ ]	/* DeltaExceptionP2 */
NPUSHW[ ]	/* 5 values pushed */
53 14 69 14 2
DELTAP2[ ]	/* DeltaExceptionP2 */
PUSHW[ ]	/* 1 value pushed */
14
SRP0[ ]	/* SetRefPoint0 */
PUSHW[ ]	/* 1 value pushed */
17
MDRP[10000]	/* MoveDirectRelPt */
PUSHW[ ]	/* 1 value pushed */
17
MDAP[1]	/* MoveDirectAbsPt */
PUSHW[ ]	/* 1 value pushed */
0
SRP0[ ]	/* SetRefPoint0 */
PUSHW[ ]	/* 1 value pushed */
21
MDRP[10000]	/* MoveDirectRelPt */
PUSHW[ ]	/* 1 value pushed */
35
SRP0[ ]	/* SetRefPoint0 */
PUSHW[ ]	/* 1 value pushed */
22
MDRP[10000]	/* MoveDirectRelPt */
PUSHW[ ]	/* 1 value pushed */
34
SRP0[ ]	/* SetRefPoint0 */
PUSHW[ ]	/* 1 value pushed */
23
MDRP[10000]	/* MoveDirectRelPt */
PUSHW[ ]	/* 1 value pushed */
39
SRP0[ ]	/* SetRefPoint0 */
PUSHW[ ]	/* 1 value pushed */
27
MDRP[10000]	/* MoveDirectRelPt */
PUSHW[ ]	/* 1 value pushed */
27
MDAP[1]	/* MoveDirectAbsPt */
PUSHW[ ]	/* 1 value pushed */
39
SRP0[ ]	/* SetRefPoint0 */
PUSHW[ ]	/* 1 value pushed */
29
MDRP[10000]	/* MoveDirectRelPt */
PUSHW[ ]	/* 1 value pushed */
29
MDAP[1]	/* MoveDirectAbsPt */
PUSHW[ ]	/* 1 value pushed */
35
SRP0[ ]	/* SetRefPoint0 */
PUSHW[ ]	/* 1 value pushed */
43
MDRP[10000]	/* MoveDirectRelPt */
PUSHW[ ]	/* 1 value pushed */
34
SRP0[ ]	/* SetRefPoint0 */
PUSHW[ ]	/* 1 value pushed */
44
MDRP[10000]	/* MoveDirectRelPt */
PUSHW[ ]	/* 1 value pushed */
0
SRP0[ ]	/* SetRefPoint0 */
PUSHW[ ]	/* 1 value pushed */
45
MDRP[10000]	/* MoveDirectRelPt */
PUSHW[ ]	/* 1 value pushed */
35
SRP0[ ]	/* SetRefPoint0 */
PUSHW[ ]	/* 1 value pushed */
53
MDRP[11100]	/* MoveDirectRelPt */
PUSHW[ ]	/* 1 value pushed */
50
MDRP[10000]	/* MoveDirectRelPt */
PUSHW[ ]	/* 1 value pushed */
50
MDAP[1]	/* MoveDirectAbsPt */
PUSHW[ ]	/* 1 value pushed */
0
SRP0[ ]	/* SetRefPoint0 */
PUSHW[ ]	/* 1 value pushed */
58
MDRP[10000]	/* MoveDirectRelPt */
PUSHW[ ]	/* 1 value pushed */
35
SRP0[ ]	/* SetRefPoint0 */
PUSHW[ ]	/* 1 value pushed */
66
MDRP[11100]	/* MoveDirectRelPt */
SVTCA[0]	/* SetFreedomAndProjectionVectorToAxis */
PUSHW[ ]	/* 1 value pushed */
44
MDAP[1]	/* MoveDirectAbsPt */
PUSHW[ ]	/* 1 value pushed */
21
MDAP[1]	/* MoveDirectAbsPt */
PUSHW[ ]	/* 1 value pushed */
0
RCVT[ ]	/* ReadCVT */
IF[ ]	/* If */
PUSHW[ ]	/* 1 value pushed */
43
MDAP[1]	/* MoveDirectAbsPt */
ELSE[ ]	/* Else */
PUSHW[ ]	/* 2 values pushed */
43 7
MIAP[0]	/* MoveIndirectAbsPt */
EIF[ ]	/* EndIf */
PUSHW[ ]	/* 1 value pushed */
0
RCVT[ ]	/* ReadCVT */
IF[ ]	/* If */
PUSHW[ ]	/* 1 value pushed */
46
MDAP[1]	/* MoveDirectAbsPt */
ELSE[ ]	/* Else */
PUSHW[ ]	/* 2 values pushed */
46 7
MIAP[0]	/* MoveIndirectAbsPt */
EIF[ ]	/* EndIf */
PUSHW[ ]	/* 3 values pushed */
0 21 44
SRP1[ ]	/* SetRefPoint1 */
SRP2[ ]	/* SetRefPoint2 */
IP[ ]	/* InterpolatePts */
PUSHW[ ]	/* 3 values pushed */
10 21 44
SRP1[ ]	/* SetRefPoint1 */
SRP2[ ]	/* SetRefPoint2 */
IP[ ]	/* InterpolatePts */
IUP[0]	/* InterpolateUntPts */
IUP[1]	/* InterpolateUntPts */";
};
width = 528;
}
);
note = dollar;
unicode = 36;
},
{
glyphname = percent;
layers = (
{
layerId = m01;
shapes = (
{
closed = 1;
nodes = (
(523,323,qs),
(462,323,o),
(434,271,qs),
(409,228,o),
(409,155,qs),
(409,-7,o),
(523,-7,qs),
(634,-7,o),
(638,156,qs),
(644,323,o)
);
},
{
closed = 1;
nodes = (
(525,43,qs),
(489,41,o),
(475,82,qs),
(466,107,o),
(466,150,qs),
(468,262,o),
(524,263,qs),
(562,265,o),
(575,223,qs),
(584,196,o),
(583,151,qs),
(583,43,o)
);
},
{
closed = 1;
nodes = (
(155,627,qs),
(94,627,o),
(66,575,qs),
(41,532,o),
(41,459,qs),
(41,297,o),
(155,297,qs),
(266,297,o),
(270,460,qs),
(276,627,o)
);
},
{
closed = 1;
nodes = (
(157,347,qs),
(121,345,o),
(107,386,qs),
(98,411,o),
(98,454,qs),
(100,566,o),
(156,567,qs),
(194,569,o),
(207,527,qs),
(216,500,o),
(215,455,qs),
(215,347,o)
);
},
{
closed = 1;
nodes = (
(191,-88,l),
(235,-88,l),
(473,647,l),
(427,647,l)
);
}
);
userData = {
assembly = "PUSHW[ ]	/* 3 values pushed */
38 26 3
CALL[ ]	/* CallFunction */
PUSHW[ ]	/* 3 values pushed */
22 32 3
CALL[ ]	/* CallFunction */
PUSHW[ ]	/* 3 values pushed */
16 4 3
CALL[ ]	/* CallFunction */
PUSHW[ ]	/* 3 values pushed */
0 10 3
CALL[ ]	/* CallFunction */
NPUSHW[ ]	/* 5 values pushed */
58 4 74 4 2
DELTAP2[ ]	/* DeltaExceptionP2 */
NPUSHW[ ]	/* 21 values pushed */
105 4 121 4 137 4 153 4 169 4 185 4 201 4 217 4 233 4 249 4 10
DELTAP1[ ]	/* DeltaExceptionP1 */
NPUSHW[ ]	/* 7 values pushed */
9 4 25 4 41 4 3
DELTAP2[ ]	/* DeltaExceptionP2 */
NPUSHW[ ]	/* 5 values pushed */
58 10 74 10 2
DELTAP2[ ]	/* DeltaExceptionP2 */
NPUSHW[ ]	/* 21 values pushed */
105 10 121 10 137 10 153 10 169 10 185 10 201 10 217 10 233 10 249 10 10
DELTAP1[ ]	/* DeltaExceptionP1 */
NPUSHW[ ]	/* 7 values pushed */
9 10 25 10 41 10 3
DELTAP2[ ]	/* DeltaExceptionP2 */
NPUSHW[ ]	/* 5 values pushed */
22 22 38 22 2
DELTAP2[ ]	/* DeltaExceptionP2 */
NPUSHW[ ]	/* 21 values pushed */
102 22 118 22 134 22 150 22 166 22 182 22 198 22 214 22 230 22 246 22 10
DELTAP1[ ]	/* DeltaExceptionP1 */
NPUSHW[ ]	/* 3 values pushed */
6 22 1
DELTAP2[ ]	/* DeltaExceptionP2 */
NPUSHW[ ]	/* 5 values pushed */
53 22 69 22 2
DELTAP2[ ]	/* DeltaExceptionP2 */
NPUSHW[ ]	/* 21 values pushed */
102 38 118 38 134 38 150 38 166 38 182 38 198 38 214 38 230 38 246 38 10
DELTAP1[ ]	/* DeltaExceptionP1 */
NPUSHW[ ]	/* 7 values pushed */
6 38 22 38 38 38 3
DELTAP2[ ]	/* DeltaExceptionP2 */
NPUSHW[ ]	/* 5 values pushed */
53 38 69 38 2
DELTAP2[ ]	/* DeltaExceptionP2 */
PUSHW[ ]	/* 3 values pushed */
44 26 0
SRP1[ ]	/* SetRefPoint1 */
SRP2[ ]	/* SetRefPoint2 */
IP[ ]	/* InterpolatePts */
PUSHW[ ]	/* 3 values pushed */
46 26 0
SRP1[ ]	/* SetRefPoint1 */
SRP2[ ]	/* SetRefPoint2 */
IP[ ]	/* InterpolatePts */
SVTCA[0]	/* SetFreedomAndProjectionVectorToAxis */
PUSHW[ ]	/* 1 value pushed */
44
MDAP[1]	/* MoveDirectAbsPt */
PUSHW[ ]	/* 1 value pushed */
45
MDAP[1]	/* MoveDirectAbsPt */
PUSHW[ ]	/* 1 value pushed */
0
RCVT[ ]	/* ReadCVT */
IF[ ]	/* If */
PUSHW[ ]	/* 1 value pushed */
30
MDAP[1]	/* MoveDirectAbsPt */
ELSE[ ]	/* Else */
PUSHW[ ]	/* 2 values pushed */
30 7
MIAP[0]	/* MoveIndirectAbsPt */
EIF[ ]	/* EndIf */
PUSHW[ ]	/* 1 value pushed */
0
RCVT[ ]	/* ReadCVT */
IF[ ]	/* If */
PUSHW[ ]	/* 1 value pushed */
2
MDAP[1]	/* MoveDirectAbsPt */
ELSE[ ]	/* Else */
PUSHW[ ]	/* 2 values pushed */
2 1
MIAP[0]	/* MoveIndirectAbsPt */
EIF[ ]	/* EndIf */
PUSHW[ ]	/* 3 values pushed */
42 24 3
CALL[ ]	/* CallFunction */
PUSHW[ ]	/* 3 values pushed */
8 14 3
CALL[ ]	/* CallFunction */
PUSHW[ ]	/* 1 value pushed */
2
SRP0[ ]	/* SetRefPoint0 */
PUSHW[ ]	/* 1 value pushed */
20
MDRP[11100]	/* MoveDirectRelPt */
NPUSHW[ ]	/* 21 values pushed */
103 20 119 20 135 20 151 20 167 20 183 20 199 20 215 20 231 20 247 20 10
DELTAP1[ ]	/* DeltaExceptionP1 */
NPUSHW[ ]	/* 7 values pushed */
7 20 23 20 39 20 3
DELTAP2[ ]	/* DeltaExceptionP2 */
NPUSHW[ ]	/* 5 values pushed */
54 20 70 20 2
DELTAP2[ ]	/* DeltaExceptionP2 */
PUSHW[ ]	/* 1 value pushed */
30
SRP0[ ]	/* SetRefPoint0 */
PUSHW[ ]	/* 1 value pushed */
36
MDRP[11100]	/* MoveDirectRelPt */
NPUSHW[ ]	/* 5 values pushed */
57 36 73 36 2
DELTAP2[ ]	/* DeltaExceptionP2 */
NPUSHW[ ]	/* 21 values pushed */
104 36 120 36 136 36 152 36 168 36 184 36 200 36 216 36 232 36 248 36 10
DELTAP1[ ]	/* DeltaExceptionP1 */
NPUSHW[ ]	/* 7 values pushed */
8 36 24 36 40 36 3
DELTAP2[ ]	/* DeltaExceptionP2 */
IUP[0]	/* InterpolateUntPts */
IUP[1]	/* InterpolateUntPts */";
};
width = 680;
}
);
note = percent;
unicode = 37;
},
{
glyphname = ampersand;
layers = (
{
layerId = m01;
shapes = (
{
closed = 1;
nodes = (
(453,158,o),
(473,239,o),
(477,288,q),
(414,288,l),
(413,269,o),
(410,239,o),
(406,213,o),
(397,189,o),
(390,176,q),
(249,356,l),
(306,389,o),
(357,462,o),
(357,515,qs),
(357,541,o),
(339,587,o),
(304,622,o),
(256,643,o),
(226,643,qs),
(166,643,o),
(90,569,o),
(90,508,qs),
(90,490,o),
(98,459,o),
(115,428,o),
(139,393,o),
(154,372,q),
(20,298,o),
(17,180,qs),
(16,137,o),
(42,66,o),
(93,16,o),
(166,-12,o),
(211,-12,qs),
(267,-12,o),
(367,32,o),
(395,70,q),
(451,0,l),
(537,0,l),
(436,124,l)
);
},
{
closed = 1;
nodes = (
(213,399,q),
(182,434,o),
(151,479,o),
(151,511,qs),
(151,543,o),
(195,588,o),
(225,588,qs),
(243,588,o),
(269,574,o),
(286,551,o),
(295,522,o),
(295,508,qs),
(295,436,o)
);
},
{
closed = 1;
nodes = (
(251,47,o),
(213,47,qs),
(160,47,o),
(88,110,o),
(83,164,qs),
(75,271,o),
(189,324,q),
(353,118,l),
(330,88,o)
);
}
);
userData = {
assembly = "PUSHW[ ]	/* 3 values pushed */
55 10 3
CALL[ ]	/* CallFunction */
PUSHW[ ]	/* 3 values pushed */
25 39 3
CALL[ ]	/* CallFunction */
PUSHW[ ]	/* 3 values pushed */
35 34 3
CALL[ ]	/* CallFunction */
PUSHW[ ]	/* 3 values pushed */
2 10 35
SRP1[ ]	/* SetRefPoint1 */
SRP2[ ]	/* SetRefPoint2 */
IP[ ]	/* InterpolatePts */
NPUSHW[ ]	/* 21 values pushed */
102 55 118 55 134 55 150 55 166 55 182 55 198 55 214 55 230 55 246 55 10
DELTAP1[ ]	/* DeltaExceptionP1 */
NPUSHW[ ]	/* 7 values pushed */
6 55 22 55 38 55 3
DELTAP2[ ]	/* DeltaExceptionP2 */
NPUSHW[ ]	/* 5 values pushed */
53 55 69 55 2
DELTAP2[ ]	/* DeltaExceptionP2 */
PUSHW[ ]	/* 1 value pushed */
55
SRP0[ ]	/* SetRefPoint0 */
PUSHW[ ]	/* 1 value pushed */
17
MDRP[10000]	/* MoveDirectRelPt */
PUSHW[ ]	/* 1 value pushed */
17
MDAP[1]	/* MoveDirectAbsPt */
PUSHW[ ]	/* 3 values pushed */
29 10 35
SRP1[ ]	/* SetRefPoint1 */
SRP2[ ]	/* SetRefPoint2 */
IP[ ]	/* InterpolatePts */
NPUSHW[ ]	/* 5 values pushed */
58 39 74 39 2
DELTAP2[ ]	/* DeltaExceptionP2 */
NPUSHW[ ]	/* 21 values pushed */
105 39 121 39 137 39 153 39 169 39 185 39 201 39 217 39 233 39 249 39 10
DELTAP1[ ]	/* DeltaExceptionP1 */
NPUSHW[ ]	/* 7 values pushed */
9 39 25 39 41 39 3
DELTAP2[ ]	/* DeltaExceptionP2 */
PUSHW[ ]	/* 1 value pushed */
55
SRP0[ ]	/* SetRefPoint0 */
PUSHW[ ]	/* 1 value pushed */
47
MDRP[11100]	/* MoveDirectRelPt */
PUSHW[ ]	/* 1 value pushed */
35
SRP0[ ]	/* SetRefPoint0 */
PUSHW[ ]	/* 1 value pushed */
62
MDRP[11100]	/* MoveDirectRelPt */
SVTCA[0]	/* SetFreedomAndProjectionVectorToAxis */
PUSHW[ ]	/* 1 value pushed */
0
RCVT[ ]	/* ReadCVT */
IF[ ]	/* If */
PUSHW[ ]	/* 1 value pushed */
20
MDAP[1]	/* MoveDirectAbsPt */
ELSE[ ]	/* Else */
PUSHW[ ]	/* 2 values pushed */
20 7
MIAP[0]	/* MoveIndirectAbsPt */
EIF[ ]	/* EndIf */
PUSHW[ ]	/* 1 value pushed */
0
RCVT[ ]	/* ReadCVT */
IF[ ]	/* If */
PUSHW[ ]	/* 1 value pushed */
0
MDAP[1]	/* MoveDirectAbsPt */
ELSE[ ]	/* Else */
PUSHW[ ]	/* 2 values pushed */
0 1
MIAP[0]	/* MoveIndirectAbsPt */
EIF[ ]	/* EndIf */
PUSHW[ ]	/* 1 value pushed */
0
RCVT[ ]	/* ReadCVT */
IF[ ]	/* If */
PUSHW[ ]	/* 1 value pushed */
5
MDAP[1]	/* MoveDirectAbsPt */
ELSE[ ]	/* Else */
PUSHW[ ]	/* 2 values pushed */
5 1
MIAP[0]	/* MoveIndirectAbsPt */
EIF[ ]	/* EndIf */
PUSHW[ ]	/* 3 values pushed */
2 5 20
SRP1[ ]	/* SetRefPoint1 */
SRP2[ ]	/* SetRefPoint2 */
IP[ ]	/* InterpolatePts */
PUSHW[ ]	/* 3 values pushed */
29 5 20
SRP1[ ]	/* SetRefPoint1 */
SRP2[ ]	/* SetRefPoint2 */
IP[ ]	/* InterpolatePts */
PUSHW[ ]	/* 1 value pushed */
20
SRP0[ ]	/* SetRefPoint0 */
PUSHW[ ]	/* 1 value pushed */
44
MDRP[11100]	/* MoveDirectRelPt */
NPUSHW[ ]	/* 5 values pushed */
57 44 73 44 2
DELTAP2[ ]	/* DeltaExceptionP2 */
NPUSHW[ ]	/* 21 values pushed */
104 44 120 44 136 44 152 44 168 44 184 44 200 44 216 44 232 44 248 44 10
DELTAP1[ ]	/* DeltaExceptionP1 */
NPUSHW[ ]	/* 7 values pushed */
8 44 24 44 40 44 3
DELTAP2[ ]	/* DeltaExceptionP2 */
PUSHW[ ]	/* 1 value pushed */
5
SRP0[ ]	/* SetRefPoint0 */
PUSHW[ ]	/* 1 value pushed */
58
MDRP[11100]	/* MoveDirectRelPt */
NPUSHW[ ]	/* 21 values pushed */
103 58 119 58 135 58 151 58 167 58 183 58 199 58 215 58 231 58 247 58 10
DELTAP1[ ]	/* DeltaExceptionP1 */
NPUSHW[ ]	/* 7 values pushed */
7 58 23 58 39 58 3
DELTAP2[ ]	/* DeltaExceptionP2 */
NPUSHW[ ]	/* 5 values pushed */
54 58 70 58 2
DELTAP2[ ]	/* DeltaExceptionP2 */
IUP[0]	/* InterpolateUntPts */
IUP[1]	/* InterpolateUntPts */";
};
width = 556;
}
);
note = ampersand;
unicode = 38;
},
{
glyphname = quotesingle;
layers = (
{
layerId = m01;
shapes = (
{
closed = 1;
nodes = (
(53,449,l),
(102,449,l),
(120,626,l),
(55,630,l)
);
}
);
userData = {
assembly = "SVTCA[0]	/* SetFreedomAndProjectionVectorToAxis */
PUSHW[ ]	/* 1 value pushed */
1
MDAP[1]	/* MoveDirectAbsPt */
PUSHW[ ]	/* 1 value pushed */
0
RCVT[ ]	/* ReadCVT */
IF[ ]	/* If */
PUSHW[ ]	/* 1 value pushed */
3
MDAP[1]	/* MoveDirectAbsPt */
ELSE[ ]	/* Else */
PUSHW[ ]	/* 2 values pushed */
3 7
MIAP[0]	/* MoveIndirectAbsPt */
EIF[ ]	/* EndIf */
IUP[0]	/* InterpolateUntPts */
IUP[1]	/* InterpolateUntPts */";
};
width = 173;
}
);
note = quotesingle;
unicode = 39;
},
{
glyphname = parenleft;
layers = (
{
layerId = m01;
shapes = (
{
closed = 1;
nodes = (
(168,-50,o),
(151,-18,qs),
(92,98,o),
(95,208,qs),
(96,259,o),
(110,347,o),
(123,385,qs),
(133,416,o),
(169,482,o),
(213,548,o),
(263,615,o),
(287,648,q),
(282,649,o),
(233,650,o),
(187,650,q),
(101,515,o),
(69,442,qs),
(22,328,o),
(22,204,qs),
(22,86,o),
(71,-22,qs),
(100,-89,o),
(191,-228,q),
(287,-228,l),
(235,-155,o)
);
}
);
userData = {
assembly = "PUSHW[ ]	/* 3 values pushed */
20 5 3
CALL[ ]	/* CallFunction */
NPUSHW[ ]	/* 21 values pushed */
102 20 118 20 134 20 150 20 166 20 182 20 198 20 214 20 230 20 246 20 10
DELTAP1[ ]	/* DeltaExceptionP1 */
NPUSHW[ ]	/* 7 values pushed */
6 20 22 20 38 20 3
DELTAP2[ ]	/* DeltaExceptionP2 */
NPUSHW[ ]	/* 5 values pushed */
53 20 69 20 2
DELTAP2[ ]	/* DeltaExceptionP2 */
SVTCA[0]	/* SetFreedomAndProjectionVectorToAxis */
PUSHW[ ]	/* 1 value pushed */
9
MDAP[1]	/* MoveDirectAbsPt */
PUSHW[ ]	/* 1 value pushed */
12
MDAP[1]	/* MoveDirectAbsPt */
PUSHW[ ]	/* 1 value pushed */
0
MDAP[1]	/* MoveDirectAbsPt */
IUP[0]	/* InterpolateUntPts */
IUP[1]	/* InterpolateUntPts */";
};
width = 297;
}
);
note = parenleft;
unicode = 40;
},
{
glyphname = parenright;
layers = (
{
layerId = m01;
shapes = (
{
closed = 1;
nodes = (
(238,444,qs),
(223,477,o),
(163,580,o),
(117,650,q),
(22,650,l),
(124,504,o),
(157,440,qs),
(216,324,o),
(213,214,qs),
(212,163,o),
(198,75,o),
(185,37,qs),
(174,6,o),
(139,-59,o),
(95,-126,o),
(46,-193,o),
(22,-226,q),
(32,-228,o),
(121,-228,q),
(209,-92,o),
(239,-19,qs),
(287,92,o),
(287,218,qs),
(287,336,o)
);
}
);
userData = {
assembly = "PUSHW[ ]	/* 3 values pushed */
0 14 3
CALL[ ]	/* CallFunction */
NPUSHW[ ]	/* 5 values pushed */
58 14 74 14 2
DELTAP2[ ]	/* DeltaExceptionP2 */
NPUSHW[ ]	/* 21 values pushed */
105 14 121 14 137 14 153 14 169 14 185 14 201 14 217 14 233 14 249 14 10
DELTAP1[ ]	/* DeltaExceptionP1 */
NPUSHW[ ]	/* 7 values pushed */
9 14 25 14 41 14 3
DELTAP2[ ]	/* DeltaExceptionP2 */
SVTCA[0]	/* SetFreedomAndProjectionVectorToAxis */
PUSHW[ ]	/* 1 value pushed */
4
MDAP[1]	/* MoveDirectAbsPt */
PUSHW[ ]	/* 1 value pushed */
6
MDAP[1]	/* MoveDirectAbsPt */
PUSHW[ ]	/* 1 value pushed */
18
MDAP[1]	/* MoveDirectAbsPt */
IUP[0]	/* InterpolateUntPts */
IUP[1]	/* InterpolateUntPts */";
};
width = 297;
}
);
note = parenright;
unicode = 41;
},
{
glyphname = asterisk;
layers = (
{
layerId = m01;
shapes = (
{
closed = 1;
nodes = (
(366,367,qs),
(359,370,o),
(319,392,o),
(285,411,q),
(319,431,o),
(358,453,o),
(363,455,qs),
(381,464,o),
(408,470,q),
(379,518,l),
(367,499,o),
(348,488,qs),
(341,483,o),
(301,460,o),
(269,442,q),
(267,545,o),
(278,577,q),
(224,577,l),
(228,567,o),
(233,545,o),
(234,534,qs),
(235,519,o),
(234,443,q),
(150,489,o),
(122,518,q),
(96,470,l),
(117,468,o),
(138,458,qs),
(143,455,o),
(183,433,o),
(217,413,q),
(184,394,o),
(145,372,o),
(140,370,qs),
(122,361,o),
(96,355,q),
(124,306,l),
(138,324,o),
(156,337,qs),
(163,342,o),
(203,365,o),
(235,383,q),
(237,308,o),
(235,294,qs),
(233,271,o),
(225,247,q),
(279,247,l),
(269,273,o),
(269,383,q),
(312,358,o),
(368,320,o),
(381,306,q),
(408,354,l),
(384,357,o)
);
}
);
userData = {
assembly = "PUSHW[ ]	/* 3 values pushed */
38 30 3
CALL[ ]	/* CallFunction */
NPUSHW[ ]	/* 21 values pushed */
102 38 118 38 134 38 150 38 166 38 182 38 198 38 214 38 230 38 246 38 10
DELTAP1[ ]	/* DeltaExceptionP1 */
NPUSHW[ ]	/* 7 values pushed */
6 38 22 38 38 38 3
DELTAP2[ ]	/* DeltaExceptionP2 */
NPUSHW[ ]	/* 5 values pushed */
53 38 69 38 2
DELTAP2[ ]	/* DeltaExceptionP2 */
PUSHW[ ]	/* 1 value pushed */
38
SRP0[ ]	/* SetRefPoint0 */
PUSHW[ ]	/* 1 value pushed */
4
MDRP[10000]	/* MoveDirectRelPt */
PUSHW[ ]	/* 1 value pushed */
30
SRP0[ ]	/* SetRefPoint0 */
PUSHW[ ]	/* 1 value pushed */
9
MDRP[10000]	/* MoveDirectRelPt */
PUSHW[ ]	/* 1 value pushed */
9
MDAP[1]	/* MoveDirectAbsPt */
PUSHW[ ]	/* 1 value pushed */
30
SRP0[ ]	/* SetRefPoint0 */
PUSHW[ ]	/* 1 value pushed */
11
MDRP[10000]	/* MoveDirectRelPt */
PUSHW[ ]	/* 1 value pushed */
11
MDAP[1]	/* MoveDirectAbsPt */
PUSHW[ ]	/* 1 value pushed */
30
SRP0[ ]	/* SetRefPoint0 */
PUSHW[ ]	/* 1 value pushed */
32
MDRP[10000]	/* MoveDirectRelPt */
SVTCA[0]	/* SetFreedomAndProjectionVectorToAxis */
PUSHW[ ]	/* 1 value pushed */
6
MDAP[1]	/* MoveDirectAbsPt */
PUSHW[ ]	/* 1 value pushed */
35
MDAP[1]	/* MoveDirectAbsPt */
PUSHW[ ]	/* 3 values pushed */
0 6 35
SRP1[ ]	/* SetRefPoint1 */
SRP2[ ]	/* SetRefPoint2 */
IP[ ]	/* InterpolatePts */
PUSHW[ ]	/* 3 values pushed */
1 6 35
SRP1[ ]	/* SetRefPoint1 */
SRP2[ ]	/* SetRefPoint2 */
IP[ ]	/* InterpolatePts */
PUSHW[ ]	/* 3 values pushed */
4 6 35
SRP1[ ]	/* SetRefPoint1 */
SRP2[ ]	/* SetRefPoint2 */
IP[ ]	/* InterpolatePts */
PUSHW[ ]	/* 3 values pushed */
11 6 35
SRP1[ ]	/* SetRefPoint1 */
SRP2[ ]	/* SetRefPoint2 */
IP[ ]	/* InterpolatePts */
PUSHW[ ]	/* 3 values pushed */
16 6 35
SRP1[ ]	/* SetRefPoint1 */
SRP2[ ]	/* SetRefPoint2 */
IP[ ]	/* InterpolatePts */
PUSHW[ ]	/* 3 values pushed */
17 6 35
SRP1[ ]	/* SetRefPoint1 */
SRP2[ ]	/* SetRefPoint2 */
IP[ ]	/* InterpolatePts */
PUSHW[ ]	/* 3 values pushed */
22 6 35
SRP1[ ]	/* SetRefPoint1 */
SRP2[ ]	/* SetRefPoint2 */
IP[ ]	/* InterpolatePts */
PUSHW[ ]	/* 3 values pushed */
27 6 35
SRP1[ ]	/* SetRefPoint1 */
SRP2[ ]	/* SetRefPoint2 */
IP[ ]	/* InterpolatePts */
PUSHW[ ]	/* 3 values pushed */
28 6 35
SRP1[ ]	/* SetRefPoint1 */
SRP2[ ]	/* SetRefPoint2 */
IP[ ]	/* InterpolatePts */
PUSHW[ ]	/* 3 values pushed */
30 6 35
SRP1[ ]	/* SetRefPoint1 */
SRP2[ ]	/* SetRefPoint2 */
IP[ ]	/* InterpolatePts */
PUSHW[ ]	/* 3 values pushed */
38 6 35
SRP1[ ]	/* SetRefPoint1 */
SRP2[ ]	/* SetRefPoint2 */
IP[ ]	/* InterpolatePts */
PUSHW[ ]	/* 3 values pushed */
43 6 35
SRP1[ ]	/* SetRefPoint1 */
SRP2[ ]	/* SetRefPoint2 */
IP[ ]	/* InterpolatePts */
PUSHW[ ]	/* 3 values pushed */
44 6 35
SRP1[ ]	/* SetRefPoint1 */
SRP2[ ]	/* SetRefPoint2 */
IP[ ]	/* InterpolatePts */
PUSHW[ ]	/* 3 values pushed */
49 6 35
SRP1[ ]	/* SetRefPoint1 */
SRP2[ ]	/* SetRefPoint2 */
IP[ ]	/* InterpolatePts */
IUP[0]	/* InterpolateUntPts */
IUP[1]	/* InterpolateUntPts */";
};
width = 494;
}
);
note = asterisk;
unicode = 42;
},
{
glyphname = plus;
layers = (
{
layerId = m01;
shapes = (
{
closed = 1;
nodes = (
(303,263,l),
(303,478,l),
(250,478,l),
(250,263,l),
(45,263,l),
(45,214,l),
(250,214,l),
(250,0,l),
(303,0,l),
(303,214,l),
(525,214,l),
(524,263,l)
);
}
);
userData = {
assembly = "PUSHW[ ]	/* 3 values pushed */
2 3 3
CALL[ ]	/* CallFunction */
PUSHW[ ]	/* 1 value pushed */
3
SRP0[ ]	/* SetRefPoint0 */
PUSHW[ ]	/* 1 value pushed */
7
MDRP[10000]	/* MoveDirectRelPt */
PUSHW[ ]	/* 1 value pushed */
2
SRP0[ ]	/* SetRefPoint0 */
PUSHW[ ]	/* 1 value pushed */
9
MDRP[10000]	/* MoveDirectRelPt */
SVTCA[0]	/* SetFreedomAndProjectionVectorToAxis */
PUSHW[ ]	/* 1 value pushed */
8
MDAP[1]	/* MoveDirectAbsPt */
PUSHW[ ]	/* 1 value pushed */
0
RCVT[ ]	/* ReadCVT */
IF[ ]	/* If */
PUSHW[ ]	/* 1 value pushed */
2
MDAP[1]	/* MoveDirectAbsPt */
ELSE[ ]	/* Else */
PUSHW[ ]	/* 2 values pushed */
2 1
MIAP[0]	/* MoveIndirectAbsPt */
EIF[ ]	/* EndIf */
PUSHW[ ]	/* 3 values pushed */
11 0 3
CALL[ ]	/* CallFunction */
PUSHW[ ]	/* 1 value pushed */
0
SRP0[ ]	/* SetRefPoint0 */
PUSHW[ ]	/* 1 value pushed */
4
MDRP[10000]	/* MoveDirectRelPt */
PUSHW[ ]	/* 1 value pushed */
11
SRP0[ ]	/* SetRefPoint0 */
PUSHW[ ]	/* 1 value pushed */
6
MDRP[10000]	/* MoveDirectRelPt */
IUP[0]	/* InterpolateUntPts */
IUP[1]	/* InterpolateUntPts */";
};
width = 554;
}
);
note = plus;
unicode = 43;
},
{
glyphname = comma;
layers = (
{
layerId = m01;
shapes = (
{
closed = 1;
nodes = (
(56,67,l),
(56,0,l),
(84,0,l),
(84,-70,o),
(43,-78,q),
(43,-113,l),
(122,-94,o),
(122,6,qs),
(122,67,l)
);
}
);
userData = {
assembly = "PUSHW[ ]	/* 3 values pushed */
0 6 3
CALL[ ]	/* CallFunction */
PUSHW[ ]	/* 1 value pushed */
0
SRP0[ ]	/* SetRefPoint0 */
PUSHW[ ]	/* 1 value pushed */
5
MDRP[11100]	/* MoveDirectRelPt */
SVTCA[0]	/* SetFreedomAndProjectionVectorToAxis */
PUSHW[ ]	/* 1 value pushed */
7
MDAP[1]	/* MoveDirectAbsPt */
PUSHW[ ]	/* 1 value pushed */
2
MDAP[1]	/* MoveDirectAbsPt */
PUSHW[ ]	/* 1 value pushed */
0
RCVT[ ]	/* ReadCVT */
IF[ ]	/* If */
PUSHW[ ]	/* 1 value pushed */
0
MDAP[1]	/* MoveDirectAbsPt */
ELSE[ ]	/* Else */
PUSHW[ ]	/* 2 values pushed */
0 1
MIAP[0]	/* MoveIndirectAbsPt */
EIF[ ]	/* EndIf */
PUSHW[ ]	/* 1 value pushed */
0
RCVT[ ]	/* ReadCVT */
IF[ ]	/* If */
PUSHW[ ]	/* 1 value pushed */
5
MDAP[1]	/* MoveDirectAbsPt */
ELSE[ ]	/* Else */
PUSHW[ ]	/* 2 values pushed */
5 1
MIAP[0]	/* MoveIndirectAbsPt */
EIF[ ]	/* EndIf */
IUP[0]	/* InterpolateUntPts */
IUP[1]	/* InterpolateUntPts */";
};
width = 191;
}
);
note = comma;
unicode = 44;
},
{
glyphname = hyphen;
layers = (
{
layerId = m01;
shapes = (
{
closed = 1;
nodes = (
(43,237,l),
(43,183,l),
(271,183,l),
(271,237,l)
);
}
);
userData = {
assembly = "SVTCA[0]	/* SetFreedomAndProjectionVectorToAxis */
PUSHW[ ]	/* 3 values pushed */
3 0 3
CALL[ ]	/* CallFunction */
IUP[0]	/* InterpolateUntPts */
IUP[1]	/* InterpolateUntPts */";
};
width = 313;
}
);
note = hyphen;
unicode = 45;
},
{
glyphname = period;
layers = (
{
layerId = m01;
shapes = (
{
closed = 1;
nodes = (
(143,74,o),
(126,74,qs),
(109,74,o),
(84,48,o),
(84,31,qs),
(84,15,o),
(110,-10,o),
(126,-10,qs),
(143,-10,o),
(169,15,o),
(169,31,qs),
(169,48,o)
);
}
);
userData = {
assembly = "PUSHW[ ]	/* 3 values pushed */
0 6 3
CALL[ ]	/* CallFunction */
NPUSHW[ ]	/* 5 values pushed */
58 6 74 6 2
DELTAP2[ ]	/* DeltaExceptionP2 */
NPUSHW[ ]	/* 21 values pushed */
105 6 121 6 137 6 153 6 169 6 185 6 201 6 217 6 233 6 249 6 10
DELTAP1[ ]	/* DeltaExceptionP1 */
NPUSHW[ ]	/* 7 values pushed */
9 6 25 6 41 6 3
DELTAP2[ ]	/* DeltaExceptionP2 */
SVTCA[0]	/* SetFreedomAndProjectionVectorToAxis */
PUSHW[ ]	/* 1 value pushed */
0
RCVT[ ]	/* ReadCVT */
IF[ ]	/* If */
PUSHW[ ]	/* 1 value pushed */
3
MDAP[1]	/* MoveDirectAbsPt */
ELSE[ ]	/* Else */
PUSHW[ ]	/* 2 values pushed */
3 1
MIAP[0]	/* MoveIndirectAbsPt */
EIF[ ]	/* EndIf */
PUSHW[ ]	/* 1 value pushed */
9
MDRP[11100]	/* MoveDirectRelPt */
NPUSHW[ ]	/* 21 values pushed */
103 9 119 9 135 9 151 9 167 9 183 9 199 9 215 9 231 9 247 9 10
DELTAP1[ ]	/* DeltaExceptionP1 */
NPUSHW[ ]	/* 7 values pushed */
7 9 23 9 39 9 3
DELTAP2[ ]	/* DeltaExceptionP2 */
NPUSHW[ ]	/* 5 values pushed */
54 9 70 9 2
DELTAP2[ ]	/* DeltaExceptionP2 */
IUP[0]	/* InterpolateUntPts */
IUP[1]	/* InterpolateUntPts */";
};
width = 261;
}
);
note = period;
unicode = 46;
},
{
glyphname = slash;
layers = (
{
layerId = m01;
shapes = (
{
closed = 1;
nodes = (
(6,-88,l),
(70,-88,l),
(308,647,l),
(242,647,l)
);
}
);
userData = {
assembly = "SVTCA[0]	/* SetFreedomAndProjectionVectorToAxis */
PUSHW[ ]	/* 1 value pushed */
0
MDAP[1]	/* MoveDirectAbsPt */
PUSHW[ ]	/* 1 value pushed */
1
MDAP[1]	/* MoveDirectAbsPt */
IUP[0]	/* InterpolateUntPts */
IUP[1]	/* InterpolateUntPts */";
};
width = 323;
}
);
note = slash;
unicode = 47;
},
{
glyphname = zero;
layers = (
{
layerId = m01;
shapes = (
{
closed = 1;
nodes = (
(450,549,qs),
(391,644,o),
(267,644,qs),
(147,644,o),
(89,541,qs),
(39,453,o),
(39,308,qs),
(39,-16,o),
(268,-16,qs),
(487,-16,o),
(498,311,qs),
(502,464,o)
);
},
{
closed = 1;
nodes = (
(267,47,qs),
(175,47,o),
(138,129,qs),
(109,191,o),
(111,308,qs),
(112,575,o),
(265,583,qs),
(359,587,o),
(397,503,qs),
(426,440,o),
(424,309,qs),
(422,49,o)
);
}
);
userData = {
assembly = "PUSHW[ ]	/* 1 value pushed */
24
MDAP[1]	/* MoveDirectAbsPt */
PUSHW[ ]	/* 1 value pushed */
12
MDAP[1]	/* MoveDirectAbsPt */
NPUSHW[ ]	/* 5 values pushed */
58 12 74 12 2
DELTAP2[ ]	/* DeltaExceptionP2 */
NPUSHW[ ]	/* 21 values pushed */
105 12 121 12 137 12 153 12 169 12 185 12 201 12 217 12 233 12 249 12 10
DELTAP1[ ]	/* DeltaExceptionP1 */
NPUSHW[ ]	/* 7 values pushed */
9 12 25 12 41 12 3
DELTAP2[ ]	/* DeltaExceptionP2 */
PUSHW[ ]	/* 1 value pushed */
0
MDRP[11100]	/* MoveDirectRelPt */
PUSHW[ ]	/* 1 value pushed */
24
SRP0[ ]	/* SetRefPoint0 */
PUSHW[ ]	/* 1 value pushed */
4
MDRP[10000]	/* MoveDirectRelPt */
PUSHW[ ]	/* 1 value pushed */
4
MDAP[1]	/* MoveDirectAbsPt */
PUSHW[ ]	/* 1 value pushed */
18
MDRP[11100]	/* MoveDirectRelPt */
NPUSHW[ ]	/* 21 values pushed */
102 18 118 18 134 18 150 18 166 18 182 18 198 18 214 18 230 18 246 18 10
DELTAP1[ ]	/* DeltaExceptionP1 */
NPUSHW[ ]	/* 3 values pushed */
6 18 1
DELTAP2[ ]	/* DeltaExceptionP2 */
NPUSHW[ ]	/* 5 values pushed */
22 18 38 18 2
DELTAP2[ ]	/* DeltaExceptionP2 */
NPUSHW[ ]	/* 5 values pushed */
53 18 69 18 2
DELTAP2[ ]	/* DeltaExceptionP2 */
PUSHW[ ]	/* 1 value pushed */
0
SRP0[ ]	/* SetRefPoint0 */
PUSHW[ ]	/* 1 value pushed */
25
MDRP[11100]	/* MoveDirectRelPt */
SVTCA[0]	/* SetFreedomAndProjectionVectorToAxis */
PUSHW[ ]	/* 1 value pushed */
0
RCVT[ ]	/* ReadCVT */
IF[ ]	/* If */
PUSHW[ ]	/* 1 value pushed */
8
MDAP[1]	/* MoveDirectAbsPt */
ELSE[ ]	/* Else */
PUSHW[ ]	/* 2 values pushed */
8 7
MIAP[0]	/* MoveIndirectAbsPt */
EIF[ ]	/* EndIf */
PUSHW[ ]	/* 1 value pushed */
0
RCVT[ ]	/* ReadCVT */
IF[ ]	/* If */
PUSHW[ ]	/* 1 value pushed */
2
MDAP[1]	/* MoveDirectAbsPt */
ELSE[ ]	/* Else */
PUSHW[ ]	/* 2 values pushed */
2 1
MIAP[0]	/* MoveIndirectAbsPt */
EIF[ ]	/* EndIf */
PUSHW[ ]	/* 1 value pushed */
8
SRP0[ ]	/* SetRefPoint0 */
PUSHW[ ]	/* 1 value pushed */
16
MDRP[11100]	/* MoveDirectRelPt */
NPUSHW[ ]	/* 5 values pushed */
57 16 73 16 2
DELTAP2[ ]	/* DeltaExceptionP2 */
NPUSHW[ ]	/* 21 values pushed */
104 16 120 16 136 16 152 16 168 16 184 16 200 16 216 16 232 16 248 16 10
DELTAP1[ ]	/* DeltaExceptionP1 */
NPUSHW[ ]	/* 7 values pushed */
8 16 24 16 40 16 3
DELTAP2[ ]	/* DeltaExceptionP2 */
PUSHW[ ]	/* 1 value pushed */
2
SRP0[ ]	/* SetRefPoint0 */
PUSHW[ ]	/* 1 value pushed */
22
MDRP[11100]	/* MoveDirectRelPt */
NPUSHW[ ]	/* 21 values pushed */
103 22 119 22 135 22 151 22 167 22 183 22 199 22 215 22 231 22 247 22 10
DELTAP1[ ]	/* DeltaExceptionP1 */
NPUSHW[ ]	/* 7 values pushed */
7 22 23 22 39 22 3
DELTAP2[ ]	/* DeltaExceptionP2 */
NPUSHW[ ]	/* 5 values pushed */
54 22 70 22 2
DELTAP2[ ]	/* DeltaExceptionP2 */
IUP[0]	/* InterpolateUntPts */
IUP[1]	/* InterpolateUntPts */";
};
width = 535;
}
);
note = zero;
unicode = 48;
},
{
glyphname = one;
layers = (
{
layerId = m01;
shapes = (
{
closed = 1;
nodes = (
(292,127,qs),
(292,306,ls),
(292,449,o),
(292,597,o),
(293,605,qs),
(295,622,o),
(254,622,q),
(227,584,o),
(189,572,q),
(189,546,l),
(212,548,o),
(226,546,q),
(227,535,o),
(227,419,o),
(227,312,qs),
(227,127,ls),
(226,38,o),
(215,0,q),
(302,0,l),
(294,35,o)
);
}
);
userData = {
assembly = "PUSHW[ ]	/* 3 values pushed */
18 3 3
CALL[ ]	/* CallFunction */
PUSHW[ ]	/* 1 value pushed */
3
SRP0[ ]	/* SetRefPoint0 */
PUSHW[ ]	/* 1 value pushed */
7
MDRP[10000]	/* MoveDirectRelPt */
PUSHW[ ]	/* 1 value pushed */
7
MDAP[1]	/* MoveDirectAbsPt */
SVTCA[0]	/* SetFreedomAndProjectionVectorToAxis */
PUSHW[ ]	/* 1 value pushed */
12
MDAP[1]	/* MoveDirectAbsPt */
PUSHW[ ]	/* 1 value pushed */
0
RCVT[ ]	/* ReadCVT */
IF[ ]	/* If */
PUSHW[ ]	/* 1 value pushed */
0
MDAP[1]	/* MoveDirectAbsPt */
ELSE[ ]	/* Else */
PUSHW[ ]	/* 2 values pushed */
0 1
MIAP[0]	/* MoveIndirectAbsPt */
EIF[ ]	/* EndIf */
IUP[0]	/* InterpolateUntPts */
IUP[1]	/* InterpolateUntPts */";
};
width = 535;
}
);
note = one;
unicode = 49;
},
{
glyphname = two;
layers = (
{
layerId = m01;
shapes = (
{
closed = 1;
nodes = (
(459,93,q),
(413,93,l),
(412,75,o),
(404,64,qs),
(397,54,o),
(348,54,qs),
(175,54,l),
(310,196,ls),
(448,341,o),
(448,460,qs),
(448,477,o),
(445,494,qs),
(434,552,o),
(398,588,qs),
(350,636,o),
(270,633,qs),
(178,628,o),
(133,578,qs),
(106,548,o),
(92,498,qs),
(85,476,o),
(84,456,q),
(143,456,l),
(147,498,o),
(167,530,qs),
(200,582,o),
(267,581,qs),
(314,581,o),
(346,551,qs),
(383,517,o),
(383,461,qs),
(383,422,o),
(365,377,qs),
(344,321,o),
(293,261,qs),
(273,238,o),
(208,173,qs),
(154,118,o),
(88,49,o),
(74,35,q),
(74,0,l),
(137,2,o),
(225,2,o),
(251,1,qs),
(287,2,o),
(390,-1,o),
(459,-4,q),
(455,36,o)
);
}
);
userData = {
assembly = "PUSHW[ ]	/* 3 values pushed */
37 16 3
CALL[ ]	/* CallFunction */
NPUSHW[ ]	/* 5 values pushed */
58 16 74 16 2
DELTAP2[ ]	/* DeltaExceptionP2 */
NPUSHW[ ]	/* 21 values pushed */
105 16 121 16 137 16 153 16 169 16 185 16 201 16 217 16 233 16 249 16 10
DELTAP1[ ]	/* DeltaExceptionP1 */
NPUSHW[ ]	/* 7 values pushed */
9 16 25 16 41 16 3
DELTAP2[ ]	/* DeltaExceptionP2 */
PUSHW[ ]	/* 1 value pushed */
37
SRP0[ ]	/* SetRefPoint0 */
PUSHW[ ]	/* 1 value pushed */
49
MDRP[11100]	/* MoveDirectRelPt */
SVTCA[0]	/* SetFreedomAndProjectionVectorToAxis */
PUSHW[ ]	/* 1 value pushed */
0
RCVT[ ]	/* ReadCVT */
IF[ ]	/* If */
PUSHW[ ]	/* 1 value pushed */
31
MDAP[1]	/* MoveDirectAbsPt */
ELSE[ ]	/* Else */
PUSHW[ ]	/* 2 values pushed */
31 7
MIAP[0]	/* MoveIndirectAbsPt */
EIF[ ]	/* EndIf */
PUSHW[ ]	/* 1 value pushed */
0
RCVT[ ]	/* ReadCVT */
IF[ ]	/* If */
PUSHW[ ]	/* 1 value pushed */
0
MDAP[1]	/* MoveDirectAbsPt */
ELSE[ ]	/* Else */
PUSHW[ ]	/* 2 values pushed */
0 1
MIAP[0]	/* MoveIndirectAbsPt */
EIF[ ]	/* EndIf */
PUSHW[ ]	/* 1 value pushed */
0
RCVT[ ]	/* ReadCVT */
IF[ ]	/* If */
PUSHW[ ]	/* 1 value pushed */
3
MDAP[1]	/* MoveDirectAbsPt */
ELSE[ ]	/* Else */
PUSHW[ ]	/* 2 values pushed */
3 1
MIAP[0]	/* MoveIndirectAbsPt */
EIF[ ]	/* EndIf */
PUSHW[ ]	/* 1 value pushed */
0
RCVT[ ]	/* ReadCVT */
IF[ ]	/* If */
PUSHW[ ]	/* 1 value pushed */
6
MDAP[1]	/* MoveDirectAbsPt */
ELSE[ ]	/* Else */
PUSHW[ ]	/* 2 values pushed */
6 1
MIAP[0]	/* MoveIndirectAbsPt */
EIF[ ]	/* EndIf */
PUSHW[ ]	/* 1 value pushed */
31
SRP0[ ]	/* SetRefPoint0 */
PUSHW[ ]	/* 1 value pushed */
20
MDRP[11100]	/* MoveDirectRelPt */
NPUSHW[ ]	/* 5 values pushed */
57 20 73 20 2
DELTAP2[ ]	/* DeltaExceptionP2 */
NPUSHW[ ]	/* 21 values pushed */
104 20 120 20 136 20 152 20 168 20 184 20 200 20 216 20 232 20 248 20 10
DELTAP1[ ]	/* DeltaExceptionP1 */
NPUSHW[ ]	/* 7 values pushed */
8 20 24 20 40 20 3
DELTAP2[ ]	/* DeltaExceptionP2 */
PUSHW[ ]	/* 1 value pushed */
3
SRP0[ ]	/* SetRefPoint0 */
PUSHW[ ]	/* 1 value pushed */
40
MDRP[11100]	/* MoveDirectRelPt */
IUP[0]	/* InterpolateUntPts */
IUP[1]	/* InterpolateUntPts */";
};
width = 535;
}
);
note = two;
unicode = 50;
},
{
glyphname = three;
layers = (
{
layerId = m01;
shapes = (
{
closed = 1;
nodes = (
(425,285,qs),
(389,333,o),
(316,350,q),
(370,360,o),
(403,404,qs),
(433,445,o),
(432,495,qs),
(430,555,o),
(390,594,qs),
(343,638,o),
(262,633,qs),
(202,629,o),
(116,554,o),
(102,496,q),
(153,475,l),
(166,522,o),
(201,551,qs),
(232,576,o),
(272,578,qs),
(314,579,o),
(369,527,o),
(367,482,qs),
(365,438,o),
(329,406,qs),
(292,374,o),
(237,378,q),
(237,316,o),
(238,314,q),
(298,317,o),
(345,279,qs),
(397,236,o),
(393,169,qs),
(389,112,o),
(307,49,o),
(244,50,qs),
(203,51,o),
(162,65,q),
(157,66,o),
(120,82,q),
(98,19,l),
(147,-3,o),
(241,-8,qs),
(344,-13,o),
(406,46,qs),
(461,98,o),
(461,175,qs),
(461,240,o)
);
}
);
userData = {
assembly = "PUSHW[ ]	/* 3 values pushed */
39 24 3
CALL[ ]	/* CallFunction */
NPUSHW[ ]	/* 5 values pushed */
58 24 74 24 2
DELTAP2[ ]	/* DeltaExceptionP2 */
NPUSHW[ ]	/* 21 values pushed */
105 24 121 24 137 24 153 24 169 24 185 24 201 24 217 24 233 24 249 24 10
DELTAP1[ ]	/* DeltaExceptionP1 */
NPUSHW[ ]	/* 7 values pushed */
9 24 25 24 41 24 3
DELTAP2[ ]	/* DeltaExceptionP2 */
PUSHW[ ]	/* 3 values pushed */
14 24 39
SRP1[ ]	/* SetRefPoint1 */
SRP2[ ]	/* SetRefPoint2 */
IP[ ]	/* InterpolatePts */
PUSHW[ ]	/* 1 value pushed */
14
MDAP[1]	/* MoveDirectAbsPt */
NPUSHW[ ]	/* 5 values pushed */
58 14 74 14 2
DELTAP2[ ]	/* DeltaExceptionP2 */
NPUSHW[ ]	/* 21 values pushed */
105 14 121 14 137 14 153 14 169 14 185 14 201 14 217 14 233 14 249 14 10
DELTAP1[ ]	/* DeltaExceptionP1 */
NPUSHW[ ]	/* 7 values pushed */
9 14 25 14 41 14 3
DELTAP2[ ]	/* DeltaExceptionP2 */
PUSHW[ ]	/* 1 value pushed */
0
MDRP[11100]	/* MoveDirectRelPt */
SVTCA[0]	/* SetFreedomAndProjectionVectorToAxis */
PUSHW[ ]	/* 1 value pushed */
0
RCVT[ ]	/* ReadCVT */
IF[ ]	/* If */
PUSHW[ ]	/* 1 value pushed */
35
MDAP[1]	/* MoveDirectAbsPt */
ELSE[ ]	/* Else */
PUSHW[ ]	/* 2 values pushed */
35 7
MIAP[0]	/* MoveIndirectAbsPt */
EIF[ ]	/* EndIf */
PUSHW[ ]	/* 1 value pushed */
0
RCVT[ ]	/* ReadCVT */
IF[ ]	/* If */
PUSHW[ ]	/* 1 value pushed */
4
MDAP[1]	/* MoveDirectAbsPt */
ELSE[ ]	/* Else */
PUSHW[ ]	/* 2 values pushed */
4 1
MIAP[0]	/* MoveIndirectAbsPt */
EIF[ ]	/* EndIf */
PUSHW[ ]	/* 1 value pushed */
11
MDRP[11100]	/* MoveDirectRelPt */
NPUSHW[ ]	/* 21 values pushed */
103 11 119 11 135 11 151 11 167 11 183 11 199 11 215 11 231 11 247 11 10
DELTAP1[ ]	/* DeltaExceptionP1 */
NPUSHW[ ]	/* 7 values pushed */
7 11 23 11 39 11 3
DELTAP2[ ]	/* DeltaExceptionP2 */
NPUSHW[ ]	/* 5 values pushed */
54 11 70 11 2
DELTAP2[ ]	/* DeltaExceptionP2 */
PUSHW[ ]	/* 1 value pushed */
35
SRP0[ ]	/* SetRefPoint0 */
PUSHW[ ]	/* 1 value pushed */
27
MDRP[11100]	/* MoveDirectRelPt */
NPUSHW[ ]	/* 5 values pushed */
57 27 73 27 2
DELTAP2[ ]	/* DeltaExceptionP2 */
NPUSHW[ ]	/* 21 values pushed */
104 27 120 27 136 27 152 27 168 27 184 27 200 27 216 27 232 27 248 27 10
DELTAP1[ ]	/* DeltaExceptionP1 */
NPUSHW[ ]	/* 7 values pushed */
8 27 24 27 40 27 3
DELTAP2[ ]	/* DeltaExceptionP2 */
PUSHW[ ]	/* 3 values pushed */
43 4 35
SRP1[ ]	/* SetRefPoint1 */
SRP2[ ]	/* SetRefPoint2 */
IP[ ]	/* InterpolatePts */
IUP[0]	/* InterpolateUntPts */
IUP[1]	/* InterpolateUntPts */";
};
width = 535;
}
);
note = three;
unicode = 51;
},
{
glyphname = four;
layers = (
{
layerId = m01;
shapes = (
{
closed = 1;
nodes = (
(440,221,o),
(407,217,o),
(396,218,q),
(396,325,l),
(396,523,l),
(396,629,l),
(395,630,o),
(376,630,qs),
(358,631,o),
(357,630,q),
(341,601,o),
(263,479,o),
(199,385,qs),
(172,346,o),
(111,258,o),
(77,209,q),
(77,162,l),
(237,163,o),
(332,162,q),
(332,53,l),
(331,48,o),
(325,21,o),
(319,0,q),
(406,0,l),
(401,20,o),
(397,48,o),
(396,58,q),
(396,161,l),
(413,160,o),
(445,157,o),
(460,153,q),
(460,225,l)
);
},
{
closed = 1;
nodes = (
(217,215,o),
(151,216,q),
(208,302,o),
(298,432,o),
(332,478,q),
(331,443,o),
(331,312,o),
(331,215,q),
(306,214,o)
);
}
);
userData = {
assembly = "PUSHW[ ]	/* 3 values pushed */
28 32 3
CALL[ ]	/* CallFunction */
PUSHW[ ]	/* 1 value pushed */
28
SRP0[ ]	/* SetRefPoint0 */
PUSHW[ ]	/* 1 value pushed */
3
MDRP[10000]	/* MoveDirectRelPt */
PUSHW[ ]	/* 1 value pushed */
32
SRP0[ ]	/* SetRefPoint0 */
PUSHW[ ]	/* 1 value pushed */
11
MDRP[10000]	/* MoveDirectRelPt */
PUSHW[ ]	/* 1 value pushed */
11
MDAP[1]	/* MoveDirectAbsPt */
PUSHW[ ]	/* 1 value pushed */
28
SRP0[ ]	/* SetRefPoint0 */
PUSHW[ ]	/* 1 value pushed */
25
MDRP[10000]	/* MoveDirectRelPt */
PUSHW[ ]	/* 1 value pushed */
32
SRP0[ ]	/* SetRefPoint0 */
PUSHW[ ]	/* 1 value pushed */
31
MDRP[11100]	/* MoveDirectRelPt */
PUSHW[ ]	/* 1 value pushed */
32
SRP0[ ]	/* SetRefPoint0 */
PUSHW[ ]	/* 1 value pushed */
35
MDRP[10000]	/* MoveDirectRelPt */
PUSHW[ ]	/* 1 value pushed */
35
MDAP[1]	/* MoveDirectAbsPt */
SVTCA[0]	/* SetFreedomAndProjectionVectorToAxis */
PUSHW[ ]	/* 1 value pushed */
0
RCVT[ ]	/* ReadCVT */
IF[ ]	/* If */
PUSHW[ ]	/* 1 value pushed */
21
MDAP[1]	/* MoveDirectAbsPt */
ELSE[ ]	/* Else */
PUSHW[ ]	/* 2 values pushed */
21 7
MIAP[0]	/* MoveIndirectAbsPt */
EIF[ ]	/* EndIf */
PUSHW[ ]	/* 1 value pushed */
0
RCVT[ ]	/* ReadCVT */
IF[ ]	/* If */
PUSHW[ ]	/* 1 value pushed */
23
MDAP[1]	/* MoveDirectAbsPt */
ELSE[ ]	/* Else */
PUSHW[ ]	/* 2 values pushed */
23 7
MIAP[0]	/* MoveIndirectAbsPt */
EIF[ ]	/* EndIf */
PUSHW[ ]	/* 1 value pushed */
0
RCVT[ ]	/* ReadCVT */
IF[ ]	/* If */
PUSHW[ ]	/* 1 value pushed */
25
MDAP[1]	/* MoveDirectAbsPt */
ELSE[ ]	/* Else */
PUSHW[ ]	/* 2 values pushed */
25 7
MIAP[0]	/* MoveIndirectAbsPt */
EIF[ ]	/* EndIf */
PUSHW[ ]	/* 1 value pushed */
0
RCVT[ ]	/* ReadCVT */
IF[ ]	/* If */
PUSHW[ ]	/* 1 value pushed */
7
MDAP[1]	/* MoveDirectAbsPt */
ELSE[ ]	/* Else */
PUSHW[ ]	/* 2 values pushed */
7 1
MIAP[0]	/* MoveIndirectAbsPt */
EIF[ ]	/* EndIf */
PUSHW[ ]	/* 1 value pushed */
32
MDRP[11100]	/* MoveDirectRelPt */
NPUSHW[ ]	/* 21 values pushed */
103 32 119 32 135 32 151 32 167 32 183 32 199 32 215 32 231 32 247 32 10
DELTAP1[ ]	/* DeltaExceptionP1 */
NPUSHW[ ]	/* 7 values pushed */
7 32 23 32 39 32 3
DELTAP2[ ]	/* DeltaExceptionP2 */
NPUSHW[ ]	/* 5 values pushed */
54 32 70 32 2
DELTAP2[ ]	/* DeltaExceptionP2 */
PUSHW[ ]	/* 3 values pushed */
0 7 32
SRP1[ ]	/* SetRefPoint1 */
SRP2[ ]	/* SetRefPoint2 */
IP[ ]	/* InterpolatePts */
PUSHW[ ]	/* 1 value pushed */
38
MDRP[10000]	/* MoveDirectRelPt */
PUSHW[ ]	/* 1 value pushed */
14
MDRP[11100]	/* MoveDirectRelPt */
PUSHW[ ]	/* 1 value pushed */
3
MDRP[10000]	/* MoveDirectRelPt */
PUSHW[ ]	/* 1 value pushed */
3
MDAP[1]	/* MoveDirectAbsPt */
PUSHW[ ]	/* 1 value pushed */
14
SRP0[ ]	/* SetRefPoint0 */
PUSHW[ ]	/* 1 value pushed */
12
MDRP[10000]	/* MoveDirectRelPt */
PUSHW[ ]	/* 3 values pushed */
35 7 21
SRP1[ ]	/* SetRefPoint1 */
SRP2[ ]	/* SetRefPoint2 */
IP[ ]	/* InterpolatePts */
IUP[0]	/* InterpolateUntPts */
IUP[1]	/* InterpolateUntPts */";
};
width = 535;
}
);
note = four;
unicode = 52;
},
{
glyphname = five;
layers = (
{
layerId = m01;
shapes = (
{
closed = 1;
nodes = (
(389,375,qs),
(314,447,o),
(174,447,qs),
(163,447,o),
(141,446,o),
(130,445,q),
(129,476,o),
(129,539,o),
(131,571,q),
(293,571,ls),
(351,571,o),
(357,563,qs),
(360,560,o),
(364,556,o),
(365,545,q),
(415,545,l),
(411,596,o),
(415,627,q),
(351,624,o),
(248,621,o),
(208,622,qs),
(145,623,o),
(67,628,q),
(74,600,o),
(74,360,q),
(116,360,l),
(120,379,o),
(136,383,q),
(146,384,o),
(165,385,o),
(175,385,qs),
(275,385,o),
(334,335,qs),
(389,287,o),
(388,211,qs),
(386,135,o),
(334,89,qs),
(281,42,o),
(206,42,qs),
(152,42,o),
(86,65,q),
(65,2,l),
(131,-18,o),
(204,-18,qs),
(255,-18,o),
(291,-8,qs),
(367,11,o),
(411,77,qs),
(453,138,o),
(453,216,qs),
(453,312,o)
);
}
);
userData = {
assembly = "PUSHW[ ]	/* 1 value pushed */
51
MDAP[1]	/* MoveDirectAbsPt */
PUSHW[ ]	/* 1 value pushed */
15
MDAP[1]	/* MoveDirectAbsPt */
NPUSHW[ ]	/* 5 values pushed */
58 15 74 15 2
DELTAP2[ ]	/* DeltaExceptionP2 */
NPUSHW[ ]	/* 21 values pushed */
105 15 121 15 137 15 153 15 169 15 185 15 201 15 217 15 233 15 249 15 10
DELTAP1[ ]	/* DeltaExceptionP1 */
NPUSHW[ ]	/* 7 values pushed */
9 15 25 15 41 15 3
DELTAP2[ ]	/* DeltaExceptionP2 */
PUSHW[ ]	/* 1 value pushed */
0
MDRP[11100]	/* MoveDirectRelPt */
PUSHW[ ]	/* 1 value pushed */
51
SRP0[ ]	/* SetRefPoint0 */
PUSHW[ ]	/* 1 value pushed */
25
MDRP[10000]	/* MoveDirectRelPt */
PUSHW[ ]	/* 1 value pushed */
25
MDAP[1]	/* MoveDirectAbsPt */
PUSHW[ ]	/* 1 value pushed */
41
MDRP[11100]	/* MoveDirectRelPt */
PUSHW[ ]	/* 1 value pushed */
22
MDRP[10000]	/* MoveDirectRelPt */
PUSHW[ ]	/* 1 value pushed */
22
MDAP[1]	/* MoveDirectAbsPt */
PUSHW[ ]	/* 1 value pushed */
25
SRP0[ ]	/* SetRefPoint0 */
PUSHW[ ]	/* 1 value pushed */
27
MDRP[10000]	/* MoveDirectRelPt */
PUSHW[ ]	/* 1 value pushed */
27
MDAP[1]	/* MoveDirectAbsPt */
PUSHW[ ]	/* 1 value pushed */
41
SRP0[ ]	/* SetRefPoint0 */
PUSHW[ ]	/* 1 value pushed */
44
MDRP[10000]	/* MoveDirectRelPt */
PUSHW[ ]	/* 1 value pushed */
44
MDAP[1]	/* MoveDirectAbsPt */
PUSHW[ ]	/* 1 value pushed */
15
SRP0[ ]	/* SetRefPoint0 */
PUSHW[ ]	/* 1 value pushed */
49
MDRP[10000]	/* MoveDirectRelPt */
PUSHW[ ]	/* 1 value pushed */
49
MDAP[1]	/* MoveDirectAbsPt */
PUSHW[ ]	/* 1 value pushed */
0
SRP0[ ]	/* SetRefPoint0 */
PUSHW[ ]	/* 1 value pushed */
52
MDRP[11100]	/* MoveDirectRelPt */
SVTCA[0]	/* SetFreedomAndProjectionVectorToAxis */
PUSHW[ ]	/* 1 value pushed */
0
RCVT[ ]	/* ReadCVT */
IF[ ]	/* If */
PUSHW[ ]	/* 1 value pushed */
27
MDAP[1]	/* MoveDirectAbsPt */
ELSE[ ]	/* Else */
PUSHW[ ]	/* 2 values pushed */
27 7
MIAP[0]	/* MoveIndirectAbsPt */
EIF[ ]	/* EndIf */
PUSHW[ ]	/* 1 value pushed */
0
RCVT[ ]	/* ReadCVT */
IF[ ]	/* If */
PUSHW[ ]	/* 1 value pushed */
29
MDAP[1]	/* MoveDirectAbsPt */
ELSE[ ]	/* Else */
PUSHW[ ]	/* 2 values pushed */
29 7
MIAP[0]	/* MoveIndirectAbsPt */
EIF[ ]	/* EndIf */
PUSHW[ ]	/* 1 value pushed */
0
RCVT[ ]	/* ReadCVT */
IF[ ]	/* If */
PUSHW[ ]	/* 1 value pushed */
32
MDAP[1]	/* MoveDirectAbsPt */
ELSE[ ]	/* Else */
PUSHW[ ]	/* 2 values pushed */
32 7
MIAP[0]	/* MoveIndirectAbsPt */
EIF[ ]	/* EndIf */
PUSHW[ ]	/* 1 value pushed */
0
RCVT[ ]	/* ReadCVT */
IF[ ]	/* If */
PUSHW[ ]	/* 1 value pushed */
6
MDAP[1]	/* MoveDirectAbsPt */
ELSE[ ]	/* Else */
PUSHW[ ]	/* 2 values pushed */
6 1
MIAP[0]	/* MoveIndirectAbsPt */
EIF[ ]	/* EndIf */
PUSHW[ ]	/* 3 values pushed */
47 19 3
CALL[ ]	/* CallFunction */
PUSHW[ ]	/* 1 value pushed */
6
SRP0[ ]	/* SetRefPoint0 */
PUSHW[ ]	/* 1 value pushed */
11
MDRP[11100]	/* MoveDirectRelPt */
NPUSHW[ ]	/* 21 values pushed */
103 11 119 11 135 11 151 11 167 11 183 11 199 11 215 11 231 11 247 11 10
DELTAP1[ ]	/* DeltaExceptionP1 */
NPUSHW[ ]	/* 7 values pushed */
7 11 23 11 39 11 3
DELTAP2[ ]	/* DeltaExceptionP2 */
NPUSHW[ ]	/* 5 values pushed */
54 11 70 11 2
DELTAP2[ ]	/* DeltaExceptionP2 */
PUSHW[ ]	/* 1 value pushed */
29
SRP0[ ]	/* SetRefPoint0 */
PUSHW[ ]	/* 1 value pushed */
40
MDRP[11100]	/* MoveDirectRelPt */
PUSHW[ ]	/* 1 value pushed */
41
MDRP[10000]	/* MoveDirectRelPt */
IUP[0]	/* InterpolateUntPts */
IUP[1]	/* InterpolateUntPts */";
};
width = 535;
}
);
note = five;
unicode = 53;
},
{
glyphname = six;
layers = (
{
layerId = m01;
shapes = (
{
closed = 1;
nodes = (
(421,289,qs),
(370,343,o),
(284,343,qs),
(205,343,o),
(153,289,q),
(188,373,o),
(271,464,qs),
(297,490,o),
(352,539,o),
(383,562,qs),
(396,571,o),
(422,587,o),
(435,595,q),
(395,642,l),
(269,561,o),
(193,466,qs),
(129,389,o),
(104,332,qs),
(91,303,o),
(75,238,o),
(73,201,qs),
(66,103,o),
(122,41,qs),
(177,-19,o),
(278,-19,qs),
(365,-19,o),
(418,38,qs),
(467,90,o),
(468,163,qs),
(470,240,o)
);
},
{
closed = 1;
nodes = (
(387,88,o),
(354,53,o),
(309,34,o),
(282,34,qs),
(212,35,o),
(131,113,o),
(131,179,qs),
(131,195,o),
(134,212,q),
(146,227,o),
(179,255,o),
(218,276,o),
(260,288,o),
(281,288,qs),
(311,288,o),
(358,269,o),
(391,235,o),
(408,189,o),
(407,162,qs),
(406,135,o)
);
}
);
userData = {
assembly = "PUSHW[ ]	/* 1 value pushed */
50
MDAP[1]	/* MoveDirectAbsPt */
PUSHW[ ]	/* 1 value pushed */
30
MDAP[1]	/* MoveDirectAbsPt */
NPUSHW[ ]	/* 5 values pushed */
58 30 74 30 2
DELTAP2[ ]	/* DeltaExceptionP2 */
NPUSHW[ ]	/* 21 values pushed */
105 30 121 30 137 30 153 30 169 30 185 30 201 30 217 30 233 30 249 30 10
DELTAP1[ ]	/* DeltaExceptionP1 */
NPUSHW[ ]	/* 7 values pushed */
9 30 25 30 41 30 3
DELTAP2[ ]	/* DeltaExceptionP2 */
PUSHW[ ]	/* 1 value pushed */
0
MDRP[11100]	/* MoveDirectRelPt */
PUSHW[ ]	/* 1 value pushed */
50
SRP0[ ]	/* SetRefPoint0 */
PUSHW[ ]	/* 1 value pushed */
8
MDRP[10000]	/* MoveDirectRelPt */
PUSHW[ ]	/* 1 value pushed */
8
MDAP[1]	/* MoveDirectAbsPt */
PUSHW[ ]	/* 3 values pushed */
24 8 0
SRP1[ ]	/* SetRefPoint1 */
SRP2[ ]	/* SetRefPoint2 */
IP[ ]	/* InterpolatePts */
PUSHW[ ]	/* 1 value pushed */
42
MDRP[11100]	/* MoveDirectRelPt */
NPUSHW[ ]	/* 21 values pushed */
102 42 118 42 134 42 150 42 166 42 182 42 198 42 214 42 230 42 246 42 10
DELTAP1[ ]	/* DeltaExceptionP1 */
NPUSHW[ ]	/* 7 values pushed */
6 42 22 42 38 42 3
DELTAP2[ ]	/* DeltaExceptionP2 */
NPUSHW[ ]	/* 5 values pushed */
53 42 69 42 2
DELTAP2[ ]	/* DeltaExceptionP2 */
PUSHW[ ]	/* 1 value pushed */
40
MDRP[10000]	/* MoveDirectRelPt */
PUSHW[ ]	/* 1 value pushed */
40
MDAP[1]	/* MoveDirectAbsPt */
PUSHW[ ]	/* 1 value pushed */
0
SRP0[ ]	/* SetRefPoint0 */
PUSHW[ ]	/* 1 value pushed */
51
MDRP[11100]	/* MoveDirectRelPt */
SVTCA[0]	/* SetFreedomAndProjectionVectorToAxis */
PUSHW[ ]	/* 1 value pushed */
0
RCVT[ ]	/* ReadCVT */
IF[ ]	/* If */
PUSHW[ ]	/* 1 value pushed */
15
MDAP[1]	/* MoveDirectAbsPt */
ELSE[ ]	/* Else */
PUSHW[ ]	/* 2 values pushed */
15 7
MIAP[0]	/* MoveIndirectAbsPt */
EIF[ ]	/* EndIf */
PUSHW[ ]	/* 1 value pushed */
0
RCVT[ ]	/* ReadCVT */
IF[ ]	/* If */
PUSHW[ ]	/* 1 value pushed */
4
MDAP[1]	/* MoveDirectAbsPt */
ELSE[ ]	/* Else */
PUSHW[ ]	/* 2 values pushed */
4 1
MIAP[0]	/* MoveIndirectAbsPt */
EIF[ ]	/* EndIf */
PUSHW[ ]	/* 3 values pushed */
26 35 3
CALL[ ]	/* CallFunction */
PUSHW[ ]	/* 3 values pushed */
24 35 26
SRP1[ ]	/* SetRefPoint1 */
SRP2[ ]	/* SetRefPoint2 */
IP[ ]	/* InterpolatePts */
PUSHW[ ]	/* 1 value pushed */
4
SRP0[ ]	/* SetRefPoint0 */
PUSHW[ ]	/* 1 value pushed */
45
MDRP[11100]	/* MoveDirectRelPt */
NPUSHW[ ]	/* 21 values pushed */
103 45 119 45 135 45 151 45 167 45 183 45 199 45 215 45 231 45 247 45 10
DELTAP1[ ]	/* DeltaExceptionP1 */
NPUSHW[ ]	/* 7 values pushed */
7 45 23 45 39 45 3
DELTAP2[ ]	/* DeltaExceptionP2 */
NPUSHW[ ]	/* 5 values pushed */
54 45 70 45 2
DELTAP2[ ]	/* DeltaExceptionP2 */
IUP[0]	/* InterpolateUntPts */
IUP[1]	/* InterpolateUntPts */";
};
width = 535;
}
);
note = six;
unicode = 54;
},
{
glyphname = seven;
layers = (
{
layerId = m01;
shapes = (
{
closed = 1;
nodes = (
(347,622,o),
(285,622,qs),
(245,622,o),
(143,625,o),
(79,627,q),
(84,592,o),
(79,518,q),
(129,518,l),
(130,545,o),
(138,554,qs),
(148,567,o),
(200,567,qs),
(400,567,l),
(342,492,o),
(257,342,o),
(231,266,qs),
(194,161,o),
(175,0,qs),
(175,-2,o),
(250,0,q),
(254,83,o),
(286,235,o),
(315,306,qs),
(371,440,o),
(488,590,q),
(488,628,l)
);
}
);
userData = {
assembly = "SVTCA[0]	/* SetFreedomAndProjectionVectorToAxis */
PUSHW[ ]	/* 1 value pushed */
0
RCVT[ ]	/* ReadCVT */
IF[ ]	/* If */
PUSHW[ ]	/* 1 value pushed */
20
MDAP[1]	/* MoveDirectAbsPt */
ELSE[ ]	/* Else */
PUSHW[ ]	/* 2 values pushed */
20 7
MIAP[0]	/* MoveIndirectAbsPt */
EIF[ ]	/* EndIf */
PUSHW[ ]	/* 1 value pushed */
0
RCVT[ ]	/* ReadCVT */
IF[ ]	/* If */
PUSHW[ ]	/* 1 value pushed */
23
MDAP[1]	/* MoveDirectAbsPt */
ELSE[ ]	/* Else */
PUSHW[ ]	/* 2 values pushed */
23 7
MIAP[0]	/* MoveIndirectAbsPt */
EIF[ ]	/* EndIf */
PUSHW[ ]	/* 1 value pushed */
0
RCVT[ ]	/* ReadCVT */
IF[ ]	/* If */
PUSHW[ ]	/* 1 value pushed */
25
MDAP[1]	/* MoveDirectAbsPt */
ELSE[ ]	/* Else */
PUSHW[ ]	/* 2 values pushed */
25 7
MIAP[0]	/* MoveIndirectAbsPt */
EIF[ ]	/* EndIf */
PUSHW[ ]	/* 1 value pushed */
12
MDRP[11100]	/* MoveDirectRelPt */
PUSHW[ ]	/* 1 value pushed */
13
MDRP[10000]	/* MoveDirectRelPt */
IUP[0]	/* InterpolateUntPts */
IUP[1]	/* InterpolateUntPts */";
};
width = 535;
}
);
note = seven;
unicode = 55;
},
{
glyphname = eight;
layers = (
{
layerId = m01;
shapes = (
{
closed = 1;
nodes = (
(430,298,qs),
(386,355,o),
(318,355,q),
(370,355,o),
(404,395,qs),
(438,435,o),
(438,489,qs),
(438,547,o),
(398,587,qs),
(354,631,o),
(273,633,qs),
(191,634,o),
(143,585,qs),
(100,542,o),
(101,481,qs),
(101,431,o),
(133,394,qs),
(167,355,o),
(221,355,q),
(153,352,o),
(111,299,qs),
(69,246,o),
(69,178,qs),
(69,101,o),
(118,51,qs),
(174,-8,o),
(273,-7,qs),
(369,-7,o),
(423,50,qs),
(471,99,o),
(471,173,qs),
(472,245,o)
);
},
{
closed = 1;
nodes = (
(352,420,qs),
(323,388,o),
(274,388,qs),
(220,388,o),
(189,418,qs),
(161,443,o),
(161,485,qs),
(161,525,o),
(189,552,qs),
(220,583,o),
(273,583,qs),
(324,583,o),
(352,555,qs),
(378,529,o),
(378,491,qs),
(379,449,o)
);
},
{
closed = 1;
nodes = (
(371,85,qs),
(335,46,o),
(274,46,qs),
(205,48,o),
(168,88,qs),
(134,125,o),
(135,180,qs),
(137,236,o),
(172,276,qs),
(212,319,o),
(276,319,qs),
(338,319,o),
(375,273,qs),
(408,233,o),
(406,173,qs),
(404,120,o)
);
}
);
userData = {
assembly = "PUSHW[ ]	/* 3 values pushed */
56 8 3
CALL[ ]	/* CallFunction */
PUSHW[ ]	/* 3 values pushed */
24 32 3
CALL[ ]	/* CallFunction */
NPUSHW[ ]	/* 5 values pushed */
58 32 74 32 2
DELTAP2[ ]	/* DeltaExceptionP2 */
NPUSHW[ ]	/* 21 values pushed */
105 32 121 32 137 32 153 32 169 32 185 32 201 32 217 32 233 32 249 32 10
DELTAP1[ ]	/* DeltaExceptionP1 */
NPUSHW[ ]	/* 7 values pushed */
9 32 25 32 41 32 3
DELTAP2[ ]	/* DeltaExceptionP2 */
PUSHW[ ]	/* 3 values pushed */
48 32 24
SRP1[ ]	/* SetRefPoint1 */
SRP2[ ]	/* SetRefPoint2 */
IP[ ]	/* InterpolatePts */
PUSHW[ ]	/* 1 value pushed */
48
MDAP[1]	/* MoveDirectAbsPt */
NPUSHW[ ]	/* 5 values pushed */
58 48 74 48 2
DELTAP2[ ]	/* DeltaExceptionP2 */
NPUSHW[ ]	/* 21 values pushed */
105 48 121 48 137 48 153 48 169 48 185 48 201 48 217 48 233 48 249 48 10
DELTAP1[ ]	/* DeltaExceptionP1 */
NPUSHW[ ]	/* 7 values pushed */
9 48 25 48 41 48 3
DELTAP2[ ]	/* DeltaExceptionP2 */
PUSHW[ ]	/* 1 value pushed */
0
MDRP[11100]	/* MoveDirectRelPt */
PUSHW[ ]	/* 3 values pushed */
12 8 0
SRP1[ ]	/* SetRefPoint1 */
SRP2[ ]	/* SetRefPoint2 */
IP[ ]	/* InterpolatePts */
NPUSHW[ ]	/* 21 values pushed */
102 56 118 56 134 56 150 56 166 56 182 56 198 56 214 56 230 56 246 56 10
DELTAP1[ ]	/* DeltaExceptionP1 */
NPUSHW[ ]	/* 7 values pushed */
6 56 22 56 38 56 3
DELTAP2[ ]	/* DeltaExceptionP2 */
NPUSHW[ ]	/* 5 values pushed */
53 56 69 56 2
DELTAP2[ ]	/* DeltaExceptionP2 */
PUSHW[ ]	/* 3 values pushed */
16 8 56
SRP1[ ]	/* SetRefPoint1 */
SRP2[ ]	/* SetRefPoint2 */
IP[ ]	/* InterpolatePts */
PUSHW[ ]	/* 1 value pushed */
16
MDAP[1]	/* MoveDirectAbsPt */
PUSHW[ ]	/* 3 values pushed */
28 8 0
SRP1[ ]	/* SetRefPoint1 */
SRP2[ ]	/* SetRefPoint2 */
IP[ ]	/* InterpolatePts */
PUSHW[ ]	/* 1 value pushed */
40
MDRP[11100]	/* MoveDirectRelPt */
SVTCA[0]	/* SetFreedomAndProjectionVectorToAxis */
PUSHW[ ]	/* 1 value pushed */
0
RCVT[ ]	/* ReadCVT */
IF[ ]	/* If */
PUSHW[ ]	/* 1 value pushed */
20
MDAP[1]	/* MoveDirectAbsPt */
ELSE[ ]	/* Else */
PUSHW[ ]	/* 2 values pushed */
20 7
MIAP[0]	/* MoveIndirectAbsPt */
EIF[ ]	/* EndIf */
PUSHW[ ]	/* 1 value pushed */
0
RCVT[ ]	/* ReadCVT */
IF[ ]	/* If */
PUSHW[ ]	/* 1 value pushed */
4
MDAP[1]	/* MoveDirectAbsPt */
ELSE[ ]	/* Else */
PUSHW[ ]	/* 2 values pushed */
4 1
MIAP[0]	/* MoveIndirectAbsPt */
EIF[ ]	/* EndIf */
PUSHW[ ]	/* 3 values pushed */
44 28 3
CALL[ ]	/* CallFunction */
PUSHW[ ]	/* 1 value pushed */
28
SRP0[ ]	/* SetRefPoint0 */
PUSHW[ ]	/* 1 value pushed */
12
MDRP[10000]	/* MoveDirectRelPt */
PUSHW[ ]	/* 1 value pushed */
20
SRP0[ ]	/* SetRefPoint0 */
PUSHW[ ]	/* 1 value pushed */
36
MDRP[11100]	/* MoveDirectRelPt */
NPUSHW[ ]	/* 5 values pushed */
57 36 73 36 2
DELTAP2[ ]	/* DeltaExceptionP2 */
NPUSHW[ ]	/* 21 values pushed */
104 36 120 36 136 36 152 36 168 36 184 36 200 36 216 36 232 36 248 36 10
DELTAP1[ ]	/* DeltaExceptionP1 */
NPUSHW[ ]	/* 7 values pushed */
8 36 24 36 40 36 3
DELTAP2[ ]	/* DeltaExceptionP2 */
PUSHW[ ]	/* 1 value pushed */
28
SRP0[ ]	/* SetRefPoint0 */
PUSHW[ ]	/* 1 value pushed */
52
MDRP[11100]	/* MoveDirectRelPt */
PUSHW[ ]	/* 1 value pushed */
4
SRP0[ ]	/* SetRefPoint0 */
PUSHW[ ]	/* 1 value pushed */
60
MDRP[11100]	/* MoveDirectRelPt */
NPUSHW[ ]	/* 7 values pushed */
103 60 119 60 135 60 3
DELTAP1[ ]	/* DeltaExceptionP1 */
NPUSHW[ ]	/* 7 values pushed */
215 60 231 60 247 60 3
DELTAP1[ ]	/* DeltaExceptionP1 */
NPUSHW[ ]	/* 7 values pushed */
7 60 23 60 39 60 3
DELTAP2[ ]	/* DeltaExceptionP2 */
NPUSHW[ ]	/* 9 values pushed */
151 60 167 60 183 60 199 60 4
DELTAP1[ ]	/* DeltaExceptionP1 */
NPUSHW[ ]	/* 5 values pushed */
54 60 70 60 2
DELTAP2[ ]	/* DeltaExceptionP2 */
IUP[0]	/* InterpolateUntPts */
IUP[1]	/* InterpolateUntPts */";
};
width = 535;
}
);
note = eight;
unicode = 56;
},
{
glyphname = nine;
layers = (
{
layerId = m01;
shapes = (
{
closed = 1;
nodes = (
(418,570,qs),
(362,632,o),
(262,632,qs),
(174,632,o),
(122,578,qs),
(73,529,o),
(70,456,qs),
(68,415,o),
(93,347,o),
(142,297,o),
(212,270,o),
(256,270,qs),
(338,270,o),
(391,324,q),
(375,278,o),
(319,191,o),
(279,148,qs),
(231,95,o),
(162,51,qs),
(133,33,o),
(105,18,q),
(146,-29,l),
(167,-15,o),
(209,12,o),
(230,26,qs),
(292,72,o),
(341,132,qs),
(372,171,o),
(418,240,o),
(449,307,o),
(465,374,o),
(468,410,qs),
(475,508,o)
);
},
{
closed = 1;
nodes = (
(343,348,qs),
(299,325,o),
(259,325,qs),
(197,325,o),
(163,364,qs),
(131,399,o),
(133,450,qs),
(135,502,o),
(169,539,qs),
(205,578,o),
(262,578,qs),
(332,578,o),
(408,495,o),
(408,429,qs),
(408,422,o),
(407,408,o),
(406,401,q),
(385,371,o)
);
}
);
userData = {
assembly = "PUSHW[ ]	/* 1 value pushed */
51
MDAP[1]	/* MoveDirectAbsPt */
PUSHW[ ]	/* 1 value pushed */
36
MDAP[1]	/* MoveDirectAbsPt */
NPUSHW[ ]	/* 5 values pushed */
58 36 74 36 2
DELTAP2[ ]	/* DeltaExceptionP2 */
NPUSHW[ ]	/* 21 values pushed */
105 36 121 36 137 36 153 36 169 36 185 36 201 36 217 36 233 36 249 36 10
DELTAP1[ ]	/* DeltaExceptionP1 */
NPUSHW[ ]	/* 7 values pushed */
9 36 25 36 41 36 3
DELTAP2[ ]	/* DeltaExceptionP2 */
PUSHW[ ]	/* 1 value pushed */
0
MDRP[11100]	/* MoveDirectRelPt */
PUSHW[ ]	/* 1 value pushed */
51
SRP0[ ]	/* SetRefPoint0 */
PUSHW[ ]	/* 1 value pushed */
25
MDRP[10000]	/* MoveDirectRelPt */
PUSHW[ ]	/* 1 value pushed */
25
MDAP[1]	/* MoveDirectAbsPt */
PUSHW[ ]	/* 3 values pushed */
18 25 0
SRP1[ ]	/* SetRefPoint1 */
SRP2[ ]	/* SetRefPoint2 */
IP[ ]	/* InterpolatePts */
PUSHW[ ]	/* 1 value pushed */
36
SRP0[ ]	/* SetRefPoint0 */
PUSHW[ ]	/* 1 value pushed */
33
MDRP[10000]	/* MoveDirectRelPt */
PUSHW[ ]	/* 1 value pushed */
33
MDAP[1]	/* MoveDirectAbsPt */
PUSHW[ ]	/* 1 value pushed */
25
SRP0[ ]	/* SetRefPoint0 */
PUSHW[ ]	/* 1 value pushed */
43
MDRP[11100]	/* MoveDirectRelPt */
NPUSHW[ ]	/* 21 values pushed */
102 43 118 43 134 43 150 43 166 43 182 43 198 43 214 43 230 43 246 43 10
DELTAP1[ ]	/* DeltaExceptionP1 */
NPUSHW[ ]	/* 7 values pushed */
6 43 22 43 38 43 3
DELTAP2[ ]	/* DeltaExceptionP2 */
NPUSHW[ ]	/* 5 values pushed */
53 43 69 43 2
DELTAP2[ ]	/* DeltaExceptionP2 */
PUSHW[ ]	/* 1 value pushed */
0
SRP0[ ]	/* SetRefPoint0 */
PUSHW[ ]	/* 1 value pushed */
52
MDRP[11100]	/* MoveDirectRelPt */
SVTCA[0]	/* SetFreedomAndProjectionVectorToAxis */
PUSHW[ ]	/* 1 value pushed */
0
RCVT[ ]	/* ReadCVT */
IF[ ]	/* If */
PUSHW[ ]	/* 1 value pushed */
29
MDAP[1]	/* MoveDirectAbsPt */
ELSE[ ]	/* Else */
PUSHW[ ]	/* 2 values pushed */
29 7
MIAP[0]	/* MoveIndirectAbsPt */
EIF[ ]	/* EndIf */
PUSHW[ ]	/* 1 value pushed */
0
RCVT[ ]	/* ReadCVT */
IF[ ]	/* If */
PUSHW[ ]	/* 1 value pushed */
10
MDAP[1]	/* MoveDirectAbsPt */
ELSE[ ]	/* Else */
PUSHW[ ]	/* 2 values pushed */
10 1
MIAP[0]	/* MoveIndirectAbsPt */
EIF[ ]	/* EndIf */
PUSHW[ ]	/* 3 values pushed */
47 20 3
CALL[ ]	/* CallFunction */
PUSHW[ ]	/* 3 values pushed */
18 20 47
SRP1[ ]	/* SetRefPoint1 */
SRP2[ ]	/* SetRefPoint2 */
IP[ ]	/* InterpolatePts */
PUSHW[ ]	/* 1 value pushed */
29
SRP0[ ]	/* SetRefPoint0 */
PUSHW[ ]	/* 1 value pushed */
39
MDRP[11100]	/* MoveDirectRelPt */
NPUSHW[ ]	/* 5 values pushed */
57 39 73 39 2
DELTAP2[ ]	/* DeltaExceptionP2 */
NPUSHW[ ]	/* 21 values pushed */
104 39 120 39 136 39 152 39 168 39 184 39 200 39 216 39 232 39 248 39 10
DELTAP1[ ]	/* DeltaExceptionP1 */
NPUSHW[ ]	/* 7 values pushed */
8 39 24 39 40 39 3
DELTAP2[ ]	/* DeltaExceptionP2 */
IUP[0]	/* InterpolateUntPts */
IUP[1]	/* InterpolateUntPts */";
};
width = 535;
}
);
note = nine;
unicode = 57;
},
{
glyphname = colon;
layers = (
{
layerId = m01;
shapes = (
{
closed = 1;
nodes = (
(131,405,o),
(114,405,qs),
(98,405,o),
(72,380,o),
(72,363,qs),
(72,345,o),
(98,320,o),
(114,320,qs),
(131,320,o),
(157,345,o),
(157,363,qs),
(157,379,o)
);
},
{
closed = 1;
nodes = (
(131,50,o),
(114,50,qs),
(97,50,o),
(72,25,o),
(72,7,qs),
(72,-10,o),
(98,-35,o),
(114,-35,qs),
(131,-35,o),
(157,-9,o),
(157,7,qs),
(157,25,o)
);
}
);
userData = {
assembly = "PUSHW[ ]	/* 3 values pushed */
0 6 3
CALL[ ]	/* CallFunction */
NPUSHW[ ]	/* 5 values pushed */
58 6 74 6 2
DELTAP2[ ]	/* DeltaExceptionP2 */
NPUSHW[ ]	/* 21 values pushed */
105 6 121 6 137 6 153 6 169 6 185 6 201 6 217 6 233 6 249 6 10
DELTAP1[ ]	/* DeltaExceptionP1 */
NPUSHW[ ]	/* 7 values pushed */
9 6 25 6 41 6 3
DELTAP2[ ]	/* DeltaExceptionP2 */
PUSHW[ ]	/* 1 value pushed */
0
SRP0[ ]	/* SetRefPoint0 */
PUSHW[ ]	/* 1 value pushed */
12
MDRP[10000]	/* MoveDirectRelPt */
PUSHW[ ]	/* 1 value pushed */
6
SRP0[ ]	/* SetRefPoint0 */
PUSHW[ ]	/* 1 value pushed */
18
MDRP[10000]	/* MoveDirectRelPt */
SVTCA[0]	/* SetFreedomAndProjectionVectorToAxis */
PUSHW[ ]	/* 3 values pushed */
21 15 3
CALL[ ]	/* CallFunction */
PUSHW[ ]	/* 3 values pushed */
9 3 3
CALL[ ]	/* CallFunction */
IUP[0]	/* InterpolateUntPts */
IUP[1]	/* InterpolateUntPts */";
};
width = 244;
}
);
note = colon;
unicode = 58;
},
{
glyphname = semicolon;
layers = (
{
layerId = m01;
shapes = (
{
closed = 1;
nodes = (
(136,387,qs),
(94,387,o),
(94,355,qs),
(94,338,o),
(120,313,o),
(136,313,qs),
(153,313,o),
(178,338,o),
(178,355,qs),
(178,387,o)
);
},
{
closed = 1;
nodes = (
(153,77,o),
(136,77,qs),
(118,77,o),
(91,51,o),
(91,33,qs),
(91,14,o),
(119,-12,o),
(136,-12,q),
(133,-40,o),
(99,-47,q),
(99,-82,l),
(173,-66,o),
(178,32,qs),
(179,51,o)
);
}
);
userData = {
assembly = "PUSHW[ ]	/* 3 values pushed */
10 18 3
CALL[ ]	/* CallFunction */
NPUSHW[ ]	/* 21 values pushed */
102 10 118 10 134 10 150 10 166 10 182 10 198 10 214 10 230 10 246 10 10
DELTAP1[ ]	/* DeltaExceptionP1 */
NPUSHW[ ]	/* 7 values pushed */
6 10 22 10 38 10 3
DELTAP2[ ]	/* DeltaExceptionP2 */
NPUSHW[ ]	/* 5 values pushed */
53 10 69 10 2
DELTAP2[ ]	/* DeltaExceptionP2 */
PUSHW[ ]	/* 1 value pushed */
10
SRP0[ ]	/* SetRefPoint0 */
PUSHW[ ]	/* 1 value pushed */
0
MDRP[10000]	/* MoveDirectRelPt */
PUSHW[ ]	/* 1 value pushed */
18
SRP0[ ]	/* SetRefPoint0 */
PUSHW[ ]	/* 1 value pushed */
6
MDRP[10000]	/* MoveDirectRelPt */
PUSHW[ ]	/* 1 value pushed */
6
MDAP[1]	/* MoveDirectAbsPt */
SVTCA[0]	/* SetFreedomAndProjectionVectorToAxis */
PUSHW[ ]	/* 1 value pushed */
12
MDAP[1]	/* MoveDirectAbsPt */
PUSHW[ ]	/* 1 value pushed */
0
RCVT[ ]	/* ReadCVT */
IF[ ]	/* If */
PUSHW[ ]	/* 1 value pushed */
15
MDAP[1]	/* MoveDirectAbsPt */
ELSE[ ]	/* Else */
PUSHW[ ]	/* 2 values pushed */
15 1
MIAP[0]	/* MoveIndirectAbsPt */
EIF[ ]	/* EndIf */
PUSHW[ ]	/* 3 values pushed */
8 3 3
CALL[ ]	/* CallFunction */
PUSHW[ ]	/* 1 value pushed */
3
SRP0[ ]	/* SetRefPoint0 */
PUSHW[ ]	/* 1 value pushed */
21
MDRP[11100]	/* MoveDirectRelPt */
IUP[0]	/* InterpolateUntPts */
IUP[1]	/* InterpolateUntPts */";
};
width = 260;
}
);
note = semicolon;
unicode = 59;
},
{
glyphname = less;
layers = (
{
layerId = m01;
shapes = (
{
closed = 1;
nodes = (
(177,282,l),
(411,519,l),
(413,595,l),
(122,304,l),
(122,258,l),
(413,-37,l),
(411,45,l)
);
}
);
userData = {
assembly = "SVTCA[0]	/* SetFreedomAndProjectionVectorToAxis */
PUSHW[ ]	/* 1 value pushed */
0
MDAP[1]	/* MoveDirectAbsPt */
PUSHW[ ]	/* 1 value pushed */
3
MDAP[1]	/* MoveDirectAbsPt */
IUP[0]	/* InterpolateUntPts */
IUP[1]	/* InterpolateUntPts */";
};
width = 472;
}
);
note = less;
unicode = 60;
},
{
glyphname = equalorig;
layers = (
{
layerId = m01;
shapes = (
{
closed = 1;
nodes = (
(118,364,l),
(118,315,l),
(670,315,l),
(670,364,l)
);
},
{
closed = 1;
nodes = (
(118,191,l),
(118,141,l),
(670,141,l),
(670,191,l)
);
}
);
userData = {
assembly = "SVTCA[0]	/* SetFreedomAndProjectionVectorToAxis */
PUSHW[ ]	/* 3 values pushed */
7 4 3
CALL[ ]	/* CallFunction */
PUSHW[ ]	/* 3 values pushed */
3 0 3
CALL[ ]	/* CallFunction */
IUP[0]	/* InterpolateUntPts */
IUP[1]	/* InterpolateUntPts */";
};
width = 788;
}
);
note = equalorig;
unicode = 61;
},
{
glyphname = greater;
layers = (
{
layerId = m01;
shapes = (
{
closed = 1;
nodes = (
(65,595,l),
(67,519,l),
(303,282,l),
(67,45,l),
(65,-37,l),
(357,258,l),
(357,304,l)
);
}
);
userData = {
assembly = "SVTCA[0]	/* SetFreedomAndProjectionVectorToAxis */
PUSHW[ ]	/* 1 value pushed */
1
MDAP[1]	/* MoveDirectAbsPt */
PUSHW[ ]	/* 1 value pushed */
5
MDAP[1]	/* MoveDirectAbsPt */
IUP[0]	/* InterpolateUntPts */
IUP[1]	/* InterpolateUntPts */";
};
width = 472;
}
);
note = greater;
unicode = 62;
},
{
glyphname = question;
layers = (
{
layerId = m01;
shapes = (
{
closed = 1;
nodes = (
(358,581,o),
(315,619,o),
(257,635,o),
(223,635,qs),
(213,635,o),
(196,633,o),
(175,628,o),
(149,620,o),
(131,614,qs),
(78,596,o),
(62,600,q),
(62,572,o),
(65,499,q),
(105,498,l),
(110,525,o),
(127,547,qs),
(159,588,o),
(214,588,qs),
(269,588,o),
(298,553,qs),
(323,522,o),
(323,474,qs),
(323,455,o),
(318,432,qs),
(301,363,o),
(259,322,q),
(240,306,o),
(203,274,o),
(184,258,q),
(122,196,o),
(122,117,q),
(121,112,o),
(121,105,q),
(186,105,l),
(185,116,o),
(184,127,o),
(184,125,qs),
(188,175,o),
(210,207,qs),
(228,230,o),
(268,260,qs),
(382,345,o),
(382,474,qs),
(382,519,o)
);
},
{
closed = 1;
nodes = (
(166,62,o),
(152,62,qs),
(137,62,o),
(116,41,o),
(116,26,qs),
(116,11,o),
(137,-10,o),
(152,-10,qs),
(166,-10,o),
(188,11,o),
(188,26,qs),
(188,41,o)
);
}
);
userData = {
assembly = "PUSHW[ ]	/* 1 value pushed */
56
MDAP[1]	/* MoveDirectAbsPt */
PUSHW[ ]	/* 1 value pushed */
21
MDAP[1]	/* MoveDirectAbsPt */
NPUSHW[ ]	/* 5 values pushed */
58 21 74 21 2
DELTAP2[ ]	/* DeltaExceptionP2 */
NPUSHW[ ]	/* 21 values pushed */
105 21 121 21 137 21 153 21 169 21 185 21 201 21 217 21 233 21 249 21 10
DELTAP1[ ]	/* DeltaExceptionP1 */
NPUSHW[ ]	/* 7 values pushed */
9 21 25 21 41 21 3
DELTAP2[ ]	/* DeltaExceptionP2 */
PUSHW[ ]	/* 1 value pushed */
0
MDRP[11100]	/* MoveDirectRelPt */
PUSHW[ ]	/* 1 value pushed */
56
SRP0[ ]	/* SetRefPoint0 */
PUSHW[ ]	/* 1 value pushed */
50
MDRP[10000]	/* MoveDirectRelPt */
PUSHW[ ]	/* 1 value pushed */
50
MDAP[1]	/* MoveDirectAbsPt */
PUSHW[ ]	/* 1 value pushed */
44
MDRP[11100]	/* MoveDirectRelPt */
NPUSHW[ ]	/* 21 values pushed */
102 44 118 44 134 44 150 44 166 44 182 44 198 44 214 44 230 44 246 44 10
DELTAP1[ ]	/* DeltaExceptionP1 */
NPUSHW[ ]	/* 3 values pushed */
6 44 1
DELTAP2[ ]	/* DeltaExceptionP2 */
NPUSHW[ ]	/* 5 values pushed */
22 44 38 44 2
DELTAP2[ ]	/* DeltaExceptionP2 */
NPUSHW[ ]	/* 5 values pushed */
53 44 69 44 2
DELTAP2[ ]	/* DeltaExceptionP2 */
PUSHW[ ]	/* 1 value pushed */
6
MDRP[10000]	/* MoveDirectRelPt */
PUSHW[ ]	/* 1 value pushed */
6
MDAP[1]	/* MoveDirectAbsPt */
PUSHW[ ]	/* 1 value pushed */
44
SRP0[ ]	/* SetRefPoint0 */
PUSHW[ ]	/* 1 value pushed */
9
MDRP[10000]	/* MoveDirectRelPt */
PUSHW[ ]	/* 1 value pushed */
9
MDAP[1]	/* MoveDirectAbsPt */
PUSHW[ ]	/* 1 value pushed */
50
SRP0[ ]	/* SetRefPoint0 */
PUSHW[ ]	/* 1 value pushed */
10
MDRP[10000]	/* MoveDirectRelPt */
PUSHW[ ]	/* 1 value pushed */
10
MDAP[1]	/* MoveDirectAbsPt */
PUSHW[ ]	/* 1 value pushed */
50
SRP0[ ]	/* SetRefPoint0 */
PUSHW[ ]	/* 1 value pushed */
12
MDRP[10000]	/* MoveDirectRelPt */
PUSHW[ ]	/* 1 value pushed */
12
MDAP[1]	/* MoveDirectAbsPt */
PUSHW[ ]	/* 1 value pushed */
44
SRP0[ ]	/* SetRefPoint0 */
PUSHW[ ]	/* 1 value pushed */
14
MDRP[10000]	/* MoveDirectRelPt */
PUSHW[ ]	/* 1 value pushed */
14
MDAP[1]	/* MoveDirectAbsPt */
PUSHW[ ]	/* 1 value pushed */
21
SRP0[ ]	/* SetRefPoint0 */
PUSHW[ ]	/* 1 value pushed */
19
MDRP[10000]	/* MoveDirectRelPt */
PUSHW[ ]	/* 1 value pushed */
19
MDAP[1]	/* MoveDirectAbsPt */
PUSHW[ ]	/* 1 value pushed */
0
SRP0[ ]	/* SetRefPoint0 */
PUSHW[ ]	/* 1 value pushed */
57
MDRP[11100]	/* MoveDirectRelPt */
SVTCA[0]	/* SetFreedomAndProjectionVectorToAxis */
PUSHW[ ]	/* 1 value pushed */
0
RCVT[ ]	/* ReadCVT */
IF[ ]	/* If */
PUSHW[ ]	/* 1 value pushed */
39
MDAP[1]	/* MoveDirectAbsPt */
ELSE[ ]	/* Else */
PUSHW[ ]	/* 2 values pushed */
39 7
MIAP[0]	/* MoveIndirectAbsPt */
EIF[ ]	/* EndIf */
PUSHW[ ]	/* 1 value pushed */
0
RCVT[ ]	/* ReadCVT */
IF[ ]	/* If */
PUSHW[ ]	/* 1 value pushed */
47
MDAP[1]	/* MoveDirectAbsPt */
ELSE[ ]	/* Else */
PUSHW[ ]	/* 2 values pushed */
47 1
MIAP[0]	/* MoveIndirectAbsPt */
EIF[ ]	/* EndIf */
PUSHW[ ]	/* 1 value pushed */
39
SRP0[ ]	/* SetRefPoint0 */
PUSHW[ ]	/* 1 value pushed */
25
MDRP[11100]	/* MoveDirectRelPt */
NPUSHW[ ]	/* 5 values pushed */
232 25 248 25 2
DELTAP1[ ]	/* DeltaExceptionP1 */
NPUSHW[ ]	/* 3 values pushed */
8 25 1
DELTAP2[ ]	/* DeltaExceptionP2 */
NPUSHW[ ]	/* 5 values pushed */
57 25 73 25 2
DELTAP2[ ]	/* DeltaExceptionP2 */
NPUSHW[ ]	/* 5 values pushed */
24 25 40 25 2
DELTAP2[ ]	/* DeltaExceptionP2 */
NPUSHW[ ]	/* 17 values pushed */
104 25 120 25 136 25 152 25 168 25 184 25 200 25 216 25 8
DELTAP1[ ]	/* DeltaExceptionP1 */
PUSHW[ ]	/* 1 value pushed */
47
SRP0[ ]	/* SetRefPoint0 */
PUSHW[ ]	/* 1 value pushed */
53
MDRP[11100]	/* MoveDirectRelPt */
NPUSHW[ ]	/* 21 values pushed */
103 53 119 53 135 53 151 53 167 53 183 53 199 53 215 53 231 53 247 53 10
DELTAP1[ ]	/* DeltaExceptionP1 */
NPUSHW[ ]	/* 7 values pushed */
7 53 23 53 39 53 3
DELTAP2[ ]	/* DeltaExceptionP2 */
NPUSHW[ ]	/* 5 values pushed */
54 53 70 53 2
DELTAP2[ ]	/* DeltaExceptionP2 */
IUP[0]	/* InterpolateUntPts */
IUP[1]	/* InterpolateUntPts */";
};
width = 426;
}
);
note = question;
unicode = 63;
},
{
glyphname = at;
layers = (
{
layerId = m01;
shapes = (
{
closed = 1;
nodes = (
(769,486,qs),
(662,584,o),
(490,584,qs),
(315,584,o),
(190,477,qs),
(55,360,o),
(55,170,qs),
(55,-20,o),
(182,-134,qs),
(301,-243,o),
(486,-243,q),
(490,-246,o),
(490,-183,q),
(441,-187,o),
(365,-161,qs),
(267,-126,o),
(207,-57,qs),
(129,33,o),
(129,168,qs),
(129,327,o),
(235,426,qs),
(338,521,o),
(486,521,qs),
(634,521,o),
(718,440,qs),
(803,359,o),
(803,223,qs),
(803,215,o),
(803,197,o),
(802,189,qs),
(796,111,o),
(760,71,qs),
(728,36,o),
(690,42,qs),
(590,57,o),
(592,185,qs),
(592,274,o),
(660,336,q),
(654,398,l),
(574,357,o),
(561,287,q),
(505,386,o),
(394,386,qs),
(305,386,o),
(250,322,qs),
(200,263,o),
(200,186,qs),
(200,98,o),
(249,43,qs),
(302,-19,o),
(394,-19,qs),
(445,-19,o),
(537,35,o),
(559,79,q),
(569,34,o),
(640,-18,o),
(691,-20,qs),
(763,-23,o),
(812,28,qs),
(867,86,o),
(873,197,qs),
(882,381,o)
);
},
{
closed = 1;
nodes = (
(492,80,qs),
(451,39,o),
(394,39,qs),
(365,39,o),
(317,60,o),
(283,99,o),
(264,153,o),
(264,186,qs),
(264,244,o),
(303,285,qs),
(343,327,o),
(392,327,qs),
(448,327,o),
(490,284,qs),
(533,242,o),
(533,185,qs),
(533,121,o)
);
}
);
userData = {
assembly = "PUSHW[ ]	/* 3 values pushed */
42 54 3
CALL[ ]	/* CallFunction */
PUSHW[ ]	/* 3 values pushed */
70 14 3
CALL[ ]	/* CallFunction */
PUSHW[ ]	/* 3 values pushed */
25 62 3
CALL[ ]	/* CallFunction */
PUSHW[ ]	/* 3 values pushed */
0 34 3
CALL[ ]	/* CallFunction */
NPUSHW[ ]	/* 5 values pushed */
58 62 74 62 2
DELTAP2[ ]	/* DeltaExceptionP2 */
NPUSHW[ ]	/* 21 values pushed */
105 62 121 62 137 62 153 62 169 62 185 62 201 62 217 62 233 62 249 62 10
DELTAP1[ ]	/* DeltaExceptionP1 */
NPUSHW[ ]	/* 7 values pushed */
9 62 25 62 41 62 3
DELTAP2[ ]	/* DeltaExceptionP2 */
PUSHW[ ]	/* 3 values pushed */
7 62 25
SRP1[ ]	/* SetRefPoint1 */
SRP2[ ]	/* SetRefPoint2 */
IP[ ]	/* InterpolatePts */
PUSHW[ ]	/* 3 values pushed */
20 62 25
SRP1[ ]	/* SetRefPoint1 */
SRP2[ ]	/* SetRefPoint2 */
IP[ ]	/* InterpolatePts */
PUSHW[ ]	/* 3 values pushed */
22 54 0
SRP1[ ]	/* SetRefPoint1 */
SRP2[ ]	/* SetRefPoint2 */
IP[ ]	/* InterpolatePts */
NPUSHW[ ]	/* 5 values pushed */
58 34 74 34 2
DELTAP2[ ]	/* DeltaExceptionP2 */
NPUSHW[ ]	/* 21 values pushed */
105 34 121 34 137 34 153 34 169 34 185 34 201 34 217 34 233 34 249 34 10
DELTAP1[ ]	/* DeltaExceptionP1 */
NPUSHW[ ]	/* 7 values pushed */
9 34 25 34 41 34 3
DELTAP2[ ]	/* DeltaExceptionP2 */
PUSHW[ ]	/* 1 value pushed */
34
SRP0[ ]	/* SetRefPoint0 */
PUSHW[ ]	/* 1 value pushed */
31
MDRP[10000]	/* MoveDirectRelPt */
PUSHW[ ]	/* 1 value pushed */
31
MDAP[1]	/* MoveDirectAbsPt */
NPUSHW[ ]	/* 21 values pushed */
102 42 118 42 134 42 150 42 166 42 182 42 198 42 214 42 230 42 246 42 10
DELTAP1[ ]	/* DeltaExceptionP1 */
NPUSHW[ ]	/* 7 values pushed */
6 42 22 42 38 42 3
DELTAP2[ ]	/* DeltaExceptionP2 */
NPUSHW[ ]	/* 5 values pushed */
53 42 69 42 2
DELTAP2[ ]	/* DeltaExceptionP2 */
NPUSHW[ ]	/* 21 values pushed */
102 70 118 70 134 70 150 70 166 70 182 70 198 70 214 70 230 70 246 70 10
DELTAP1[ ]	/* DeltaExceptionP1 */
NPUSHW[ ]	/* 7 values pushed */
6 70 22 70 38 70 3
DELTAP2[ ]	/* DeltaExceptionP2 */
NPUSHW[ ]	/* 5 values pushed */
53 70 69 70 2
DELTAP2[ ]	/* DeltaExceptionP2 */
SVTCA[0]	/* SetFreedomAndProjectionVectorToAxis */
PUSHW[ ]	/* 1 value pushed */
50
MDAP[1]	/* MoveDirectAbsPt */
PUSHW[ ]	/* 1 value pushed */
0
RCVT[ ]	/* ReadCVT */
IF[ ]	/* If */
PUSHW[ ]	/* 1 value pushed */
4
MDAP[1]	/* MoveDirectAbsPt */
ELSE[ ]	/* Else */
PUSHW[ ]	/* 2 values pushed */
4 1
MIAP[0]	/* MoveIndirectAbsPt */
EIF[ ]	/* EndIf */
PUSHW[ ]	/* 1 value pushed */
0
RCVT[ ]	/* ReadCVT */
IF[ ]	/* If */
PUSHW[ ]	/* 1 value pushed */
10
MDAP[1]	/* MoveDirectAbsPt */
ELSE[ ]	/* Else */
PUSHW[ ]	/* 2 values pushed */
10 1
MIAP[0]	/* MoveIndirectAbsPt */
EIF[ ]	/* EndIf */
PUSHW[ ]	/* 3 values pushed */
58 38 3
CALL[ ]	/* CallFunction */
PUSHW[ ]	/* 3 values pushed */
18 66 3
CALL[ ]	/* CallFunction */
PUSHW[ ]	/* 1 value pushed */
4
SRP0[ ]	/* SetRefPoint0 */
PUSHW[ ]	/* 1 value pushed */
27
MDRP[11100]	/* MoveDirectRelPt */
NPUSHW[ ]	/* 21 values pushed */
103 27 119 27 135 27 151 27 167 27 183 27 199 27 215 27 231 27 247 27 10
DELTAP1[ ]	/* DeltaExceptionP1 */
NPUSHW[ ]	/* 7 values pushed */
7 27 23 27 39 27 3
DELTAP2[ ]	/* DeltaExceptionP2 */
NPUSHW[ ]	/* 5 values pushed */
54 27 70 27 2
DELTAP2[ ]	/* DeltaExceptionP2 */
PUSHW[ ]	/* 1 value pushed */
75
MDRP[10000]	/* MoveDirectRelPt */
IUP[0]	/* InterpolateUntPts */
IUP[1]	/* InterpolateUntPts */";
};
width = 935;
}
);
note = at;
unicode = 64;
},
{
glyphname = A;
lastChange = "2025-12-23 06:00:58 +0000";
layers = (
{
anchors = (
{
name = bottom;
pos = (307,0);
},
{
name = ogonek;
pos = (552,10);
},
{
name = top;
pos = (307,623);
}
);
layerId = m01;
shapes = (
{
closed = 1;
nodes = (
(453,338,qs),
(429,401,o),
(374,548,o),
(343,633,q),
(272,633,l),
(72,97,o),
(23,0,q),
(103,0,l),
(112,42,o),
(176,205,q),
(427,205,l),
(489,32,o),
(496,0,q),
(587,0,l),
(565,37,o)
);
},
{
closed = 1;
nodes = (
(239,375,o),
(293,524,o),
(307,567,q),
(329,495,o),
(378,345,o),
(406,266,q),
(197,266,l)
);
}
);
userData = {
assembly = "SVTCA[0]	/* SetFreedomAndProjectionVectorToAxis */
PUSHW[ ]	/* 1 value pushed */
0
RCVT[ ]	/* ReadCVT */
IF[ ]	/* If */
PUSHW[ ]	/* 1 value pushed */
9
MDAP[1]	/* MoveDirectAbsPt */
ELSE[ ]	/* Else */
PUSHW[ ]	/* 2 values pushed */
9 7
MIAP[0]	/* MoveIndirectAbsPt */
EIF[ ]	/* EndIf */
PUSHW[ ]	/* 1 value pushed */
0
RCVT[ ]	/* ReadCVT */
IF[ ]	/* If */
PUSHW[ ]	/* 1 value pushed */
0
MDAP[1]	/* MoveDirectAbsPt */
ELSE[ ]	/* Else */
PUSHW[ ]	/* 2 values pushed */
0 1
MIAP[0]	/* MoveIndirectAbsPt */
EIF[ ]	/* EndIf */
PUSHW[ ]	/* 1 value pushed */
0
RCVT[ ]	/* ReadCVT */
IF[ ]	/* If */
PUSHW[ ]	/* 1 value pushed */
6
MDAP[1]	/* MoveDirectAbsPt */
ELSE[ ]	/* Else */
PUSHW[ ]	/* 2 values pushed */
6 1
MIAP[0]	/* MoveIndirectAbsPt */
EIF[ ]	/* EndIf */
PUSHW[ ]	/* 3 values pushed */
15 3 3
CALL[ ]	/* CallFunction */
PUSHW[ ]	/* 3 values pushed */
18 0 9
SRP1[ ]	/* SetRefPoint1 */
SRP2[ ]	/* SetRefPoint2 */
IP[ ]	/* InterpolatePts */
IUP[0]	/* InterpolateUntPts */
IUP[1]	/* InterpolateUntPts */";
};
width = 613;
}
);
note = A;
unicode = 65;
},
{
glyphname = B;
layers = (
{
layerId = m01;
shapes = (
{
closed = 1;
nodes = (
(475,276,qs),
(434,313,o),
(388,324,q),
(434,334,o),
(467,369,qs),
(505,410,o),
(505,463,qs),
(505,624,o),
(315,624,qs),
(86,624,l),
(91,605,o),
(96,563,o),
(97,540,qs),
(98,517,o),
(98,311,o),
(98,125,qs),
(96,36,o),
(86,-1,q),
(317,-1,ls),
(394,-1,o),
(448,32,qs),
(522,77,o),
(522,170,qs),
(522,229,o)
);
},
{
closed = 1;
nodes = (
(380,362,qs),
(345,347,o),
(308,347,qs),
(157,347,l),
(157,574,l),
(308,575,ls),
(347,575,o),
(381,561,qs),
(445,534,o),
(445,463,qs),
(445,391,o)
);
},
{
closed = 1;
nodes = (
(312,54,qs),
(157,54,l),
(157,300,l),
(303,300,ls),
(337,300,o),
(383,277,qs),
(454,241,o),
(456,170,qs),
(458,54,o)
);
}
);
userData = {
assembly = "PUSHW[ ]	/* 3 values pushed */
41 7 3
CALL[ ]	/* CallFunction */
PUSHW[ ]	/* 3 values pushed */
16 35 3
CALL[ ]	/* CallFunction */
NPUSHW[ ]	/* 5 values pushed */
58 35 74 35 2
DELTAP2[ ]	/* DeltaExceptionP2 */
NPUSHW[ ]	/* 21 values pushed */
105 35 121 35 137 35 153 35 169 35 185 35 201 35 217 35 233 35 249 35 10
DELTAP1[ ]	/* DeltaExceptionP1 */
NPUSHW[ ]	/* 7 values pushed */
9 35 25 35 41 35 3
DELTAP2[ ]	/* DeltaExceptionP2 */
PUSHW[ ]	/* 1 value pushed */
35
SRP0[ ]	/* SetRefPoint0 */
PUSHW[ ]	/* 1 value pushed */
0
MDRP[11100]	/* MoveDirectRelPt */
PUSHW[ ]	/* 1 value pushed */
7
SRP0[ ]	/* SetRefPoint0 */
PUSHW[ ]	/* 1 value pushed */
10
MDRP[10000]	/* MoveDirectRelPt */
PUSHW[ ]	/* 1 value pushed */
10
MDAP[1]	/* MoveDirectAbsPt */
PUSHW[ ]	/* 3 values pushed */
20 10 0
SRP1[ ]	/* SetRefPoint1 */
SRP2[ ]	/* SetRefPoint2 */
IP[ ]	/* InterpolatePts */
PUSHW[ ]	/* 1 value pushed */
41
SRP0[ ]	/* SetRefPoint0 */
PUSHW[ ]	/* 1 value pushed */
29
MDRP[10000]	/* MoveDirectRelPt */
PUSHW[ ]	/* 1 value pushed */
16
SRP0[ ]	/* SetRefPoint0 */
PUSHW[ ]	/* 1 value pushed */
45
MDRP[11100]	/* MoveDirectRelPt */
SVTCA[0]	/* SetFreedomAndProjectionVectorToAxis */
PUSHW[ ]	/* 1 value pushed */
0
RCVT[ ]	/* ReadCVT */
IF[ ]	/* If */
PUSHW[ ]	/* 1 value pushed */
13
MDAP[1]	/* MoveDirectAbsPt */
ELSE[ ]	/* Else */
PUSHW[ ]	/* 2 values pushed */
13 7
MIAP[0]	/* MoveIndirectAbsPt */
EIF[ ]	/* EndIf */
PUSHW[ ]	/* 1 value pushed */
0
RCVT[ ]	/* ReadCVT */
IF[ ]	/* If */
PUSHW[ ]	/* 1 value pushed */
4
MDAP[1]	/* MoveDirectAbsPt */
ELSE[ ]	/* Else */
PUSHW[ ]	/* 2 values pushed */
4 1
MIAP[0]	/* MoveIndirectAbsPt */
EIF[ ]	/* EndIf */
PUSHW[ ]	/* 3 values pushed */
31 39 3
CALL[ ]	/* CallFunction */
PUSHW[ ]	/* 3 values pushed */
20 39 31
SRP1[ ]	/* SetRefPoint1 */
SRP2[ ]	/* SetRefPoint2 */
IP[ ]	/* InterpolatePts */
PUSHW[ ]	/* 1 value pushed */
13
SRP0[ ]	/* SetRefPoint0 */
PUSHW[ ]	/* 1 value pushed */
28
MDRP[11100]	/* MoveDirectRelPt */
PUSHW[ ]	/* 1 value pushed */
4
SRP0[ ]	/* SetRefPoint0 */
PUSHW[ ]	/* 1 value pushed */
41
MDRP[11100]	/* MoveDirectRelPt */
IUP[0]	/* InterpolateUntPts */
IUP[1]	/* InterpolateUntPts */";
};
width = 586;
}
);
note = B;
unicode = 66;
},
{
glyphname = C;
layers = (
{
layerId = m01;
shapes = (
{
closed = 1;
nodes = (
(426,81,o),
(416,71,qs),
(394,49,o),
(334,49,qs),
(236,49,o),
(172,130,qs),
(113,206,o),
(113,307,qs),
(113,415,o),
(166,491,qs),
(225,572,o),
(324,575,qs),
(390,576,o),
(415,554,q),
(425,533,o),
(427,519,q),
(474,519,l),
(470,554,o),
(466,601,o),
(466,614,q),
(459,613,o),
(414,623,qs),
(368,634,o),
(327,634,qs),
(194,634,o),
(116,536,qs),
(44,446,o),
(44,308,qs),
(44,181,o),
(120,89,qs),
(199,-10,o),
(324,-10,qs),
(372,-10,o),
(420,3,qs),
(466,14,o),
(472,13,q),
(472,26,o),
(475,72,o),
(479,106,q),
(432,106,l)
);
}
);
userData = {
assembly = "PUSHW[ ]	/* 3 values pushed */
31 11 3
CALL[ ]	/* CallFunction */
NPUSHW[ ]	/* 21 values pushed */
102 31 118 31 134 31 150 31 166 31 182 31 198 31 214 31 230 31 246 31 10
DELTAP1[ ]	/* DeltaExceptionP1 */
NPUSHW[ ]	/* 7 values pushed */
6 31 22 31 38 31 3
DELTAP2[ ]	/* DeltaExceptionP2 */
NPUSHW[ ]	/* 5 values pushed */
53 31 69 31 2
DELTAP2[ ]	/* DeltaExceptionP2 */
SVTCA[0]	/* SetFreedomAndProjectionVectorToAxis */
PUSHW[ ]	/* 1 value pushed */
0
RCVT[ ]	/* ReadCVT */
IF[ ]	/* If */
PUSHW[ ]	/* 1 value pushed */
15
MDAP[1]	/* MoveDirectAbsPt */
ELSE[ ]	/* Else */
PUSHW[ ]	/* 2 values pushed */
15 7
MIAP[0]	/* MoveIndirectAbsPt */
EIF[ ]	/* EndIf */
PUSHW[ ]	/* 1 value pushed */
0
RCVT[ ]	/* ReadCVT */
IF[ ]	/* If */
PUSHW[ ]	/* 1 value pushed */
7
MDAP[1]	/* MoveDirectAbsPt */
ELSE[ ]	/* Else */
PUSHW[ ]	/* 2 values pushed */
7 1
MIAP[0]	/* MoveIndirectAbsPt */
EIF[ ]	/* EndIf */
PUSHW[ ]	/* 1 value pushed */
15
SRP0[ ]	/* SetRefPoint0 */
PUSHW[ ]	/* 1 value pushed */
27
MDRP[11100]	/* MoveDirectRelPt */
NPUSHW[ ]	/* 5 values pushed */
57 27 73 27 2
DELTAP2[ ]	/* DeltaExceptionP2 */
NPUSHW[ ]	/* 21 values pushed */
104 27 120 27 136 27 152 27 168 27 184 27 200 27 216 27 232 27 248 27 10
DELTAP1[ ]	/* DeltaExceptionP1 */
NPUSHW[ ]	/* 7 values pushed */
8 27 24 27 40 27 3
DELTAP2[ ]	/* DeltaExceptionP2 */
PUSHW[ ]	/* 1 value pushed */
7
SRP0[ ]	/* SetRefPoint0 */
PUSHW[ ]	/* 1 value pushed */
35
MDRP[11100]	/* MoveDirectRelPt */
NPUSHW[ ]	/* 21 values pushed */
103 35 119 35 135 35 151 35 167 35 183 35 199 35 215 35 231 35 247 35 10
DELTAP1[ ]	/* DeltaExceptionP1 */
NPUSHW[ ]	/* 7 values pushed */
7 35 23 35 39 35 3
DELTAP2[ ]	/* DeltaExceptionP2 */
NPUSHW[ ]	/* 5 values pushed */
54 35 70 35 2
DELTAP2[ ]	/* DeltaExceptionP2 */
IUP[0]	/* InterpolateUntPts */
IUP[1]	/* InterpolateUntPts */";
};
width = 533;
}
);
note = C;
unicode = 67;
},
{
glyphname = D;
layers = (
{
layerId = m01;
shapes = (
{
closed = 1;
nodes = (
(454,533,qs),
(375,621,o),
(230,621,qs),
(39,621,l),
(44,602,o),
(49,556,o),
(50,528,qs),
(51,500,o),
(51,393,o),
(51,312,qs),
(51,123,o),
(48,75,qs),
(46,27,o),
(39,0,q),
(223,0,ls),
(357,0,o),
(442,85,qs),
(529,170,o),
(529,303,qs),
(529,449,o)
);
},
{
closed = 1;
nodes = (
(390,132,qs),
(326,65,o),
(222,65,qs),
(119,65,l),
(116,240,o),
(116,321,qs),
(116,340,o),
(116,398,o),
(117,436,qs),
(117,551,l),
(224,551,ls),
(455,551,o),
(455,303,qs),
(455,200,o)
);
}
);
userData = {
assembly = "PUSHW[ ]	/* 1 value pushed */
34
MDAP[1]	/* MoveDirectAbsPt */
PUSHW[ ]	/* 1 value pushed */
20
MDAP[1]	/* MoveDirectAbsPt */
NPUSHW[ ]	/* 5 values pushed */
58 20 74 20 2
DELTAP2[ ]	/* DeltaExceptionP2 */
NPUSHW[ ]	/* 21 values pushed */
105 20 121 20 137 20 153 20 169 20 185 20 201 20 217 20 233 20 249 20 10
DELTAP1[ ]	/* DeltaExceptionP1 */
NPUSHW[ ]	/* 7 values pushed */
9 20 25 20 41 20 3
DELTAP2[ ]	/* DeltaExceptionP2 */
PUSHW[ ]	/* 1 value pushed */
0
MDRP[11100]	/* MoveDirectRelPt */
PUSHW[ ]	/* 1 value pushed */
34
SRP0[ ]	/* SetRefPoint0 */
PUSHW[ ]	/* 1 value pushed */
9
MDRP[10000]	/* MoveDirectRelPt */
PUSHW[ ]	/* 1 value pushed */
9
MDAP[1]	/* MoveDirectAbsPt */
PUSHW[ ]	/* 1 value pushed */
7
MDRP[10000]	/* MoveDirectRelPt */
PUSHW[ ]	/* 1 value pushed */
7
MDAP[1]	/* MoveDirectAbsPt */
PUSHW[ ]	/* 1 value pushed */
9
SRP0[ ]	/* SetRefPoint0 */
PUSHW[ ]	/* 1 value pushed */
12
MDRP[10000]	/* MoveDirectRelPt */
PUSHW[ ]	/* 1 value pushed */
12
MDAP[1]	/* MoveDirectAbsPt */
PUSHW[ ]	/* 1 value pushed */
20
SRP0[ ]	/* SetRefPoint0 */
PUSHW[ ]	/* 1 value pushed */
18
MDRP[10000]	/* MoveDirectRelPt */
PUSHW[ ]	/* 1 value pushed */
18
MDAP[1]	/* MoveDirectAbsPt */
PUSHW[ ]	/* 1 value pushed */
9
SRP0[ ]	/* SetRefPoint0 */
PUSHW[ ]	/* 1 value pushed */
29
MDRP[11100]	/* MoveDirectRelPt */
PUSHW[ ]	/* 1 value pushed */
23
MDRP[10000]	/* MoveDirectRelPt */
PUSHW[ ]	/* 1 value pushed */
23
MDAP[1]	/* MoveDirectAbsPt */
PUSHW[ ]	/* 1 value pushed */
29
SRP0[ ]	/* SetRefPoint0 */
PUSHW[ ]	/* 1 value pushed */
27
MDRP[10000]	/* MoveDirectRelPt */
PUSHW[ ]	/* 1 value pushed */
27
MDAP[1]	/* MoveDirectAbsPt */
PUSHW[ ]	/* 1 value pushed */
0
SRP0[ ]	/* SetRefPoint0 */
PUSHW[ ]	/* 1 value pushed */
35
MDRP[11100]	/* MoveDirectRelPt */
SVTCA[0]	/* SetFreedomAndProjectionVectorToAxis */
PUSHW[ ]	/* 1 value pushed */
0
RCVT[ ]	/* ReadCVT */
IF[ ]	/* If */
PUSHW[ ]	/* 1 value pushed */
4
MDAP[1]	/* MoveDirectAbsPt */
ELSE[ ]	/* Else */
PUSHW[ ]	/* 2 values pushed */
4 1
MIAP[0]	/* MoveIndirectAbsPt */
EIF[ ]	/* EndIf */
PUSHW[ ]	/* 3 values pushed */
16 22 3
CALL[ ]	/* CallFunction */
PUSHW[ ]	/* 1 value pushed */
4
SRP0[ ]	/* SetRefPoint0 */
PUSHW[ ]	/* 1 value pushed */
29
MDRP[11100]	/* MoveDirectRelPt */
IUP[0]	/* InterpolateUntPts */
IUP[1]	/* InterpolateUntPts */";
};
width = 564;
}
);
note = D;
unicode = 68;
},
{
glyphname = E;
layers = (
{
layerId = m01;
shapes = (
{
closed = 1;
nodes = (
(485,103,q),
(436,103,l),
(433,81,o),
(427,72,qs),
(418,60,o),
(364,60,qs),
(153,60,l),
(152,187,o),
(153,298,q),
(356,301,o),
(403,286,q),
(403,372,l),
(370,358,o),
(153,358,q),
(151,468,o),
(153,561,q),
(338,561,ls),
(398,561,o),
(402,554,q),
(408,548,o),
(408,545,q),
(408,545,o),
(410,529,q),
(460,529,l),
(455,590,o),
(460,625,q),
(396,622,o),
(293,619,o),
(253,620,qs),
(144,622,o),
(77,626,q),
(87,593,o),
(87,324,qs),
(87,27,o),
(77,-6,q),
(147,-4,o),
(248,-1,o),
(279,0,qs),
(319,1,o),
(421,-2,o),
(485,-5,q),
(480,29,o)
);
}
);
userData = {
assembly = "PUSHW[ ]	/* 3 values pushed */
32 8 3
CALL[ ]	/* CallFunction */
NPUSHW[ ]	/* 21 values pushed */
102 32 118 32 134 32 150 32 166 32 182 32 198 32 214 32 230 32 246 32 10
DELTAP1[ ]	/* DeltaExceptionP1 */
NPUSHW[ ]	/* 7 values pushed */
6 32 22 32 38 32 3
DELTAP2[ ]	/* DeltaExceptionP2 */
NPUSHW[ ]	/* 5 values pushed */
53 32 69 32 2
DELTAP2[ ]	/* DeltaExceptionP2 */
PUSHW[ ]	/* 1 value pushed */
32
SRP0[ ]	/* SetRefPoint0 */
PUSHW[ ]	/* 1 value pushed */
25
MDRP[10000]	/* MoveDirectRelPt */
PUSHW[ ]	/* 1 value pushed */
32
SRP0[ ]	/* SetRefPoint0 */
PUSHW[ ]	/* 1 value pushed */
27
MDRP[10000]	/* MoveDirectRelPt */
PUSHW[ ]	/* 1 value pushed */
32
SRP0[ ]	/* SetRefPoint0 */
PUSHW[ ]	/* 1 value pushed */
34
MDRP[10000]	/* MoveDirectRelPt */
SVTCA[0]	/* SetFreedomAndProjectionVectorToAxis */
PUSHW[ ]	/* 1 value pushed */
0
RCVT[ ]	/* ReadCVT */
IF[ ]	/* If */
PUSHW[ ]	/* 1 value pushed */
10
MDAP[1]	/* MoveDirectAbsPt */
ELSE[ ]	/* Else */
PUSHW[ ]	/* 2 values pushed */
10 7
MIAP[0]	/* MoveIndirectAbsPt */
EIF[ ]	/* EndIf */
PUSHW[ ]	/* 1 value pushed */
0
RCVT[ ]	/* ReadCVT */
IF[ ]	/* If */
PUSHW[ ]	/* 1 value pushed */
12
MDAP[1]	/* MoveDirectAbsPt */
ELSE[ ]	/* Else */
PUSHW[ ]	/* 2 values pushed */
12 7
MIAP[0]	/* MoveIndirectAbsPt */
EIF[ ]	/* EndIf */
PUSHW[ ]	/* 1 value pushed */
0
RCVT[ ]	/* ReadCVT */
IF[ ]	/* If */
PUSHW[ ]	/* 1 value pushed */
15
MDAP[1]	/* MoveDirectAbsPt */
ELSE[ ]	/* Else */
PUSHW[ ]	/* 2 values pushed */
15 7
MIAP[0]	/* MoveIndirectAbsPt */
EIF[ ]	/* EndIf */
PUSHW[ ]	/* 1 value pushed */
0
RCVT[ ]	/* ReadCVT */
IF[ ]	/* If */
PUSHW[ ]	/* 1 value pushed */
0
MDAP[1]	/* MoveDirectAbsPt */
ELSE[ ]	/* Else */
PUSHW[ ]	/* 2 values pushed */
0 1
MIAP[0]	/* MoveIndirectAbsPt */
EIF[ ]	/* EndIf */
PUSHW[ ]	/* 1 value pushed */
0
RCVT[ ]	/* ReadCVT */
IF[ ]	/* If */
PUSHW[ ]	/* 1 value pushed */
3
MDAP[1]	/* MoveDirectAbsPt */
ELSE[ ]	/* Else */
PUSHW[ ]	/* 2 values pushed */
3 1
MIAP[0]	/* MoveIndirectAbsPt */
EIF[ ]	/* EndIf */
PUSHW[ ]	/* 1 value pushed */
0
RCVT[ ]	/* ReadCVT */
IF[ ]	/* If */
PUSHW[ ]	/* 1 value pushed */
6
MDAP[1]	/* MoveDirectAbsPt */
ELSE[ ]	/* Else */
PUSHW[ ]	/* 2 values pushed */
6 1
MIAP[0]	/* MoveIndirectAbsPt */
EIF[ ]	/* EndIf */
PUSHW[ ]	/* 3 values pushed */
27 32 3
CALL[ ]	/* CallFunction */
PUSHW[ ]	/* 1 value pushed */
12
SRP0[ ]	/* SetRefPoint0 */
PUSHW[ ]	/* 1 value pushed */
24
MDRP[11100]	/* MoveDirectRelPt */
PUSHW[ ]	/* 1 value pushed */
25
MDRP[10000]	/* MoveDirectRelPt */
PUSHW[ ]	/* 3 values pushed */
29 6 10
SRP1[ ]	/* SetRefPoint1 */
SRP2[ ]	/* SetRefPoint2 */
IP[ ]	/* InterpolatePts */
PUSHW[ ]	/* 3 values pushed */
30 6 10
SRP1[ ]	/* SetRefPoint1 */
SRP2[ ]	/* SetRefPoint2 */
IP[ ]	/* InterpolatePts */
PUSHW[ ]	/* 1 value pushed */
6
SRP0[ ]	/* SetRefPoint0 */
PUSHW[ ]	/* 1 value pushed */
34
MDRP[11100]	/* MoveDirectRelPt */
PUSHW[ ]	/* 1 value pushed */
35
MDRP[10000]	/* MoveDirectRelPt */
IUP[0]	/* InterpolateUntPts */
IUP[1]	/* InterpolateUntPts */";
};
width = 525;
}
);
note = E;
unicode = 69;
},
{
glyphname = F;
layers = (
{
layerId = m01;
shapes = (
{
closed = 1;
nodes = (
(408,627,o),
(305,625,o),
(253,626,qs),
(228,626,o),
(165,629,qs),
(109,632,o),
(77,632,q),
(85,602,o),
(87,544,qs),
(87,324,l),
(87,329,o),
(88,263,o),
(89,191,qs),
(90,151,o),
(89,84,o),
(87,58,qs),
(84,23,o),
(78,0,q),
(165,0,l),
(158,25,o),
(152,93,o),
(151,138,qs),
(150,183,o),
(150,263,o),
(150,298,q),
(188,300,o),
(283,300,o),
(340,297,qs),
(363,295,o),
(394,291,o),
(403,289,q),
(403,372,l),
(384,363,o),
(347,360,qs),
(329,359,o),
(232,358,o),
(153,358,q),
(153,567,l),
(364,567,ls),
(391,567,o),
(398,563,qs),
(410,557,o),
(410,535,q),
(460,535,l),
(460,631,l)
);
}
);
userData = {
assembly = "PUSHW[ ]	/* 3 values pushed */
22 28 3
CALL[ ]	/* CallFunction */
NPUSHW[ ]	/* 21 values pushed */
102 22 118 22 134 22 150 22 166 22 182 22 198 22 214 22 230 22 246 22 10
DELTAP1[ ]	/* DeltaExceptionP1 */
NPUSHW[ ]	/* 7 values pushed */
6 22 22 22 38 22 3
DELTAP2[ ]	/* DeltaExceptionP2 */
NPUSHW[ ]	/* 5 values pushed */
53 22 69 22 2
DELTAP2[ ]	/* DeltaExceptionP2 */
PUSHW[ ]	/* 1 value pushed */
22
SRP0[ ]	/* SetRefPoint0 */
PUSHW[ ]	/* 1 value pushed */
6
MDRP[10000]	/* MoveDirectRelPt */
PUSHW[ ]	/* 1 value pushed */
6
MDAP[1]	/* MoveDirectAbsPt */
PUSHW[ ]	/* 1 value pushed */
22
SRP0[ ]	/* SetRefPoint0 */
PUSHW[ ]	/* 1 value pushed */
19
MDRP[10000]	/* MoveDirectRelPt */
PUSHW[ ]	/* 1 value pushed */
19
MDAP[1]	/* MoveDirectAbsPt */
PUSHW[ ]	/* 1 value pushed */
28
SRP0[ ]	/* SetRefPoint0 */
PUSHW[ ]	/* 1 value pushed */
31
MDRP[10000]	/* MoveDirectRelPt */
PUSHW[ ]	/* 1 value pushed */
31
MDAP[1]	/* MoveDirectAbsPt */
PUSHW[ ]	/* 1 value pushed */
28
SRP0[ ]	/* SetRefPoint0 */
PUSHW[ ]	/* 1 value pushed */
34
MDRP[10000]	/* MoveDirectRelPt */
SVTCA[0]	/* SetFreedomAndProjectionVectorToAxis */
PUSHW[ ]	/* 1 value pushed */
0
RCVT[ ]	/* ReadCVT */
IF[ ]	/* If */
PUSHW[ ]	/* 1 value pushed */
37
MDAP[1]	/* MoveDirectAbsPt */
ELSE[ ]	/* Else */
PUSHW[ ]	/* 2 values pushed */
37 7
MIAP[0]	/* MoveIndirectAbsPt */
EIF[ ]	/* EndIf */
PUSHW[ ]	/* 1 value pushed */
0
RCVT[ ]	/* ReadCVT */
IF[ ]	/* If */
PUSHW[ ]	/* 1 value pushed */
39
MDAP[1]	/* MoveDirectAbsPt */
ELSE[ ]	/* Else */
PUSHW[ ]	/* 2 values pushed */
39 7
MIAP[0]	/* MoveIndirectAbsPt */
EIF[ ]	/* EndIf */
PUSHW[ ]	/* 1 value pushed */
0
RCVT[ ]	/* ReadCVT */
IF[ ]	/* If */
PUSHW[ ]	/* 1 value pushed */
41
MDAP[1]	/* MoveDirectAbsPt */
ELSE[ ]	/* Else */
PUSHW[ ]	/* 2 values pushed */
41 7
MIAP[0]	/* MoveIndirectAbsPt */
EIF[ ]	/* EndIf */
PUSHW[ ]	/* 1 value pushed */
0
RCVT[ ]	/* ReadCVT */
IF[ ]	/* If */
PUSHW[ ]	/* 1 value pushed */
44
MDAP[1]	/* MoveDirectAbsPt */
ELSE[ ]	/* Else */
PUSHW[ ]	/* 2 values pushed */
44 7
MIAP[0]	/* MoveIndirectAbsPt */
EIF[ ]	/* EndIf */
PUSHW[ ]	/* 1 value pushed */
0
RCVT[ ]	/* ReadCVT */
IF[ ]	/* If */
PUSHW[ ]	/* 1 value pushed */
25
MDAP[1]	/* MoveDirectAbsPt */
ELSE[ ]	/* Else */
PUSHW[ ]	/* 2 values pushed */
25 1
MIAP[0]	/* MoveIndirectAbsPt */
EIF[ ]	/* EndIf */
PUSHW[ ]	/* 3 values pushed */
7 16 3
CALL[ ]	/* CallFunction */
PUSHW[ ]	/* 1 value pushed */
44
SRP0[ ]	/* SetRefPoint0 */
PUSHW[ ]	/* 1 value pushed */
5
MDRP[11100]	/* MoveDirectRelPt */
PUSHW[ ]	/* 1 value pushed */
6
MDRP[10000]	/* MoveDirectRelPt */
PUSHW[ ]	/* 1 value pushed */
7
SRP0[ ]	/* SetRefPoint0 */
PUSHW[ ]	/* 1 value pushed */
10
MDRP[10000]	/* MoveDirectRelPt */
PUSHW[ ]	/* 1 value pushed */
10
MDAP[1]	/* MoveDirectAbsPt */
PUSHW[ ]	/* 3 values pushed */
12 25 37
SRP1[ ]	/* SetRefPoint1 */
SRP2[ ]	/* SetRefPoint2 */
IP[ ]	/* InterpolatePts */
PUSHW[ ]	/* 1 value pushed */
16
SRP0[ ]	/* SetRefPoint0 */
PUSHW[ ]	/* 1 value pushed */
19
MDRP[10000]	/* MoveDirectRelPt */
PUSHW[ ]	/* 1 value pushed */
19
MDAP[1]	/* MoveDirectAbsPt */
IUP[0]	/* InterpolateUntPts */
IUP[1]	/* InterpolateUntPts */";
};
width = 470;
}
);
note = F;
unicode = 70;
},
{
glyphname = G;
layers = (
{
layerId = m01;
shapes = (
{
closed = 1;
nodes = (
(492,152,q),
(493,89,o),
(493,157,o),
(493,288,q),
(453,287,o),
(360,288,o),
(305,289,q),
(309,254,o),
(305,196,q),
(354,196,l),
(356,220,o),
(372,224,q),
(379,227,o),
(412,227,qs),
(427,227,l),
(428,106,ls),
(429,69,o),
(397,57,qs),
(376,49,o),
(334,49,qs),
(238,49,o),
(173,129,qs),
(114,205,o),
(114,304,qs),
(114,411,o),
(169,490,qs),
(230,577,o),
(334,577,qs),
(374,577,o),
(394,568,qs),
(421,554,o),
(428,519,q),
(475,519,l),
(468,568,o),
(466,613,q),
(460,611,o),
(445,616,qs),
(422,624,o),
(413,625,q),
(372,634,o),
(328,634,qs),
(195,634,o),
(117,535,qs),
(44,444,o),
(44,308,qs),
(44,179,o),
(118,88,qs),
(196,-9,o),
(324,-9,qs),
(375,-9,o),
(407,0,qs),
(467,18,o),
(501,16,q),
(494,71,o)
);
}
);
userData = {
assembly = "PUSHW[ ]	/* 1 value pushed */
54
MDAP[1]	/* MoveDirectAbsPt */
PUSHW[ ]	/* 1 value pushed */
38
MDAP[1]	/* MoveDirectAbsPt */
PUSHW[ ]	/* 1 value pushed */
54
SRP0[ ]	/* SetRefPoint0 */
PUSHW[ ]	/* 1 value pushed */
8
MDRP[10000]	/* MoveDirectRelPt */
PUSHW[ ]	/* 1 value pushed */
8
MDAP[1]	/* MoveDirectAbsPt */
PUSHW[ ]	/* 1 value pushed */
29
MDRP[11100]	/* MoveDirectRelPt */
NPUSHW[ ]	/* 21 values pushed */
102 29 118 29 134 29 150 29 166 29 182 29 198 29 214 29 230 29 246 29 10
DELTAP1[ ]	/* DeltaExceptionP1 */
NPUSHW[ ]	/* 7 values pushed */
6 29 22 29 38 29 3
DELTAP2[ ]	/* DeltaExceptionP2 */
NPUSHW[ ]	/* 5 values pushed */
53 29 69 29 2
DELTAP2[ ]	/* DeltaExceptionP2 */
PUSHW[ ]	/* 1 value pushed */
6
MDRP[10000]	/* MoveDirectRelPt */
PUSHW[ ]	/* 1 value pushed */
6
MDAP[1]	/* MoveDirectAbsPt */
PUSHW[ ]	/* 1 value pushed */
29
SRP0[ ]	/* SetRefPoint0 */
PUSHW[ ]	/* 1 value pushed */
10
MDRP[10000]	/* MoveDirectRelPt */
PUSHW[ ]	/* 1 value pushed */
10
MDAP[1]	/* MoveDirectAbsPt */
PUSHW[ ]	/* 1 value pushed */
38
SRP0[ ]	/* SetRefPoint0 */
PUSHW[ ]	/* 1 value pushed */
49
MDRP[11100]	/* MoveDirectRelPt */
PUSHW[ ]	/* 3 values pushed */
18 38 49
SRP1[ ]	/* SetRefPoint1 */
SRP2[ ]	/* SetRefPoint2 */
IP[ ]	/* InterpolatePts */
PUSHW[ ]	/* 1 value pushed */
38
SRP0[ ]	/* SetRefPoint0 */
PUSHW[ ]	/* 1 value pushed */
21
MDRP[10000]	/* MoveDirectRelPt */
PUSHW[ ]	/* 1 value pushed */
21
MDAP[1]	/* MoveDirectAbsPt */
PUSHW[ ]	/* 1 value pushed */
49
SRP0[ ]	/* SetRefPoint0 */
PUSHW[ ]	/* 1 value pushed */
52
MDRP[10000]	/* MoveDirectRelPt */
PUSHW[ ]	/* 1 value pushed */
52
MDAP[1]	/* MoveDirectAbsPt */
PUSHW[ ]	/* 1 value pushed */
49
SRP0[ ]	/* SetRefPoint0 */
PUSHW[ ]	/* 1 value pushed */
55
MDRP[11100]	/* MoveDirectRelPt */
SVTCA[0]	/* SetFreedomAndProjectionVectorToAxis */
PUSHW[ ]	/* 1 value pushed */
0
RCVT[ ]	/* ReadCVT */
IF[ ]	/* If */
PUSHW[ ]	/* 1 value pushed */
12
MDAP[1]	/* MoveDirectAbsPt */
ELSE[ ]	/* Else */
PUSHW[ ]	/* 2 values pushed */
12 7
MIAP[0]	/* MoveIndirectAbsPt */
EIF[ ]	/* EndIf */
PUSHW[ ]	/* 1 value pushed */
0
RCVT[ ]	/* ReadCVT */
IF[ ]	/* If */
PUSHW[ ]	/* 1 value pushed */
4
MDAP[1]	/* MoveDirectAbsPt */
ELSE[ ]	/* Else */
PUSHW[ ]	/* 2 values pushed */
4 1
MIAP[0]	/* MoveIndirectAbsPt */
EIF[ ]	/* EndIf */
PUSHW[ ]	/* 1 value pushed */
12
SRP0[ ]	/* SetRefPoint0 */
PUSHW[ ]	/* 1 value pushed */
25
MDRP[11100]	/* MoveDirectRelPt */
NPUSHW[ ]	/* 5 values pushed */
57 25 73 25 2
DELTAP2[ ]	/* DeltaExceptionP2 */
NPUSHW[ ]	/* 21 values pushed */
104 25 120 25 136 25 152 25 168 25 184 25 200 25 216 25 232 25 248 25 10
DELTAP1[ ]	/* DeltaExceptionP1 */
NPUSHW[ ]	/* 7 values pushed */
8 25 24 25 40 25 3
DELTAP2[ ]	/* DeltaExceptionP2 */
PUSHW[ ]	/* 3 values pushed */
18 12 25
SRP1[ ]	/* SetRefPoint1 */
SRP2[ ]	/* SetRefPoint2 */
IP[ ]	/* InterpolatePts */
PUSHW[ ]	/* 1 value pushed */
4
SRP0[ ]	/* SetRefPoint0 */
PUSHW[ ]	/* 1 value pushed */
33
MDRP[11100]	/* MoveDirectRelPt */
NPUSHW[ ]	/* 3 values pushed */
167 33 1
DELTAP1[ ]	/* DeltaExceptionP1 */
NPUSHW[ ]	/* 5 values pushed */
183 33 199 33 2
DELTAP1[ ]	/* DeltaExceptionP1 */
NPUSHW[ ]	/* 9 values pushed */
103 33 119 33 135 33 151 33 4
DELTAP1[ ]	/* DeltaExceptionP1 */
NPUSHW[ ]	/* 7 values pushed */
215 33 231 33 247 33 3
DELTAP1[ ]	/* DeltaExceptionP1 */
NPUSHW[ ]	/* 7 values pushed */
7 33 23 33 39 33 3
DELTAP2[ ]	/* DeltaExceptionP2 */
NPUSHW[ ]	/* 5 values pushed */
54 33 70 33 2
DELTAP2[ ]	/* DeltaExceptionP2 */
PUSHW[ ]	/* 3 values pushed */
52 4 12
SRP1[ ]	/* SetRefPoint1 */
SRP2[ ]	/* SetRefPoint2 */
IP[ ]	/* InterpolatePts */
IUP[0]	/* InterpolateUntPts */
IUP[1]	/* InterpolateUntPts */";
};
width = 527;
}
);
note = G;
unicode = 71;
},
{
glyphname = H;
layers = (
{
layerId = m01;
shapes = (
{
closed = 1;
nodes = (
(568,310,qs),
(568,494,ls),
(569,539,o),
(574,602,o),
(579,621,q),
(493,621,l),
(500,597,o),
(505,462,o),
(504,350,q),
(151,350,l),
(146,559,o),
(163,621,q),
(74,621,l),
(79,602,o),
(84,562,o),
(85,539,qs),
(86,516,o),
(86,312,o),
(86,128,qs),
(85,38,o),
(74,0,q),
(163,0,l),
(152,44,o),
(152,285,q),
(504,285,l),
(505,167,o),
(500,25,o),
(493,0,q),
(580,0,l),
(568,46,o)
);
}
);
userData = {
assembly = "PUSHW[ ]	/* 1 value pushed */
30
MDAP[1]	/* MoveDirectAbsPt */
PUSHW[ ]	/* 1 value pushed */
4
MDAP[1]	/* MoveDirectAbsPt */
PUSHW[ ]	/* 1 value pushed */
30
SRP0[ ]	/* SetRefPoint0 */
PUSHW[ ]	/* 1 value pushed */
10
MDRP[10000]	/* MoveDirectRelPt */
PUSHW[ ]	/* 1 value pushed */
10
MDAP[1]	/* MoveDirectAbsPt */
PUSHW[ ]	/* 1 value pushed */
13
MDRP[10000]	/* MoveDirectRelPt */
PUSHW[ ]	/* 1 value pushed */
13
MDAP[1]	/* MoveDirectAbsPt */
PUSHW[ ]	/* 1 value pushed */
4
SRP0[ ]	/* SetRefPoint0 */
PUSHW[ ]	/* 1 value pushed */
28
MDRP[11100]	/* MoveDirectRelPt */
PUSHW[ ]	/* 3 values pushed */
1 13 28
SRP1[ ]	/* SetRefPoint1 */
SRP2[ ]	/* SetRefPoint2 */
IP[ ]	/* InterpolatePts */
PUSHW[ ]	/* 1 value pushed */
10
SRP0[ ]	/* SetRefPoint0 */
PUSHW[ ]	/* 1 value pushed */
5
MDRP[11100]	/* MoveDirectRelPt */
PUSHW[ ]	/* 3 values pushed */
17 13 28
SRP1[ ]	/* SetRefPoint1 */
SRP2[ ]	/* SetRefPoint2 */
IP[ ]	/* InterpolatePts */
PUSHW[ ]	/* 1 value pushed */
19
MDRP[10000]	/* MoveDirectRelPt */
PUSHW[ ]	/* 1 value pushed */
19
MDAP[1]	/* MoveDirectAbsPt */
PUSHW[ ]	/* 1 value pushed */
4
SRP0[ ]	/* SetRefPoint0 */
PUSHW[ ]	/* 1 value pushed */
20
MDRP[10000]	/* MoveDirectRelPt */
PUSHW[ ]	/* 3 values pushed */
23 13 28
SRP1[ ]	/* SetRefPoint1 */
SRP2[ ]	/* SetRefPoint2 */
IP[ ]	/* InterpolatePts */
PUSHW[ ]	/* 1 value pushed */
28
SRP0[ ]	/* SetRefPoint0 */
PUSHW[ ]	/* 1 value pushed */
31
MDRP[11100]	/* MoveDirectRelPt */
SVTCA[0]	/* SetFreedomAndProjectionVectorToAxis */
PUSHW[ ]	/* 1 value pushed */
16
MDAP[1]	/* MoveDirectAbsPt */
PUSHW[ ]	/* 1 value pushed */
23
MDAP[1]	/* MoveDirectAbsPt */
PUSHW[ ]	/* 1 value pushed */
0
RCVT[ ]	/* ReadCVT */
IF[ ]	/* If */
PUSHW[ ]	/* 1 value pushed */
0
MDAP[1]	/* MoveDirectAbsPt */
ELSE[ ]	/* Else */
PUSHW[ ]	/* 2 values pushed */
0 1
MIAP[0]	/* MoveIndirectAbsPt */
EIF[ ]	/* EndIf */
PUSHW[ ]	/* 1 value pushed */
0
RCVT[ ]	/* ReadCVT */
IF[ ]	/* If */
PUSHW[ ]	/* 1 value pushed */
7
MDAP[1]	/* MoveDirectAbsPt */
ELSE[ ]	/* Else */
PUSHW[ ]	/* 2 values pushed */
7 1
MIAP[0]	/* MoveIndirectAbsPt */
EIF[ ]	/* EndIf */
PUSHW[ ]	/* 3 values pushed */
20 4 3
CALL[ ]	/* CallFunction */
IUP[0]	/* InterpolateUntPts */
IUP[1]	/* InterpolateUntPts */";
};
width = 635;
}
);
note = H;
unicode = 72;
},
{
glyphname = I;
layers = (
{
layerId = m01;
shapes = (
{
closed = 1;
nodes = (
(82,602,o),
(87,562,o),
(88,539,qs),
(89,516,o),
(89,312,o),
(89,128,qs),
(88,38,o),
(77,0,q),
(164,0,l),
(156,35,o),
(154,129,qs),
(154,310,l),
(154,494,ls),
(155,539,o),
(160,602,o),
(165,621,q),
(77,621,l)
);
}
);
userData = {
assembly = "PUSHW[ ]	/* 3 values pushed */
5 10 3
CALL[ ]	/* CallFunction */
PUSHW[ ]	/* 1 value pushed */
5
SRP0[ ]	/* SetRefPoint0 */
PUSHW[ ]	/* 1 value pushed */
3
MDRP[10000]	/* MoveDirectRelPt */
PUSHW[ ]	/* 1 value pushed */
10
SRP0[ ]	/* SetRefPoint0 */
PUSHW[ ]	/* 1 value pushed */
13
MDRP[10000]	/* MoveDirectRelPt */
PUSHW[ ]	/* 1 value pushed */
13
MDAP[1]	/* MoveDirectAbsPt */
SVTCA[0]	/* SetFreedomAndProjectionVectorToAxis */
PUSHW[ ]	/* 1 value pushed */
0
MDAP[1]	/* MoveDirectAbsPt */
PUSHW[ ]	/* 1 value pushed */
0
RCVT[ ]	/* ReadCVT */
IF[ ]	/* If */
PUSHW[ ]	/* 1 value pushed */
7
MDAP[1]	/* MoveDirectAbsPt */
ELSE[ ]	/* Else */
PUSHW[ ]	/* 2 values pushed */
7 1
MIAP[0]	/* MoveIndirectAbsPt */
EIF[ ]	/* EndIf */
IUP[0]	/* InterpolateUntPts */
IUP[1]	/* InterpolateUntPts */";
};
width = 230;
}
);
note = I;
unicode = 73;
},
{
glyphname = J;
layers = (
{
layerId = m01;
shapes = (
{
closed = 1;
nodes = (
(131,597,o),
(131,429,qs),
(131,271,o),
(129,92,o),
(127,68,qs),
(125,42,o),
(96,42,qs),
(81,42,o),
(68,49,qs),
(51,58,o),
(50,71,q),
(14,72,l),
(12,73,o),
(14,0,q),
(23,2,o),
(41,-1,o),
(60,-7,o),
(83,-12,o),
(98,-12,qs),
(169,-12,o),
(186,33,qs),
(196,60,o),
(196,428,qs),
(196,597,o),
(203,622,q),
(124,622,l)
);
}
);
userData = {
assembly = "PUSHW[ ]	/* 3 values pushed */
2 23 3
CALL[ ]	/* CallFunction */
NPUSHW[ ]	/* 5 values pushed */
58 23 74 23 2
DELTAP2[ ]	/* DeltaExceptionP2 */
NPUSHW[ ]	/* 21 values pushed */
105 23 121 23 137 23 153 23 169 23 185 23 201 23 217 23 233 23 249 23 10
DELTAP1[ ]	/* DeltaExceptionP1 */
NPUSHW[ ]	/* 7 values pushed */
9 23 25 23 41 23 3
DELTAP2[ ]	/* DeltaExceptionP2 */
PUSHW[ ]	/* 1 value pushed */
23
SRP0[ ]	/* SetRefPoint0 */
PUSHW[ ]	/* 1 value pushed */
20
MDRP[10000]	/* MoveDirectRelPt */
PUSHW[ ]	/* 1 value pushed */
20
MDAP[1]	/* MoveDirectAbsPt */
PUSHW[ ]	/* 1 value pushed */
2
SRP0[ ]	/* SetRefPoint0 */
PUSHW[ ]	/* 1 value pushed */
27
MDRP[11100]	/* MoveDirectRelPt */
SVTCA[0]	/* SetFreedomAndProjectionVectorToAxis */
PUSHW[ ]	/* 1 value pushed */
0
MDAP[1]	/* MoveDirectAbsPt */
PUSHW[ ]	/* 1 value pushed */
0
RCVT[ ]	/* ReadCVT */
IF[ ]	/* If */
PUSHW[ ]	/* 1 value pushed */
6
MDAP[1]	/* MoveDirectAbsPt */
ELSE[ ]	/* Else */
PUSHW[ ]	/* 2 values pushed */
6 1
MIAP[0]	/* MoveIndirectAbsPt */
EIF[ ]	/* EndIf */
PUSHW[ ]	/* 1 value pushed */
18
MDRP[11100]	/* MoveDirectRelPt */
NPUSHW[ ]	/* 21 values pushed */
103 18 119 18 135 18 151 18 167 18 183 18 199 18 215 18 231 18 247 18 10
DELTAP1[ ]	/* DeltaExceptionP1 */
NPUSHW[ ]	/* 7 values pushed */
7 18 23 18 39 18 3
DELTAP2[ ]	/* DeltaExceptionP2 */
NPUSHW[ ]	/* 5 values pushed */
54 18 70 18 2
DELTAP2[ ]	/* DeltaExceptionP2 */
IUP[0]	/* InterpolateUntPts */
IUP[1]	/* InterpolateUntPts */";
};
width = 235;
}
);
note = J;
unicode = 74;
},
{
glyphname = K;
layers = (
{
layerId = m01;
shapes = (
{
closed = 1;
nodes = (
(342,238,qs),
(301,275,o),
(237,328,q),
(260,351,o),
(297,387,o),
(310,400,qs),
(342,433,o),
(408,499,o),
(440,533,qs),
(503,599,o),
(535,623,q),
(410,623,l),
(408,591,o),
(373,550,qs),
(365,542,o),
(313,488,o),
(267,442,qs),
(144,318,l),
(202,278,o),
(293,190,qs),
(331,153,o),
(383,99,o),
(397,82,qs),
(429,43,o),
(443,0,q),
(552,0,l),
(488,101,o)
);
},
{
closed = 1;
nodes = (
(70,604,o),
(75,563,o),
(76,540,qs),
(77,517,o),
(77,313,o),
(77,128,qs),
(76,38,o),
(65,0,q),
(153,0,l),
(148,19,o),
(143,83,o),
(142,131,qs),
(142,314,ls),
(142,576,o),
(154,623,q),
(65,623,l)
);
}
);
userData = {
assembly = "PUSHW[ ]	/* 3 values pushed */
30 36 3
CALL[ ]	/* CallFunction */
PUSHW[ ]	/* 1 value pushed */
36
SRP0[ ]	/* SetRefPoint0 */
PUSHW[ ]	/* 1 value pushed */
39
MDRP[10000]	/* MoveDirectRelPt */
PUSHW[ ]	/* 1 value pushed */
39
MDAP[1]	/* MoveDirectAbsPt */
SVTCA[0]	/* SetFreedomAndProjectionVectorToAxis */
PUSHW[ ]	/* 1 value pushed */
14
MDAP[1]	/* MoveDirectAbsPt */
PUSHW[ ]	/* 1 value pushed */
27
MDAP[1]	/* MoveDirectAbsPt */
PUSHW[ ]	/* 1 value pushed */
0
RCVT[ ]	/* ReadCVT */
IF[ ]	/* If */
PUSHW[ ]	/* 1 value pushed */
0
MDAP[1]	/* MoveDirectAbsPt */
ELSE[ ]	/* Else */
PUSHW[ ]	/* 2 values pushed */
0 1
MIAP[0]	/* MoveIndirectAbsPt */
EIF[ ]	/* EndIf */
PUSHW[ ]	/* 1 value pushed */
0
RCVT[ ]	/* ReadCVT */
IF[ ]	/* If */
PUSHW[ ]	/* 1 value pushed */
33
MDAP[1]	/* MoveDirectAbsPt */
ELSE[ ]	/* Else */
PUSHW[ ]	/* 2 values pushed */
33 1
MIAP[0]	/* MoveIndirectAbsPt */
EIF[ ]	/* EndIf */
IUP[0]	/* InterpolateUntPts */
IUP[1]	/* InterpolateUntPts */";
};
width = 590;
}
);
note = K;
unicode = 75;
},
{
glyphname = L;
layers = (
{
layerId = m01;
shapes = (
{
closed = 1;
nodes = (
(485,100,q),
(436,100,l),
(433,78,o),
(427,69,qs),
(418,57,o),
(364,57,qs),
(153,57,l),
(154,311,l),
(154,490,ls),
(155,538,o),
(160,603,o),
(165,622,q),
(77,622,l),
(82,603,o),
(87,543,o),
(88,501,q),
(87,552,o),
(87,465,o),
(87,325,qs),
(87,27,o),
(77,-6,q),
(147,-4,o),
(248,-1,o),
(279,0,qs),
(319,1,o),
(421,-2,o),
(485,-5,q),
(482,28,o)
);
}
);
userData = {
assembly = "PUSHW[ ]	/* 3 values pushed */
20 8 3
CALL[ ]	/* CallFunction */
PUSHW[ ]	/* 1 value pushed */
8
SRP0[ ]	/* SetRefPoint0 */
PUSHW[ ]	/* 1 value pushed */
11
MDRP[10000]	/* MoveDirectRelPt */
PUSHW[ ]	/* 1 value pushed */
11
MDAP[1]	/* MoveDirectAbsPt */
PUSHW[ ]	/* 1 value pushed */
20
SRP0[ ]	/* SetRefPoint0 */
PUSHW[ ]	/* 1 value pushed */
18
MDRP[10000]	/* MoveDirectRelPt */
PUSHW[ ]	/* 1 value pushed */
18
MDAP[1]	/* MoveDirectAbsPt */
SVTCA[0]	/* SetFreedomAndProjectionVectorToAxis */
PUSHW[ ]	/* 1 value pushed */
14
MDAP[1]	/* MoveDirectAbsPt */
PUSHW[ ]	/* 1 value pushed */
0
RCVT[ ]	/* ReadCVT */
IF[ ]	/* If */
PUSHW[ ]	/* 1 value pushed */
0
MDAP[1]	/* MoveDirectAbsPt */
ELSE[ ]	/* Else */
PUSHW[ ]	/* 2 values pushed */
0 1
MIAP[0]	/* MoveIndirectAbsPt */
EIF[ ]	/* EndIf */
PUSHW[ ]	/* 1 value pushed */
0
RCVT[ ]	/* ReadCVT */
IF[ ]	/* If */
PUSHW[ ]	/* 1 value pushed */
3
MDAP[1]	/* MoveDirectAbsPt */
ELSE[ ]	/* Else */
PUSHW[ ]	/* 2 values pushed */
3 1
MIAP[0]	/* MoveIndirectAbsPt */
EIF[ ]	/* EndIf */
PUSHW[ ]	/* 1 value pushed */
0
RCVT[ ]	/* ReadCVT */
IF[ ]	/* If */
PUSHW[ ]	/* 1 value pushed */
6
MDAP[1]	/* MoveDirectAbsPt */
ELSE[ ]	/* Else */
PUSHW[ ]	/* 2 values pushed */
6 1
MIAP[0]	/* MoveIndirectAbsPt */
EIF[ ]	/* EndIf */
PUSHW[ ]	/* 3 values pushed */
11 6 14
SRP1[ ]	/* SetRefPoint1 */
SRP2[ ]	/* SetRefPoint2 */
IP[ ]	/* InterpolatePts */
PUSHW[ ]	/* 1 value pushed */
20
MDRP[11100]	/* MoveDirectRelPt */
PUSHW[ ]	/* 1 value pushed */
21
MDRP[10000]	/* MoveDirectRelPt */
IUP[0]	/* InterpolateUntPts */
IUP[1]	/* InterpolateUntPts */";
};
width = 530;
}
);
note = L;
unicode = 76;
},
{
glyphname = M;
layers = (
{
layerId = m01;
shapes = (
{
closed = 1;
nodes = (
(383,212,l),
(168,623,l),
(70,623,l),
(85,595,o),
(90,498,qs),
(91,479,o),
(91,385,o),
(91,309,qs),
(91,126,ls),
(90,81,o),
(85,19,o),
(80,0,q),
(161,0,l),
(156,18,o),
(151,81,o),
(150,127,qs),
(150,307,l),
(150,548,l),
(166,486,o),
(276,281,qs),
(322,195,o),
(384,89,q),
(490,276,o),
(608,507,o),
(619,553,q),
(619,307,l),
(619,127,ls),
(618,82,o),
(613,19,o),
(608,0,q),
(692,0,l),
(687,19,o),
(682,81,o),
(681,126,qs),
(681,309,ls),
(681,385,o),
(682,479,o),
(683,498,qs),
(688,595,o),
(703,623,q),
(602,623,l)
);
}
);
userData = {
assembly = "PUSHW[ ]	/* 1 value pushed */
41
MDAP[1]	/* MoveDirectAbsPt */
PUSHW[ ]	/* 1 value pushed */
13
MDAP[1]	/* MoveDirectAbsPt */
PUSHW[ ]	/* 1 value pushed */
6
MDRP[11100]	/* MoveDirectRelPt */
PUSHW[ ]	/* 1 value pushed */
2
MDRP[10000]	/* MoveDirectRelPt */
PUSHW[ ]	/* 1 value pushed */
2
MDAP[1]	/* MoveDirectAbsPt */
PUSHW[ ]	/* 1 value pushed */
41
SRP0[ ]	/* SetRefPoint0 */
PUSHW[ ]	/* 1 value pushed */
31
MDRP[10000]	/* MoveDirectRelPt */
PUSHW[ ]	/* 1 value pushed */
31
MDAP[1]	/* MoveDirectAbsPt */
PUSHW[ ]	/* 1 value pushed */
35
MDRP[10000]	/* MoveDirectRelPt */
PUSHW[ ]	/* 1 value pushed */
35
MDAP[1]	/* MoveDirectAbsPt */
PUSHW[ ]	/* 3 values pushed */
10 35 2
SRP1[ ]	/* SetRefPoint1 */
SRP2[ ]	/* SetRefPoint2 */
IP[ ]	/* InterpolatePts */
PUSHW[ ]	/* 1 value pushed */
13
SRP0[ ]	/* SetRefPoint0 */
PUSHW[ ]	/* 1 value pushed */
15
MDRP[10000]	/* MoveDirectRelPt */
PUSHW[ ]	/* 3 values pushed */
18 35 2
SRP1[ ]	/* SetRefPoint1 */
SRP2[ ]	/* SetRefPoint2 */
IP[ ]	/* InterpolatePts */
PUSHW[ ]	/* 1 value pushed */
31
SRP0[ ]	/* SetRefPoint0 */
PUSHW[ ]	/* 1 value pushed */
24
MDRP[11100]	/* MoveDirectRelPt */
PUSHW[ ]	/* 1 value pushed */
22
MDRP[10000]	/* MoveDirectRelPt */
PUSHW[ ]	/* 3 values pushed */
27 35 2
SRP1[ ]	/* SetRefPoint1 */
SRP2[ ]	/* SetRefPoint2 */
IP[ ]	/* InterpolatePts */
PUSHW[ ]	/* 3 values pushed */
39 35 2
SRP1[ ]	/* SetRefPoint1 */
SRP2[ ]	/* SetRefPoint2 */
IP[ ]	/* InterpolatePts */
PUSHW[ ]	/* 1 value pushed */
6
SRP0[ ]	/* SetRefPoint0 */
PUSHW[ ]	/* 1 value pushed */
42
MDRP[11100]	/* MoveDirectRelPt */
SVTCA[0]	/* SetFreedomAndProjectionVectorToAxis */
PUSHW[ ]	/* 1 value pushed */
0
MDAP[1]	/* MoveDirectAbsPt */
PUSHW[ ]	/* 1 value pushed */
37
MDAP[1]	/* MoveDirectAbsPt */
PUSHW[ ]	/* 1 value pushed */
0
RCVT[ ]	/* ReadCVT */
IF[ ]	/* If */
PUSHW[ ]	/* 1 value pushed */
9
MDAP[1]	/* MoveDirectAbsPt */
ELSE[ ]	/* Else */
PUSHW[ ]	/* 2 values pushed */
9 1
MIAP[0]	/* MoveIndirectAbsPt */
EIF[ ]	/* EndIf */
PUSHW[ ]	/* 1 value pushed */
0
RCVT[ ]	/* ReadCVT */
IF[ ]	/* If */
PUSHW[ ]	/* 1 value pushed */
27
MDAP[1]	/* MoveDirectAbsPt */
ELSE[ ]	/* Else */
PUSHW[ ]	/* 2 values pushed */
27 1
MIAP[0]	/* MoveIndirectAbsPt */
EIF[ ]	/* EndIf */
PUSHW[ ]	/* 3 values pushed */
15 9 0
SRP1[ ]	/* SetRefPoint1 */
SRP2[ ]	/* SetRefPoint2 */
IP[ ]	/* InterpolatePts */
PUSHW[ ]	/* 3 values pushed */
18 9 0
SRP1[ ]	/* SetRefPoint1 */
SRP2[ ]	/* SetRefPoint2 */
IP[ ]	/* InterpolatePts */
PUSHW[ ]	/* 3 values pushed */
22 9 0
SRP1[ ]	/* SetRefPoint1 */
SRP2[ ]	/* SetRefPoint2 */
IP[ ]	/* InterpolatePts */
PUSHW[ ]	/* 3 values pushed */
39 9 0
SRP1[ ]	/* SetRefPoint1 */
SRP2[ ]	/* SetRefPoint2 */
IP[ ]	/* InterpolatePts */
IUP[0]	/* InterpolateUntPts */
IUP[1]	/* InterpolateUntPts */";
};
width = 763;
}
);
note = M;
unicode = 77;
},
{
glyphname = N;
layers = (
{
layerId = m01;
shapes = (
{
closed = 1;
nodes = (
(504,585,o),
(505,495,q),
(504,513,o),
(504,422,o),
(504,311,qs),
(504,101,l),
(491,132,o),
(398,281,o),
(316,400,qs),
(280,452,o),
(201,563,o),
(157,623,q),
(158,622,o),
(63,623,q),
(77,596,o),
(82,500,qs),
(83,482,o),
(83,388,o),
(83,312,qs),
(83,128,ls),
(82,82,o),
(77,19,o),
(72,0,q),
(155,0,l),
(150,19,o),
(145,83,o),
(144,129,qs),
(144,310,l),
(144,543,l),
(161,513,o),
(262,361,o),
(347,236,qs),
(382,184,o),
(464,66,o),
(510,0,q),
(568,0,l),
(568,310,ls),
(568,430,o),
(568,522,o),
(567,495,q),
(568,541,o),
(573,604,o),
(578,623,q),
(493,623,l)
);
}
);
userData = {
assembly = "PUSHW[ ]	/* 1 value pushed */
44
MDAP[1]	/* MoveDirectAbsPt */
PUSHW[ ]	/* 1 value pushed */
37
MDAP[1]	/* MoveDirectAbsPt */
PUSHW[ ]	/* 1 value pushed */
7
MDRP[11100]	/* MoveDirectRelPt */
PUSHW[ ]	/* 1 value pushed */
3
MDRP[10000]	/* MoveDirectRelPt */
PUSHW[ ]	/* 1 value pushed */
3
MDAP[1]	/* MoveDirectAbsPt */
PUSHW[ ]	/* 1 value pushed */
44
SRP0[ ]	/* SetRefPoint0 */
PUSHW[ ]	/* 1 value pushed */
23
MDRP[10000]	/* MoveDirectRelPt */
PUSHW[ ]	/* 1 value pushed */
23
MDAP[1]	/* MoveDirectAbsPt */
PUSHW[ ]	/* 1 value pushed */
16
MDRP[11100]	/* MoveDirectRelPt */
PUSHW[ ]	/* 1 value pushed */
14
MDRP[10000]	/* MoveDirectRelPt */
PUSHW[ ]	/* 1 value pushed */
23
SRP0[ ]	/* SetRefPoint0 */
PUSHW[ ]	/* 1 value pushed */
27
MDRP[10000]	/* MoveDirectRelPt */
PUSHW[ ]	/* 1 value pushed */
27
MDAP[1]	/* MoveDirectAbsPt */
PUSHW[ ]	/* 3 values pushed */
19 27 7
SRP1[ ]	/* SetRefPoint1 */
SRP2[ ]	/* SetRefPoint2 */
IP[ ]	/* InterpolatePts */
PUSHW[ ]	/* 1 value pushed */
37
SRP0[ ]	/* SetRefPoint0 */
PUSHW[ ]	/* 1 value pushed */
41
MDRP[10000]	/* MoveDirectRelPt */
PUSHW[ ]	/* 1 value pushed */
41
MDAP[1]	/* MoveDirectAbsPt */
PUSHW[ ]	/* 3 values pushed */
43 27 7
SRP1[ ]	/* SetRefPoint1 */
SRP2[ ]	/* SetRefPoint2 */
IP[ ]	/* InterpolatePts */
PUSHW[ ]	/* 1 value pushed */
7
SRP0[ ]	/* SetRefPoint0 */
PUSHW[ ]	/* 1 value pushed */
45
MDRP[11100]	/* MoveDirectRelPt */
SVTCA[0]	/* SetFreedomAndProjectionVectorToAxis */
PUSHW[ ]	/* 1 value pushed */
0
MDAP[1]	/* MoveDirectAbsPt */
PUSHW[ ]	/* 1 value pushed */
29
MDAP[1]	/* MoveDirectAbsPt */
PUSHW[ ]	/* 1 value pushed */
31
MDAP[1]	/* MoveDirectAbsPt */
PUSHW[ ]	/* 1 value pushed */
0
RCVT[ ]	/* ReadCVT */
IF[ ]	/* If */
PUSHW[ ]	/* 1 value pushed */
7
MDAP[1]	/* MoveDirectAbsPt */
ELSE[ ]	/* Else */
PUSHW[ ]	/* 2 values pushed */
7 1
MIAP[0]	/* MoveIndirectAbsPt */
EIF[ ]	/* EndIf */
PUSHW[ ]	/* 1 value pushed */
0
RCVT[ ]	/* ReadCVT */
IF[ ]	/* If */
PUSHW[ ]	/* 1 value pushed */
19
MDAP[1]	/* MoveDirectAbsPt */
ELSE[ ]	/* Else */
PUSHW[ ]	/* 2 values pushed */
19 1
MIAP[0]	/* MoveIndirectAbsPt */
EIF[ ]	/* EndIf */
PUSHW[ ]	/* 3 values pushed */
3 7 0
SRP1[ ]	/* SetRefPoint1 */
SRP2[ ]	/* SetRefPoint2 */
IP[ ]	/* InterpolatePts */
PUSHW[ ]	/* 3 values pushed */
14 7 0
SRP1[ ]	/* SetRefPoint1 */
SRP2[ ]	/* SetRefPoint2 */
IP[ ]	/* InterpolatePts */
PUSHW[ ]	/* 3 values pushed */
37 7 0
SRP1[ ]	/* SetRefPoint1 */
SRP2[ ]	/* SetRefPoint2 */
IP[ ]	/* InterpolatePts */
PUSHW[ ]	/* 3 values pushed */
41 7 0
SRP1[ ]	/* SetRefPoint1 */
SRP2[ ]	/* SetRefPoint2 */
IP[ ]	/* InterpolatePts */
IUP[0]	/* InterpolateUntPts */
IUP[1]	/* InterpolateUntPts */";
};
width = 636;
}
);
note = N;
unicode = 78;
},
{
glyphname = O;
layers = (
{
layerId = m01;
shapes = (
{
closed = 1;
nodes = (
(572,535,qs),
(492,634,o),
(352,634,qs),
(213,634,o),
(134,535,qs),
(61,444,o),
(61,304,qs),
(61,172,o),
(139,84,qs),
(220,-10,o),
(352,-10,qs),
(479,-10,o),
(563,84,qs),
(643,175,o),
(643,304,qs),
(643,444,o)
);
},
{
closed = 1;
nodes = (
(513,131,qs),
(452,55,o),
(352,55,qs),
(254,55,o),
(191,132,qs),
(132,203,o),
(132,303,qs),
(132,409,o),
(188,485,qs),
(249,569,o),
(351,569,qs),
(460,569,o),
(518,493,qs),
(571,422,o),
(571,304,qs),
(571,201,o)
);
}
);
userData = {
assembly = "PUSHW[ ]	/* 1 value pushed */
32
MDAP[1]	/* MoveDirectAbsPt */
PUSHW[ ]	/* 1 value pushed */
16
MDAP[1]	/* MoveDirectAbsPt */
NPUSHW[ ]	/* 5 values pushed */
58 16 74 16 2
DELTAP2[ ]	/* DeltaExceptionP2 */
NPUSHW[ ]	/* 21 values pushed */
105 16 121 16 137 16 153 16 169 16 185 16 201 16 217 16 233 16 249 16 10
DELTAP1[ ]	/* DeltaExceptionP1 */
NPUSHW[ ]	/* 7 values pushed */
9 16 25 16 41 16 3
DELTAP2[ ]	/* DeltaExceptionP2 */
PUSHW[ ]	/* 1 value pushed */
0
MDRP[11100]	/* MoveDirectRelPt */
PUSHW[ ]	/* 1 value pushed */
32
SRP0[ ]	/* SetRefPoint0 */
PUSHW[ ]	/* 1 value pushed */
8
MDRP[10000]	/* MoveDirectRelPt */
PUSHW[ ]	/* 1 value pushed */
8
MDAP[1]	/* MoveDirectAbsPt */
PUSHW[ ]	/* 1 value pushed */
24
MDRP[11100]	/* MoveDirectRelPt */
NPUSHW[ ]	/* 21 values pushed */
102 24 118 24 134 24 150 24 166 24 182 24 198 24 214 24 230 24 246 24 10
DELTAP1[ ]	/* DeltaExceptionP1 */
NPUSHW[ ]	/* 3 values pushed */
6 24 1
DELTAP2[ ]	/* DeltaExceptionP2 */
NPUSHW[ ]	/* 5 values pushed */
22 24 38 24 2
DELTAP2[ ]	/* DeltaExceptionP2 */
NPUSHW[ ]	/* 5 values pushed */
53 24 69 24 2
DELTAP2[ ]	/* DeltaExceptionP2 */
PUSHW[ ]	/* 1 value pushed */
6
MDRP[10000]	/* MoveDirectRelPt */
PUSHW[ ]	/* 1 value pushed */
6
MDAP[1]	/* MoveDirectAbsPt */
PUSHW[ ]	/* 1 value pushed */
24
SRP0[ ]	/* SetRefPoint0 */
PUSHW[ ]	/* 1 value pushed */
10
MDRP[10000]	/* MoveDirectRelPt */
PUSHW[ ]	/* 1 value pushed */
10
MDAP[1]	/* MoveDirectAbsPt */
PUSHW[ ]	/* 1 value pushed */
16
SRP0[ ]	/* SetRefPoint0 */
PUSHW[ ]	/* 1 value pushed */
14
MDRP[10000]	/* MoveDirectRelPt */
PUSHW[ ]	/* 1 value pushed */
14
MDAP[1]	/* MoveDirectAbsPt */
PUSHW[ ]	/* 1 value pushed */
0
SRP0[ ]	/* SetRefPoint0 */
PUSHW[ ]	/* 1 value pushed */
33
MDRP[11100]	/* MoveDirectRelPt */
SVTCA[0]	/* SetFreedomAndProjectionVectorToAxis */
PUSHW[ ]	/* 1 value pushed */
0
RCVT[ ]	/* ReadCVT */
IF[ ]	/* If */
PUSHW[ ]	/* 1 value pushed */
12
MDAP[1]	/* MoveDirectAbsPt */
ELSE[ ]	/* Else */
PUSHW[ ]	/* 2 values pushed */
12 7
MIAP[0]	/* MoveIndirectAbsPt */
EIF[ ]	/* EndIf */
PUSHW[ ]	/* 1 value pushed */
0
RCVT[ ]	/* ReadCVT */
IF[ ]	/* If */
PUSHW[ ]	/* 1 value pushed */
4
MDAP[1]	/* MoveDirectAbsPt */
ELSE[ ]	/* Else */
PUSHW[ ]	/* 2 values pushed */
4 1
MIAP[0]	/* MoveIndirectAbsPt */
EIF[ ]	/* EndIf */
PUSHW[ ]	/* 1 value pushed */
12
SRP0[ ]	/* SetRefPoint0 */
PUSHW[ ]	/* 1 value pushed */
20
MDRP[11100]	/* MoveDirectRelPt */
NPUSHW[ ]	/* 5 values pushed */
57 20 73 20 2
DELTAP2[ ]	/* DeltaExceptionP2 */
NPUSHW[ ]	/* 21 values pushed */
104 20 120 20 136 20 152 20 168 20 184 20 200 20 216 20 232 20 248 20 10
DELTAP1[ ]	/* DeltaExceptionP1 */
NPUSHW[ ]	/* 7 values pushed */
8 20 24 20 40 20 3
DELTAP2[ ]	/* DeltaExceptionP2 */
PUSHW[ ]	/* 1 value pushed */
4
SRP0[ ]	/* SetRefPoint0 */
PUSHW[ ]	/* 1 value pushed */
28
MDRP[11100]	/* MoveDirectRelPt */
NPUSHW[ ]	/* 21 values pushed */
103 28 119 28 135 28 151 28 167 28 183 28 199 28 215 28 231 28 247 28 10
DELTAP1[ ]	/* DeltaExceptionP1 */
NPUSHW[ ]	/* 7 values pushed */
7 28 23 28 39 28 3
DELTAP2[ ]	/* DeltaExceptionP2 */
NPUSHW[ ]	/* 5 values pushed */
54 28 70 28 2
DELTAP2[ ]	/* DeltaExceptionP2 */
IUP[0]	/* InterpolateUntPts */
IUP[1]	/* InterpolateUntPts */";
};
width = 697;
}
);
note = O;
unicode = 79;
},
{
glyphname = P;
layers = (
{
layerId = m01;
shapes = (
{
closed = 1;
nodes = (
(406,590,qs),
(353,623,o),
(296,623,qs),
(77,623,l),
(82,604,o),
(87,540,o),
(88,493,qs),
(88,309,l),
(88,125,ls),
(87,80,o),
(82,19,o),
(77,0,q),
(165,0,l),
(160,19,o),
(155,70,o),
(154,104,qs),
(154,153,o),
(155,206,o),
(155,234,o),
(156,251,o),
(156,265,q),
(171,265,o),
(211,265,o),
(252,266,o),
(286,267,o),
(295,267,qs),
(357,272,o),
(408,306,qs),
(480,355,o),
(480,448,qs),
(480,542,o)
);
},
{
closed = 1;
nodes = (
(295,327,qs),
(285,325,o),
(216,324,o),
(156,325,q),
(157,566,l),
(266,567,o),
(295,563,qs),
(303,561,o),
(321,559,o),
(330,557,qs),
(362,548,o),
(382,527,qs),
(410,499,o),
(410,448,qs),
(411,344,o)
);
}
);
userData = {
assembly = "PUSHW[ ]	/* 1 value pushed */
46
MDAP[1]	/* MoveDirectAbsPt */
PUSHW[ ]	/* 1 value pushed */
31
MDAP[1]	/* MoveDirectAbsPt */
NPUSHW[ ]	/* 5 values pushed */
58 31 74 31 2
DELTAP2[ ]	/* DeltaExceptionP2 */
NPUSHW[ ]	/* 21 values pushed */
105 31 121 31 137 31 153 31 169 31 185 31 201 31 217 31 233 31 249 31 10
DELTAP1[ ]	/* DeltaExceptionP1 */
NPUSHW[ ]	/* 7 values pushed */
9 31 25 31 41 31 3
DELTAP2[ ]	/* DeltaExceptionP2 */
PUSHW[ ]	/* 1 value pushed */
0
MDRP[11100]	/* MoveDirectRelPt */
PUSHW[ ]	/* 1 value pushed */
31
SRP0[ ]	/* SetRefPoint0 */
PUSHW[ ]	/* 1 value pushed */
2
MDRP[10000]	/* MoveDirectRelPt */
PUSHW[ ]	/* 1 value pushed */
2
MDAP[1]	/* MoveDirectAbsPt */
PUSHW[ ]	/* 1 value pushed */
46
SRP0[ ]	/* SetRefPoint0 */
PUSHW[ ]	/* 1 value pushed */
22
MDRP[10000]	/* MoveDirectRelPt */
PUSHW[ ]	/* 1 value pushed */
22
MDAP[1]	/* MoveDirectAbsPt */
PUSHW[ ]	/* 1 value pushed */
9
MDRP[11100]	/* MoveDirectRelPt */
PUSHW[ ]	/* 1 value pushed */
14
MDRP[10000]	/* MoveDirectRelPt */
PUSHW[ ]	/* 1 value pushed */
14
MDAP[1]	/* MoveDirectAbsPt */
PUSHW[ ]	/* 3 values pushed */
17 22 0
SRP1[ ]	/* SetRefPoint1 */
SRP2[ ]	/* SetRefPoint2 */
IP[ ]	/* InterpolatePts */
PUSHW[ ]	/* 1 value pushed */
31
SRP0[ ]	/* SetRefPoint0 */
PUSHW[ ]	/* 1 value pushed */
29
MDRP[10000]	/* MoveDirectRelPt */
PUSHW[ ]	/* 1 value pushed */
29
MDAP[1]	/* MoveDirectAbsPt */
PUSHW[ ]	/* 1 value pushed */
9
SRP0[ ]	/* SetRefPoint0 */
PUSHW[ ]	/* 1 value pushed */
40
MDRP[10000]	/* MoveDirectRelPt */
PUSHW[ ]	/* 1 value pushed */
40
MDAP[1]	/* MoveDirectAbsPt */
PUSHW[ ]	/* 1 value pushed */
0
SRP0[ ]	/* SetRefPoint0 */
PUSHW[ ]	/* 1 value pushed */
47
MDRP[11100]	/* MoveDirectRelPt */
SVTCA[0]	/* SetFreedomAndProjectionVectorToAxis */
PUSHW[ ]	/* 1 value pushed */
0
RCVT[ ]	/* ReadCVT */
IF[ ]	/* If */
PUSHW[ ]	/* 1 value pushed */
17
MDAP[1]	/* MoveDirectAbsPt */
ELSE[ ]	/* Else */
PUSHW[ ]	/* 2 values pushed */
17 1
MIAP[0]	/* MoveIndirectAbsPt */
EIF[ ]	/* EndIf */
PUSHW[ ]	/* 3 values pushed */
26 40 3
CALL[ ]	/* CallFunction */
PUSHW[ ]	/* 3 values pushed */
41 9 3
CALL[ ]	/* CallFunction */
PUSHW[ ]	/* 1 value pushed */
9
SRP0[ ]	/* SetRefPoint0 */
PUSHW[ ]	/* 1 value pushed */
4
MDRP[10000]	/* MoveDirectRelPt */
PUSHW[ ]	/* 1 value pushed */
4
MDAP[1]	/* MoveDirectAbsPt */
PUSHW[ ]	/* 1 value pushed */
41
SRP0[ ]	/* SetRefPoint0 */
PUSHW[ ]	/* 1 value pushed */
44
MDRP[10000]	/* MoveDirectRelPt */
PUSHW[ ]	/* 1 value pushed */
44
MDAP[1]	/* MoveDirectAbsPt */
IUP[0]	/* InterpolateUntPts */
IUP[1]	/* InterpolateUntPts */";
};
width = 511;
}
);
note = P;
unicode = 80;
},
{
glyphname = Q;
layers = (
{
layerId = m01;
shapes = (
{
closed = 1;
nodes = (
(496,-68,qs),
(479,-43,o),
(459,-11,o),
(456,-4,qs),
(450,7,l),
(537,38,o),
(590,120,qs),
(643,203,o),
(643,304,qs),
(643,444,o),
(572,535,qs),
(492,634,o),
(352,634,qs),
(213,634,o),
(134,535,qs),
(61,444,o),
(61,304,qs),
(61,172,o),
(139,84,qs),
(220,-10,o),
(352,-10,qs),
(359,-10,o),
(373,-10,o),
(380,-9,q),
(408,-64,l),
(418,-88,o),
(427,-118,o),
(428,-123,q),
(535,-123,l),
(529,-117,o)
);
},
{
closed = 1;
nodes = (
(513,131,qs),
(452,55,o),
(352,55,qs),
(254,55,o),
(191,132,qs),
(132,203,o),
(132,303,qs),
(132,409,o),
(188,485,qs),
(249,569,o),
(351,569,qs),
(460,569,o),
(518,493,qs),
(571,422,o),
(571,304,qs),
(571,201,o)
);
}
);
userData = {
assembly = "PUSHW[ ]	/* 1 value pushed */
46
MDAP[1]	/* MoveDirectAbsPt */
PUSHW[ ]	/* 1 value pushed */
30
MDAP[1]	/* MoveDirectAbsPt */
PUSHW[ ]	/* 1 value pushed */
46
SRP0[ ]	/* SetRefPoint0 */
PUSHW[ ]	/* 1 value pushed */
12
MDRP[10000]	/* MoveDirectRelPt */
PUSHW[ ]	/* 1 value pushed */
12
MDAP[1]	/* MoveDirectAbsPt */
NPUSHW[ ]	/* 5 values pushed */
58 30 74 30 2
DELTAP2[ ]	/* DeltaExceptionP2 */
NPUSHW[ ]	/* 21 values pushed */
105 30 121 30 137 30 153 30 169 30 185 30 201 30 217 30 233 30 249 30 10
DELTAP1[ ]	/* DeltaExceptionP1 */
NPUSHW[ ]	/* 7 values pushed */
9 30 25 30 41 30 3
DELTAP2[ ]	/* DeltaExceptionP2 */
PUSHW[ ]	/* 1 value pushed */
30
SRP0[ ]	/* SetRefPoint0 */
PUSHW[ ]	/* 1 value pushed */
20
MDRP[11100]	/* MoveDirectRelPt */
PUSHW[ ]	/* 3 values pushed */
0 12 20
SRP1[ ]	/* SetRefPoint1 */
SRP2[ ]	/* SetRefPoint2 */
IP[ ]	/* InterpolatePts */
PUSHW[ ]	/* 1 value pushed */
12
SRP0[ ]	/* SetRefPoint0 */
PUSHW[ ]	/* 1 value pushed */
38
MDRP[11100]	/* MoveDirectRelPt */
NPUSHW[ ]	/* 21 values pushed */
102 38 118 38 134 38 150 38 166 38 182 38 198 38 214 38 230 38 246 38 10
DELTAP1[ ]	/* DeltaExceptionP1 */
NPUSHW[ ]	/* 7 values pushed */
6 38 22 38 38 38 3
DELTAP2[ ]	/* DeltaExceptionP2 */
NPUSHW[ ]	/* 5 values pushed */
53 38 69 38 2
DELTAP2[ ]	/* DeltaExceptionP2 */
PUSHW[ ]	/* 1 value pushed */
10
MDRP[10000]	/* MoveDirectRelPt */
PUSHW[ ]	/* 1 value pushed */
10
MDAP[1]	/* MoveDirectAbsPt */
PUSHW[ ]	/* 1 value pushed */
38
SRP0[ ]	/* SetRefPoint0 */
PUSHW[ ]	/* 1 value pushed */
14
MDRP[10000]	/* MoveDirectRelPt */
PUSHW[ ]	/* 1 value pushed */
14
MDAP[1]	/* MoveDirectAbsPt */
PUSHW[ ]	/* 1 value pushed */
30
SRP0[ ]	/* SetRefPoint0 */
PUSHW[ ]	/* 1 value pushed */
18
MDRP[10000]	/* MoveDirectRelPt */
PUSHW[ ]	/* 1 value pushed */
18
MDAP[1]	/* MoveDirectAbsPt */
PUSHW[ ]	/* 1 value pushed */
20
SRP0[ ]	/* SetRefPoint0 */
PUSHW[ ]	/* 1 value pushed */
47
MDRP[11100]	/* MoveDirectRelPt */
SVTCA[0]	/* SetFreedomAndProjectionVectorToAxis */
PUSHW[ ]	/* 1 value pushed */
0
RCVT[ ]	/* ReadCVT */
IF[ ]	/* If */
PUSHW[ ]	/* 1 value pushed */
16
MDAP[1]	/* MoveDirectAbsPt */
ELSE[ ]	/* Else */
PUSHW[ ]	/* 2 values pushed */
16 7
MIAP[0]	/* MoveIndirectAbsPt */
EIF[ ]	/* EndIf */
PUSHW[ ]	/* 1 value pushed */
0
RCVT[ ]	/* ReadCVT */
IF[ ]	/* If */
PUSHW[ ]	/* 1 value pushed */
5
MDAP[1]	/* MoveDirectAbsPt */
ELSE[ ]	/* Else */
PUSHW[ ]	/* 2 values pushed */
5 1
MIAP[0]	/* MoveIndirectAbsPt */
EIF[ ]	/* EndIf */
PUSHW[ ]	/* 1 value pushed */
0
RCVT[ ]	/* ReadCVT */
IF[ ]	/* If */
PUSHW[ ]	/* 1 value pushed */
8
MDAP[1]	/* MoveDirectAbsPt */
ELSE[ ]	/* Else */
PUSHW[ ]	/* 2 values pushed */
8 1
MIAP[0]	/* MoveIndirectAbsPt */
EIF[ ]	/* EndIf */
PUSHW[ ]	/* 1 value pushed */
0
RCVT[ ]	/* ReadCVT */
IF[ ]	/* If */
PUSHW[ ]	/* 1 value pushed */
25
MDAP[1]	/* MoveDirectAbsPt */
ELSE[ ]	/* Else */
PUSHW[ ]	/* 2 values pushed */
25 1
MIAP[0]	/* MoveIndirectAbsPt */
EIF[ ]	/* EndIf */
PUSHW[ ]	/* 1 value pushed */
8
SRP0[ ]	/* SetRefPoint0 */
PUSHW[ ]	/* 1 value pushed */
42
MDRP[11100]	/* MoveDirectRelPt */
NPUSHW[ ]	/* 21 values pushed */
103 42 119 42 135 42 151 42 167 42 183 42 199 42 215 42 231 42 247 42 10
DELTAP1[ ]	/* DeltaExceptionP1 */
NPUSHW[ ]	/* 7 values pushed */
7 42 23 42 39 42 3
DELTAP2[ ]	/* DeltaExceptionP2 */
NPUSHW[ ]	/* 5 values pushed */
54 42 70 42 2
DELTAP2[ ]	/* DeltaExceptionP2 */
PUSHW[ ]	/* 1 value pushed */
1
MDRP[11100]	/* MoveDirectRelPt */
PUSHW[ ]	/* 1 value pushed */
16
SRP0[ ]	/* SetRefPoint0 */
PUSHW[ ]	/* 1 value pushed */
34
MDRP[11100]	/* MoveDirectRelPt */
NPUSHW[ ]	/* 5 values pushed */
57 34 73 34 2
DELTAP2[ ]	/* DeltaExceptionP2 */
NPUSHW[ ]	/* 21 values pushed */
104 34 120 34 136 34 152 34 168 34 184 34 200 34 216 34 232 34 248 34 10
DELTAP1[ ]	/* DeltaExceptionP1 */
NPUSHW[ ]	/* 7 values pushed */
8 34 24 34 40 34 3
DELTAP2[ ]	/* DeltaExceptionP2 */
IUP[0]	/* InterpolateUntPts */
IUP[1]	/* InterpolateUntPts */";
};
width = 698;
}
);
note = Q;
unicode = 81;
},
{
glyphname = R;
layers = (
{
layerId = m01;
shapes = (
{
closed = 1;
nodes = (
(331,292,q),
(480,324,o),
(480,458,qs),
(480,503,o),
(451,566,o),
(400,605,o),
(333,623,o),
(296,623,qs),
(77,623,l),
(82,604,o),
(87,540,o),
(88,493,qs),
(88,309,l),
(88,125,ls),
(87,80,o),
(82,19,o),
(77,0,q),
(165,0,l),
(160,19,o),
(155,76,o),
(154,114,qs),
(154,284,l),
(164,285,o),
(183,285,o),
(193,286,q),
(238,285,o),
(264,277,qs),
(332,256,o),
(377,160,qs),
(416,80,o),
(416,16,qs),
(416,11,o),
(415,4,o),
(414,0,q),
(502,0,l),
(453,251,o)
);
},
{
closed = 1;
nodes = (
(351,355,o),
(295,347,qs),
(285,345,o),
(216,344,o),
(156,345,q),
(157,566,l),
(266,567,o),
(295,563,qs),
(320,561,o),
(363,549,o),
(393,525,o),
(410,486,o),
(410,458,qs),
(409,403,o)
);
}
);
userData = {
assembly = "PUSHW[ ]	/* 1 value pushed */
50
MDAP[1]	/* MoveDirectAbsPt */
PUSHW[ ]	/* 1 value pushed */
36
MDAP[1]	/* MoveDirectAbsPt */
NPUSHW[ ]	/* 5 values pushed */
58 36 74 36 2
DELTAP2[ ]	/* DeltaExceptionP2 */
NPUSHW[ ]	/* 21 values pushed */
105 36 121 36 137 36 153 36 169 36 185 36 201 36 217 36 233 36 249 36 10
DELTAP1[ ]	/* DeltaExceptionP1 */
NPUSHW[ ]	/* 7 values pushed */
9 36 25 36 41 36 3
DELTAP2[ ]	/* DeltaExceptionP2 */
PUSHW[ ]	/* 1 value pushed */
1
MDRP[10000]	/* MoveDirectRelPt */
PUSHW[ ]	/* 1 value pushed */
1
MDAP[1]	/* MoveDirectAbsPt */
PUSHW[ ]	/* 1 value pushed */
36
SRP0[ ]	/* SetRefPoint0 */
PUSHW[ ]	/* 1 value pushed */
4
MDRP[10000]	/* MoveDirectRelPt */
PUSHW[ ]	/* 1 value pushed */
4
MDAP[1]	/* MoveDirectAbsPt */
PUSHW[ ]	/* 1 value pushed */
50
SRP0[ ]	/* SetRefPoint0 */
PUSHW[ ]	/* 1 value pushed */
22
MDRP[10000]	/* MoveDirectRelPt */
PUSHW[ ]	/* 1 value pushed */
22
MDAP[1]	/* MoveDirectAbsPt */
PUSHW[ ]	/* 1 value pushed */
44
MDRP[11100]	/* MoveDirectRelPt */
PUSHW[ ]	/* 1 value pushed */
13
MDRP[10000]	/* MoveDirectRelPt */
PUSHW[ ]	/* 1 value pushed */
13
MDAP[1]	/* MoveDirectAbsPt */
PUSHW[ ]	/* 1 value pushed */
36
SRP0[ ]	/* SetRefPoint0 */
PUSHW[ ]	/* 1 value pushed */
32
MDRP[11100]	/* MoveDirectRelPt */
PUSHW[ ]	/* 3 values pushed */
17 22 32
SRP1[ ]	/* SetRefPoint1 */
SRP2[ ]	/* SetRefPoint2 */
IP[ ]	/* InterpolatePts */
PUSHW[ ]	/* 3 values pushed */
34 22 32
SRP1[ ]	/* SetRefPoint1 */
SRP2[ ]	/* SetRefPoint2 */
IP[ ]	/* InterpolatePts */
PUSHW[ ]	/* 1 value pushed */
51
MDRP[11100]	/* MoveDirectRelPt */
SVTCA[0]	/* SetFreedomAndProjectionVectorToAxis */
PUSHW[ ]	/* 1 value pushed */
0
RCVT[ ]	/* ReadCVT */
IF[ ]	/* If */
PUSHW[ ]	/* 1 value pushed */
0
MDAP[1]	/* MoveDirectAbsPt */
ELSE[ ]	/* Else */
PUSHW[ ]	/* 2 values pushed */
0 1
MIAP[0]	/* MoveIndirectAbsPt */
EIF[ ]	/* EndIf */
PUSHW[ ]	/* 1 value pushed */
0
RCVT[ ]	/* ReadCVT */
IF[ ]	/* If */
PUSHW[ ]	/* 1 value pushed */
17
MDAP[1]	/* MoveDirectAbsPt */
ELSE[ ]	/* Else */
PUSHW[ ]	/* 2 values pushed */
17 1
MIAP[0]	/* MoveIndirectAbsPt */
EIF[ ]	/* EndIf */
PUSHW[ ]	/* 3 values pushed */
26 43 3
CALL[ ]	/* CallFunction */
PUSHW[ ]	/* 3 values pushed */
44 10 3
CALL[ ]	/* CallFunction */
PUSHW[ ]	/* 1 value pushed */
10
SRP0[ ]	/* SetRefPoint0 */
PUSHW[ ]	/* 1 value pushed */
13
MDRP[10000]	/* MoveDirectRelPt */
PUSHW[ ]	/* 1 value pushed */
13
MDAP[1]	/* MoveDirectAbsPt */
PUSHW[ ]	/* 1 value pushed */
10
SRP0[ ]	/* SetRefPoint0 */
PUSHW[ ]	/* 1 value pushed */
34
MDRP[10000]	/* MoveDirectRelPt */
PUSHW[ ]	/* 1 value pushed */
34
MDAP[1]	/* MoveDirectAbsPt */
PUSHW[ ]	/* 1 value pushed */
43
SRP0[ ]	/* SetRefPoint0 */
PUSHW[ ]	/* 1 value pushed */
41
MDRP[10000]	/* MoveDirectRelPt */
PUSHW[ ]	/* 1 value pushed */
41
MDAP[1]	/* MoveDirectAbsPt */
PUSHW[ ]	/* 1 value pushed */
44
SRP0[ ]	/* SetRefPoint0 */
PUSHW[ ]	/* 1 value pushed */
47
MDRP[10000]	/* MoveDirectRelPt */
PUSHW[ ]	/* 1 value pushed */
47
MDAP[1]	/* MoveDirectAbsPt */
IUP[0]	/* InterpolateUntPts */
IUP[1]	/* InterpolateUntPts */";
};
width = 540;
}
);
note = R;
unicode = 82;
},
{
glyphname = S;
layers = (
{
layerId = m01;
shapes = (
{
closed = 1;
nodes = (
(257,344,qs),
(103,374,o),
(100,449,qs),
(95,575,o),
(246,575,qs),
(313,575,o),
(359,544,qs),
(369,537,o),
(375,505,q),
(413,505,l),
(412,542,o),
(412,591,o),
(412,605,q),
(407,604,o),
(358,615,qs),
(283,634,o),
(257,634,qs),
(162,636,o),
(102,593,qs),
(34,545,o),
(34,456,qs),
(34,386,o),
(90,342,qs),
(126,317,o),
(200,294,qs),
(222,288,o),
(266,276,o),
(288,270,qs),
(339,255,o),
(363,236,qs),
(397,212,o),
(401,173,qs),
(409,110,o),
(349,76,qs),
(300,48,o),
(233,48,qs),
(163,48,o),
(106,90,qs),
(81,108,o),
(78,125,q),
(40,125,l),
(37,51,o),
(37,24,q),
(50,28,o),
(82,17,qs),
(152,-9,o),
(193,-10,qs),
(301,-15,o),
(372,18,qs),
(467,60,o),
(471,157,qs),
(478,300,o)
);
}
);
userData = {
assembly = "PUSHW[ ]	/* 3 values pushed */
48 30 3
CALL[ ]	/* CallFunction */
PUSHW[ ]	/* 1 value pushed */
30
SRP0[ ]	/* SetRefPoint0 */
PUSHW[ ]	/* 1 value pushed */
8
MDRP[10000]	/* MoveDirectRelPt */
PUSHW[ ]	/* 1 value pushed */
8
MDAP[1]	/* MoveDirectAbsPt */
PUSHW[ ]	/* 1 value pushed */
30
SRP0[ ]	/* SetRefPoint0 */
PUSHW[ ]	/* 1 value pushed */
10
MDRP[10000]	/* MoveDirectRelPt */
PUSHW[ ]	/* 1 value pushed */
10
MDAP[1]	/* MoveDirectAbsPt */
NPUSHW[ ]	/* 21 values pushed */
102 48 118 48 134 48 150 48 166 48 182 48 198 48 214 48 230 48 246 48 10
DELTAP1[ ]	/* DeltaExceptionP1 */
NPUSHW[ ]	/* 7 values pushed */
6 48 22 48 38 48 3
DELTAP2[ ]	/* DeltaExceptionP2 */
NPUSHW[ ]	/* 5 values pushed */
53 48 69 48 2
DELTAP2[ ]	/* DeltaExceptionP2 */
SVTCA[0]	/* SetFreedomAndProjectionVectorToAxis */
PUSHW[ ]	/* 1 value pushed */
0
RCVT[ ]	/* ReadCVT */
IF[ ]	/* If */
PUSHW[ ]	/* 1 value pushed */
34
MDAP[1]	/* MoveDirectAbsPt */
ELSE[ ]	/* Else */
PUSHW[ ]	/* 2 values pushed */
34 7
MIAP[0]	/* MoveIndirectAbsPt */
EIF[ ]	/* EndIf */
PUSHW[ ]	/* 1 value pushed */
0
RCVT[ ]	/* ReadCVT */
IF[ ]	/* If */
PUSHW[ ]	/* 1 value pushed */
4
MDAP[1]	/* MoveDirectAbsPt */
ELSE[ ]	/* Else */
PUSHW[ ]	/* 2 values pushed */
4 1
MIAP[0]	/* MoveIndirectAbsPt */
EIF[ ]	/* EndIf */
PUSHW[ ]	/* 1 value pushed */
15
MDRP[11100]	/* MoveDirectRelPt */
NPUSHW[ ]	/* 21 values pushed */
103 15 119 15 135 15 151 15 167 15 183 15 199 15 215 15 231 15 247 15 10
DELTAP1[ ]	/* DeltaExceptionP1 */
NPUSHW[ ]	/* 7 values pushed */
7 15 23 15 39 15 3
DELTAP2[ ]	/* DeltaExceptionP2 */
NPUSHW[ ]	/* 5 values pushed */
54 15 70 15 2
DELTAP2[ ]	/* DeltaExceptionP2 */
PUSHW[ ]	/* 3 values pushed */
8 4 15
SRP1[ ]	/* SetRefPoint1 */
SRP2[ ]	/* SetRefPoint2 */
IP[ ]	/* InterpolatePts */
PUSHW[ ]	/* 1 value pushed */
34
SRP0[ ]	/* SetRefPoint0 */
PUSHW[ ]	/* 1 value pushed */
46
MDRP[11100]	/* MoveDirectRelPt */
NPUSHW[ ]	/* 5 values pushed */
57 46 73 46 2
DELTAP2[ ]	/* DeltaExceptionP2 */
NPUSHW[ ]	/* 21 values pushed */
104 46 120 46 136 46 152 46 168 46 184 46 200 46 216 46 232 46 248 46 10
DELTAP1[ ]	/* DeltaExceptionP1 */
NPUSHW[ ]	/* 7 values pushed */
8 46 24 46 40 46 3
DELTAP2[ ]	/* DeltaExceptionP2 */
IUP[0]	/* InterpolateUntPts */
IUP[1]	/* InterpolateUntPts */";
};
width = 505;
}
);
note = S;
unicode = 83;
},
{
glyphname = T;
layers = (
{
layerId = m01;
shapes = (
{
closed = 1;
nodes = (
(604,623,q),
(43,623,l),
(48,585,o),
(43,522,q),
(94,522,l),
(95,547,o),
(102,559,q),
(114,571,o),
(164,571,qs),
(290,571,l),
(290,301,l),
(290,122,ls),
(289,38,o),
(278,0,q),
(365,0,l),
(360,18,o),
(355,79,o),
(354,122,q),
(355,96,o),
(355,186,o),
(355,301,qs),
(355,570,l),
(483,570,ls),
(534,570,o),
(546,558,q),
(553,546,o),
(554,521,q),
(604,521,l),
(601,590,o)
);
}
);
userData = {
assembly = "PUSHW[ ]	/* 3 values pushed */
7 17 3
CALL[ ]	/* CallFunction */
PUSHW[ ]	/* 1 value pushed */
7
SRP0[ ]	/* SetRefPoint0 */
PUSHW[ ]	/* 1 value pushed */
10
MDRP[10000]	/* MoveDirectRelPt */
PUSHW[ ]	/* 1 value pushed */
10
MDAP[1]	/* MoveDirectAbsPt */
SVTCA[0]	/* SetFreedomAndProjectionVectorToAxis */
PUSHW[ ]	/* 1 value pushed */
0
RCVT[ ]	/* ReadCVT */
IF[ ]	/* If */
PUSHW[ ]	/* 1 value pushed */
13
MDAP[1]	/* MoveDirectAbsPt */
ELSE[ ]	/* Else */
PUSHW[ ]	/* 2 values pushed */
13 1
MIAP[0]	/* MoveIndirectAbsPt */
EIF[ ]	/* EndIf */
PUSHW[ ]	/* 3 values pushed */
26 19 3
CALL[ ]	/* CallFunction */
PUSHW[ ]	/* 1 value pushed */
26
SRP0[ ]	/* SetRefPoint0 */
PUSHW[ ]	/* 1 value pushed */
24
MDRP[11100]	/* MoveDirectRelPt */
PUSHW[ ]	/* 1 value pushed */
0
MDRP[10000]	/* MoveDirectRelPt */
PUSHW[ ]	/* 1 value pushed */
0
MDAP[1]	/* MoveDirectAbsPt */
PUSHW[ ]	/* 1 value pushed */
19
SRP0[ ]	/* SetRefPoint0 */
PUSHW[ ]	/* 1 value pushed */
5
MDRP[10000]	/* MoveDirectRelPt */
PUSHW[ ]	/* 1 value pushed */
5
MDAP[1]	/* MoveDirectAbsPt */
IUP[0]	/* InterpolateUntPts */
IUP[1]	/* InterpolateUntPts */";
};
width = 640;
}
);
note = T;
unicode = 84;
},
{
glyphname = U;
layers = (
{
layerId = m01;
shapes = (
{
closed = 1;
nodes = (
(501,605,o),
(506,545,o),
(507,500,qs),
(510,411,o),
(510,301,qs),
(510,166,o),
(457,107,qs),
(409,55,o),
(322,55,qs),
(135,55,o),
(135,251,qs),
(135,299,o),
(136,407,o),
(137,468,qs),
(140,587,o),
(148,621,q),
(56,621,l),
(63,599,o),
(66,550,qs),
(68,520,o),
(69,448,o),
(68,406,qs),
(67,329,o),
(66,257,o),
(66,262,qs),
(66,146,o),
(122,75,qs),
(192,-12,o),
(320,-12,qs),
(447,-12,o),
(518,78,qs),
(576,152,o),
(576,281,qs),
(576,290,o),
(576,318,o),
(575,337,qs),
(574,356,o),
(574,385,o),
(574,395,qs),
(574,580,o),
(585,621,q),
(497,621,l)
);
}
);
userData = {
assembly = "PUSHW[ ]	/* 1 value pushed */
42
MDAP[1]	/* MoveDirectAbsPt */
PUSHW[ ]	/* 1 value pushed */
36
MDAP[1]	/* MoveDirectAbsPt */
NPUSHW[ ]	/* 5 values pushed */
58 36 74 36 2
DELTAP2[ ]	/* DeltaExceptionP2 */
NPUSHW[ ]	/* 21 values pushed */
105 36 121 36 137 36 153 36 169 36 185 36 201 36 217 36 233 36 249 36 10
DELTAP1[ ]	/* DeltaExceptionP1 */
NPUSHW[ ]	/* 7 values pushed */
9 36 25 36 41 36 3
DELTAP2[ ]	/* DeltaExceptionP2 */
PUSHW[ ]	/* 1 value pushed */
8
MDRP[11100]	/* MoveDirectRelPt */
PUSHW[ ]	/* 1 value pushed */
2
MDRP[10000]	/* MoveDirectRelPt */
PUSHW[ ]	/* 1 value pushed */
2
MDAP[1]	/* MoveDirectAbsPt */
PUSHW[ ]	/* 1 value pushed */
8
SRP0[ ]	/* SetRefPoint0 */
PUSHW[ ]	/* 1 value pushed */
5
MDRP[10000]	/* MoveDirectRelPt */
PUSHW[ ]	/* 1 value pushed */
5
MDAP[1]	/* MoveDirectAbsPt */
PUSHW[ ]	/* 1 value pushed */
42
SRP0[ ]	/* SetRefPoint0 */
PUSHW[ ]	/* 1 value pushed */
16
MDRP[10000]	/* MoveDirectRelPt */
PUSHW[ ]	/* 1 value pushed */
16
MDAP[1]	/* MoveDirectAbsPt */
PUSHW[ ]	/* 1 value pushed */
19
MDRP[10000]	/* MoveDirectRelPt */
PUSHW[ ]	/* 1 value pushed */
19
MDAP[1]	/* MoveDirectAbsPt */
PUSHW[ ]	/* 1 value pushed */
16
SRP0[ ]	/* SetRefPoint0 */
PUSHW[ ]	/* 1 value pushed */
22
MDRP[10000]	/* MoveDirectRelPt */
PUSHW[ ]	/* 1 value pushed */
16
SRP0[ ]	/* SetRefPoint0 */
PUSHW[ ]	/* 1 value pushed */
30
MDRP[11100]	/* MoveDirectRelPt */
NPUSHW[ ]	/* 21 values pushed */
102 30 118 30 134 30 150 30 166 30 182 30 198 30 214 30 230 30 246 30 10
DELTAP1[ ]	/* DeltaExceptionP1 */
NPUSHW[ ]	/* 7 values pushed */
6 30 22 30 38 30 3
DELTAP2[ ]	/* DeltaExceptionP2 */
NPUSHW[ ]	/* 5 values pushed */
53 30 69 30 2
DELTAP2[ ]	/* DeltaExceptionP2 */
PUSHW[ ]	/* 1 value pushed */
27
MDRP[10000]	/* MoveDirectRelPt */
PUSHW[ ]	/* 1 value pushed */
27
MDAP[1]	/* MoveDirectAbsPt */
PUSHW[ ]	/* 1 value pushed */
36
SRP0[ ]	/* SetRefPoint0 */
PUSHW[ ]	/* 1 value pushed */
38
MDRP[10000]	/* MoveDirectRelPt */
PUSHW[ ]	/* 1 value pushed */
38
MDAP[1]	/* MoveDirectAbsPt */
PUSHW[ ]	/* 1 value pushed */
8
SRP0[ ]	/* SetRefPoint0 */
PUSHW[ ]	/* 1 value pushed */
43
MDRP[11100]	/* MoveDirectRelPt */
SVTCA[0]	/* SetFreedomAndProjectionVectorToAxis */
PUSHW[ ]	/* 1 value pushed */
0
MDAP[1]	/* MoveDirectAbsPt */
PUSHW[ ]	/* 1 value pushed */
24
MDAP[1]	/* MoveDirectAbsPt */
PUSHW[ ]	/* 1 value pushed */
0
RCVT[ ]	/* ReadCVT */
IF[ ]	/* If */
PUSHW[ ]	/* 1 value pushed */
12
MDAP[1]	/* MoveDirectAbsPt */
ELSE[ ]	/* Else */
PUSHW[ ]	/* 2 values pushed */
12 1
MIAP[0]	/* MoveIndirectAbsPt */
EIF[ ]	/* EndIf */
PUSHW[ ]	/* 1 value pushed */
32
MDRP[11100]	/* MoveDirectRelPt */
NPUSHW[ ]	/* 21 values pushed */
103 32 119 32 135 32 151 32 167 32 183 32 199 32 215 32 231 32 247 32 10
DELTAP1[ ]	/* DeltaExceptionP1 */
NPUSHW[ ]	/* 7 values pushed */
7 32 23 32 39 32 3
DELTAP2[ ]	/* DeltaExceptionP2 */
NPUSHW[ ]	/* 5 values pushed */
54 32 70 32 2
DELTAP2[ ]	/* DeltaExceptionP2 */
IUP[0]	/* InterpolateUntPts */
IUP[1]	/* InterpolateUntPts */";
};
width = 635;
}
);
note = U;
unicode = 85;
},
{
glyphname = V;
layers = (
{
layerId = m01;
shapes = (
{
closed = 1;
nodes = (
(483,580,o),
(411,375,qs),
(360,232,o),
(307,77,o),
(302,63,q),
(291,98,o),
(234,254,o),
(188,376,qs),
(150,480,o),
(107,602,o),
(102,621,q),
(24,621,l),
(40,586,o),
(108,412,o),
(162,269,qs),
(207,151,o),
(257,17,o),
(263,-2,q),
(338,-2,l),
(535,546,o),
(578,621,q),
(492,621,l)
);
}
);
userData = {
assembly = "SVTCA[0]	/* SetFreedomAndProjectionVectorToAxis */
PUSHW[ ]	/* 1 value pushed */
0
MDAP[1]	/* MoveDirectAbsPt */
PUSHW[ ]	/* 1 value pushed */
9
MDAP[1]	/* MoveDirectAbsPt */
PUSHW[ ]	/* 1 value pushed */
0
RCVT[ ]	/* ReadCVT */
IF[ ]	/* If */
PUSHW[ ]	/* 1 value pushed */
2
MDAP[1]	/* MoveDirectAbsPt */
ELSE[ ]	/* Else */
PUSHW[ ]	/* 2 values pushed */
2 1
MIAP[0]	/* MoveIndirectAbsPt */
EIF[ ]	/* EndIf */
PUSHW[ ]	/* 3 values pushed */
16 2 0
SRP1[ ]	/* SetRefPoint1 */
SRP2[ ]	/* SetRefPoint2 */
IP[ ]	/* InterpolatePts */
IUP[0]	/* InterpolateUntPts */
IUP[1]	/* InterpolateUntPts */";
};
width = 594;
}
);
note = V;
unicode = 86;
},
{
glyphname = W;
layers = (
{
layerId = m01;
shapes = (
{
closed = 1;
nodes = (
(830,549,o),
(750,271,o),
(687,66,q),
(547,532,o),
(522,624,q),
(442,624,l),
(352,298,o),
(277,66,q),
(213,270,o),
(129,548,o),
(107,624,q),
(29,624,l),
(92,439,o),
(195,129,o),
(238,1,q),
(313,1,l),
(368,171,o),
(452,425,o),
(481,513,q),
(539,336,o),
(622,82,o),
(648,1,q),
(723,1,l),
(816,281,o),
(920,590,o),
(933,624,q),
(847,624,l)
);
}
);
userData = {
assembly = "SVTCA[0]	/* SetFreedomAndProjectionVectorToAxis */
PUSHW[ ]	/* 1 value pushed */
0
RCVT[ ]	/* ReadCVT */
IF[ ]	/* If */
PUSHW[ ]	/* 1 value pushed */
0
MDAP[1]	/* MoveDirectAbsPt */
ELSE[ ]	/* Else */
PUSHW[ ]	/* 2 values pushed */
0 7
MIAP[0]	/* MoveIndirectAbsPt */
EIF[ ]	/* EndIf */
PUSHW[ ]	/* 1 value pushed */
0
RCVT[ ]	/* ReadCVT */
IF[ ]	/* If */
PUSHW[ ]	/* 1 value pushed */
14
MDAP[1]	/* MoveDirectAbsPt */
ELSE[ ]	/* Else */
PUSHW[ ]	/* 2 values pushed */
14 7
MIAP[0]	/* MoveIndirectAbsPt */
EIF[ ]	/* EndIf */
PUSHW[ ]	/* 1 value pushed */
0
RCVT[ ]	/* ReadCVT */
IF[ ]	/* If */
PUSHW[ ]	/* 1 value pushed */
20
MDAP[1]	/* MoveDirectAbsPt */
ELSE[ ]	/* Else */
PUSHW[ ]	/* 2 values pushed */
20 7
MIAP[0]	/* MoveIndirectAbsPt */
EIF[ ]	/* EndIf */
PUSHW[ ]	/* 1 value pushed */
0
RCVT[ ]	/* ReadCVT */
IF[ ]	/* If */
PUSHW[ ]	/* 1 value pushed */
3
MDAP[1]	/* MoveDirectAbsPt */
ELSE[ ]	/* Else */
PUSHW[ ]	/* 2 values pushed */
3 1
MIAP[0]	/* MoveIndirectAbsPt */
EIF[ ]	/* EndIf */
PUSHW[ ]	/* 1 value pushed */
0
RCVT[ ]	/* ReadCVT */
IF[ ]	/* If */
PUSHW[ ]	/* 1 value pushed */
10
MDAP[1]	/* MoveDirectAbsPt */
ELSE[ ]	/* Else */
PUSHW[ ]	/* 2 values pushed */
10 1
MIAP[0]	/* MoveIndirectAbsPt */
EIF[ ]	/* EndIf */
PUSHW[ ]	/* 3 values pushed */
7 3 0
SRP1[ ]	/* SetRefPoint1 */
SRP2[ ]	/* SetRefPoint2 */
IP[ ]	/* InterpolatePts */
PUSHW[ ]	/* 3 values pushed */
18 3 0
SRP1[ ]	/* SetRefPoint1 */
SRP2[ ]	/* SetRefPoint2 */
IP[ ]	/* InterpolatePts */
PUSHW[ ]	/* 3 values pushed */
23 3 0
SRP1[ ]	/* SetRefPoint1 */
SRP2[ ]	/* SetRefPoint2 */
IP[ ]	/* InterpolatePts */
IUP[0]	/* InterpolateUntPts */
IUP[1]	/* InterpolateUntPts */";
};
width = 950;
}
);
note = W;
unicode = 87;
},
{
glyphname = X;
layers = (
{
layerId = m01;
shapes = (
{
closed = 1;
nodes = (
(501,178,qs),
(474,211,o),
(410,288,o),
(372,333,q),
(465,451,o),
(580,596,o),
(603,623,q),
(500,623,l),
(479,569,o),
(450,530,qs),
(332,377,l),
(213,533,l),
(164,605,o),
(157,623,q),
(44,623,l),
(57,614,o),
(126,537,o),
(183,468,qs),
(206,439,o),
(260,372,o),
(291,334,q),
(24,34,o),
(8,0,q),
(114,0,l),
(136,58,o),
(169,97,qs),
(328,292,l),
(477,97,l),
(497,65,o),
(522,16,o),
(529,0,q),
(633,0,l),
(630,19,o)
);
}
);
userData = {
assembly = "SVTCA[0]	/* SetFreedomAndProjectionVectorToAxis */
PUSHW[ ]	/* 1 value pushed */
17
MDAP[1]	/* MoveDirectAbsPt */
PUSHW[ ]	/* 1 value pushed */
24
MDAP[1]	/* MoveDirectAbsPt */
PUSHW[ ]	/* 1 value pushed */
0
RCVT[ ]	/* ReadCVT */
IF[ ]	/* If */
PUSHW[ ]	/* 1 value pushed */
0
MDAP[1]	/* MoveDirectAbsPt */
ELSE[ ]	/* Else */
PUSHW[ ]	/* 2 values pushed */
0 1
MIAP[0]	/* MoveIndirectAbsPt */
EIF[ ]	/* EndIf */
PUSHW[ ]	/* 1 value pushed */
0
RCVT[ ]	/* ReadCVT */
IF[ ]	/* If */
PUSHW[ ]	/* 1 value pushed */
8
MDAP[1]	/* MoveDirectAbsPt */
ELSE[ ]	/* Else */
PUSHW[ ]	/* 2 values pushed */
8 1
MIAP[0]	/* MoveIndirectAbsPt */
EIF[ ]	/* EndIf */
PUSHW[ ]	/* 3 values pushed */
21 0 17
SRP1[ ]	/* SetRefPoint1 */
SRP2[ ]	/* SetRefPoint2 */
IP[ ]	/* InterpolatePts */
IUP[0]	/* InterpolateUntPts */
IUP[1]	/* InterpolateUntPts */";
};
width = 640;
}
);
note = X;
unicode = 88;
},
{
glyphname = Y;
layers = (
{
layerId = m01;
shapes = (
{
closed = 1;
nodes = (
(414,597,o),
(381,543,qs),
(272,367,l),
(161,544,ls),
(128,596,o),
(130,623,q),
(14,623,l),
(27,614,o),
(81,544,o),
(123,481,qs),
(151,438,o),
(207,353,o),
(235,310,q),
(235,127,ls),
(234,38,o),
(223,0,q),
(311,0,l),
(303,35,o),
(301,128,qs),
(300,174,o),
(300,264,o),
(299,310,q),
(324,348,o),
(374,424,o),
(399,462,qs),
(442,525,o),
(500,605,o),
(517,623,q),
(416,623,l)
);
}
);
userData = {
assembly = "PUSHW[ ]	/* 3 values pushed */
9 14 3
CALL[ ]	/* CallFunction */
PUSHW[ ]	/* 1 value pushed */
9
SRP0[ ]	/* SetRefPoint0 */
PUSHW[ ]	/* 1 value pushed */
6
MDRP[10000]	/* MoveDirectRelPt */
PUSHW[ ]	/* 1 value pushed */
6
MDAP[1]	/* MoveDirectAbsPt */
PUSHW[ ]	/* 3 values pushed */
25 14 9
SRP1[ ]	/* SetRefPoint1 */
SRP2[ ]	/* SetRefPoint2 */
IP[ ]	/* InterpolatePts */
SVTCA[0]	/* SetFreedomAndProjectionVectorToAxis */
PUSHW[ ]	/* 1 value pushed */
0
MDAP[1]	/* MoveDirectAbsPt */
PUSHW[ ]	/* 1 value pushed */
21
MDAP[1]	/* MoveDirectAbsPt */
PUSHW[ ]	/* 1 value pushed */
0
RCVT[ ]	/* ReadCVT */
IF[ ]	/* If */
PUSHW[ ]	/* 1 value pushed */
11
MDAP[1]	/* MoveDirectAbsPt */
ELSE[ ]	/* Else */
PUSHW[ ]	/* 2 values pushed */
11 1
MIAP[0]	/* MoveIndirectAbsPt */
EIF[ ]	/* EndIf */
PUSHW[ ]	/* 3 values pushed */
25 11 0
SRP1[ ]	/* SetRefPoint1 */
SRP2[ ]	/* SetRefPoint2 */
IP[ ]	/* InterpolatePts */
IUP[0]	/* InterpolateUntPts */
IUP[1]	/* InterpolateUntPts */";
};
width = 525;
}
);
note = Y;
unicode = 89;
},
{
glyphname = Z;
layers = (
{
layerId = m01;
shapes = (
{
closed = 1;
nodes = (
(338,618,o),
(291,619,qs),
(251,618,o),
(148,621,o),
(84,624,q),
(88,588,o),
(84,527,q),
(135,527,l),
(137,545,o),
(142,552,qs),
(148,559,o),
(206,559,qs),
(434,559,l),
(62,31,l),
(62,-6,l),
(147,-4,o),
(275,-3,o),
(320,-4,qs),
(400,-2,o),
(541,-10,q),
(536,31,o),
(541,100,q),
(490,100,l),
(490,80,o),
(482,70,qs),
(473,57,o),
(419,57,qs),
(156,57,l),
(554,621,l),
(469,619,o)
);
}
);
userData = {
assembly = "SVTCA[0]	/* SetFreedomAndProjectionVectorToAxis */
PUSHW[ ]	/* 1 value pushed */
0
RCVT[ ]	/* ReadCVT */
IF[ ]	/* If */
PUSHW[ ]	/* 1 value pushed */
0
MDAP[1]	/* MoveDirectAbsPt */
ELSE[ ]	/* Else */
PUSHW[ ]	/* 2 values pushed */
0 7
MIAP[0]	/* MoveIndirectAbsPt */
EIF[ ]	/* EndIf */
PUSHW[ ]	/* 1 value pushed */
0
RCVT[ ]	/* ReadCVT */
IF[ ]	/* If */
PUSHW[ ]	/* 1 value pushed */
24
MDAP[1]	/* MoveDirectAbsPt */
ELSE[ ]	/* Else */
PUSHW[ ]	/* 2 values pushed */
24 7
MIAP[0]	/* MoveIndirectAbsPt */
EIF[ ]	/* EndIf */
PUSHW[ ]	/* 1 value pushed */
0
RCVT[ ]	/* ReadCVT */
IF[ ]	/* If */
PUSHW[ ]	/* 1 value pushed */
27
MDAP[1]	/* MoveDirectAbsPt */
ELSE[ ]	/* Else */
PUSHW[ ]	/* 2 values pushed */
27 7
MIAP[0]	/* MoveIndirectAbsPt */
EIF[ ]	/* EndIf */
PUSHW[ ]	/* 1 value pushed */
0
RCVT[ ]	/* ReadCVT */
IF[ ]	/* If */
PUSHW[ ]	/* 1 value pushed */
9
MDAP[1]	/* MoveDirectAbsPt */
ELSE[ ]	/* Else */
PUSHW[ ]	/* 2 values pushed */
9 1
MIAP[0]	/* MoveIndirectAbsPt */
EIF[ ]	/* EndIf */
PUSHW[ ]	/* 1 value pushed */
0
RCVT[ ]	/* ReadCVT */
IF[ ]	/* If */
PUSHW[ ]	/* 1 value pushed */
11
MDAP[1]	/* MoveDirectAbsPt */
ELSE[ ]	/* Else */
PUSHW[ ]	/* 2 values pushed */
11 1
MIAP[0]	/* MoveIndirectAbsPt */
EIF[ ]	/* EndIf */
PUSHW[ ]	/* 1 value pushed */
0
RCVT[ ]	/* ReadCVT */
IF[ ]	/* If */
PUSHW[ ]	/* 1 value pushed */
14
MDAP[1]	/* MoveDirectAbsPt */
ELSE[ ]	/* Else */
PUSHW[ ]	/* 2 values pushed */
14 1
MIAP[0]	/* MoveIndirectAbsPt */
EIF[ ]	/* EndIf */
PUSHW[ ]	/* 1 value pushed */
1
MDRP[11100]	/* MoveDirectRelPt */
PUSHW[ ]	/* 1 value pushed */
2
MDRP[10000]	/* MoveDirectRelPt */
PUSHW[ ]	/* 1 value pushed */
0
SRP0[ ]	/* SetRefPoint0 */
PUSHW[ ]	/* 1 value pushed */
16
MDRP[11100]	/* MoveDirectRelPt */
IUP[0]	/* InterpolateUntPts */
IUP[1]	/* InterpolateUntPts */";
};
width = 585;
}
);
note = Z;
unicode = 90;
},
{
glyphname = bracketleft;
layers = (
{
layerId = m01;
shapes = (
{
closed = 1;
nodes = (
(145,-173,l),
(145,607,l),
(319,607,l),
(320,652,l),
(88,652,l),
(88,-227,l),
(320,-227,l),
(320,-173,l)
);
}
);
userData = {
assembly = "PUSHW[ ]	/* 3 values pushed */
6 1 3
CALL[ ]	/* CallFunction */
PUSHW[ ]	/* 1 value pushed */
1
SRP0[ ]	/* SetRefPoint0 */
PUSHW[ ]	/* 1 value pushed */
0
MDRP[11100]	/* MoveDirectRelPt */
PUSHW[ ]	/* 1 value pushed */
3
MDRP[10000]	/* MoveDirectRelPt */
SVTCA[0]	/* SetFreedomAndProjectionVectorToAxis */
PUSHW[ ]	/* 3 values pushed */
7 0 3
CALL[ ]	/* CallFunction */
PUSHW[ ]	/* 3 values pushed */
3 4 3
CALL[ ]	/* CallFunction */
IUP[0]	/* InterpolateUntPts */
IUP[1]	/* InterpolateUntPts */";
};
width = 356;
}
);
note = bracketleft;
unicode = 91;
},
{
glyphname = backslash;
layers = (
{
layerId = m01;
shapes = (
{
closed = 1;
nodes = (
(244,-88,l),
(308,-88,l),
(72,647,l),
(6,647,l)
);
}
);
userData = {
assembly = "SVTCA[0]	/* SetFreedomAndProjectionVectorToAxis */
PUSHW[ ]	/* 1 value pushed */
0
MDAP[1]	/* MoveDirectAbsPt */
PUSHW[ ]	/* 1 value pushed */
1
MDAP[1]	/* MoveDirectAbsPt */
IUP[0]	/* InterpolateUntPts */
IUP[1]	/* InterpolateUntPts */";
};
width = 323;
}
);
note = backslash;
unicode = 92;
},
{
glyphname = bracketright;
layers = (
{
layerId = m01;
shapes = (
{
closed = 1;
nodes = (
(34,652,l),
(34,606,l),
(210,606,l),
(210,-175,l),
(34,-175,l),
(34,-227,l),
(266,-227,l),
(266,652,l)
);
}
);
userData = {
assembly = "PUSHW[ ]	/* 3 values pushed */
0 1 3
CALL[ ]	/* CallFunction */
PUSHW[ ]	/* 1 value pushed */
0
SRP0[ ]	/* SetRefPoint0 */
PUSHW[ ]	/* 1 value pushed */
3
MDRP[11100]	/* MoveDirectRelPt */
PUSHW[ ]	/* 1 value pushed */
1
SRP0[ ]	/* SetRefPoint0 */
PUSHW[ ]	/* 1 value pushed */
5
MDRP[10000]	/* MoveDirectRelPt */
SVTCA[0]	/* SetFreedomAndProjectionVectorToAxis */
PUSHW[ ]	/* 3 values pushed */
3 0 3
CALL[ ]	/* CallFunction */
PUSHW[ ]	/* 3 values pushed */
7 4 3
CALL[ ]	/* CallFunction */
IUP[0]	/* InterpolateUntPts */
IUP[1]	/* InterpolateUntPts */";
};
width = 385;
}
);
note = bracketright;
unicode = 93;
},
{
glyphname = asciicircum;
layers = (
{
layerId = m01;
shapes = (
{
closed = 1;
nodes = (
(226,626,l),
(49,244,l),
(112,244,l),
(250,555,l),
(388,244,l),
(450,244,l),
(274,626,l)
);
}
);
userData = {
assembly = "SVTCA[0]	/* SetFreedomAndProjectionVectorToAxis */
PUSHW[ ]	/* 1 value pushed */
0
MDAP[1]	/* MoveDirectAbsPt */
PUSHW[ ]	/* 1 value pushed */
3
MDAP[1]	/* MoveDirectAbsPt */
PUSHW[ ]	/* 1 value pushed */
0
RCVT[ ]	/* ReadCVT */
IF[ ]	/* If */
PUSHW[ ]	/* 1 value pushed */
5
MDAP[1]	/* MoveDirectAbsPt */
ELSE[ ]	/* Else */
PUSHW[ ]	/* 2 values pushed */
5 7
MIAP[0]	/* MoveIndirectAbsPt */
EIF[ ]	/* EndIf */
PUSHW[ ]	/* 3 values pushed */
2 0 5
SRP1[ ]	/* SetRefPoint1 */
SRP2[ ]	/* SetRefPoint2 */
IP[ ]	/* InterpolatePts */
IUP[0]	/* InterpolateUntPts */
IUP[1]	/* InterpolateUntPts */";
};
width = 500;
}
);
note = asciicircum;
unicode = 94;
},
{
glyphname = underscore;
layers = (
{
layerId = m01;
shapes = (
{
closed = 1;
nodes = (
(0,-73,l),
(0,-121,l),
(485,-121,l),
(485,-73,l)
);
}
);
userData = {
assembly = "SVTCA[0]	/* SetFreedomAndProjectionVectorToAxis */
PUSHW[ ]	/* 3 values pushed */
3 0 3
CALL[ ]	/* CallFunction */
IUP[0]	/* InterpolateUntPts */
IUP[1]	/* InterpolateUntPts */";
};
width = 485;
}
);
note = underscore;
unicode = 95;
},
{
glyphname = grave;
layers = (
{
layerId = m01;
shapes = (
{
closed = 1;
nodes = (
(166,610,l),
(227,443,l),
(278,459,l),
(234,633,l)
);
}
);
userData = {
assembly = "SVTCA[0]	/* SetFreedomAndProjectionVectorToAxis */
PUSHW[ ]	/* 1 value pushed */
1
MDAP[1]	/* MoveDirectAbsPt */
PUSHW[ ]	/* 1 value pushed */
0
RCVT[ ]	/* ReadCVT */
IF[ ]	/* If */
PUSHW[ ]	/* 1 value pushed */
3
MDAP[1]	/* MoveDirectAbsPt */
ELSE[ ]	/* Else */
PUSHW[ ]	/* 2 values pushed */
3 7
MIAP[0]	/* MoveIndirectAbsPt */
EIF[ ]	/* EndIf */
IUP[0]	/* InterpolateUntPts */
IUP[1]	/* InterpolateUntPts */";
};
width = 540;
}
);
note = grave;
unicode = 96;
},
{
glyphname = a;
layers = (
{
layerId = m01;
shapes = (
{
closed = 1;
nodes = (
(235,232,o),
(179,223,o),
(159,221,qs),
(106,213,o),
(74,183,qs),
(40,150,o),
(40,100,qs),
(40,77,o),
(56,37,o),
(86,7,o),
(126,-10,o),
(150,-10,qs),
(229,-8,o),
(275,40,q),
(287,-9,o),
(339,-9,qs),
(364,-9,o),
(397,26,q),
(397,80,l),
(356,50,o),
(350,50,qs),
(333,50,o),
(333,73,qs),
(333,279,ls),
(333,342,o),
(292,374,qs),
(257,401,o),
(200,400,qs),
(111,398,o),
(59,337,q),
(59,277,l),
(69,291,o),
(102,317,o),
(139,337,o),
(180,350,o),
(198,351,qs),
(271,355,o),
(272,288,qs),
(272,238,l)
);
},
{
closed = 1;
nodes = (
(220,58,qs),
(182,43,o),
(161,43,qs),
(133,43,o),
(98,80,o),
(98,108,qs),
(98,131,o),
(141,167,o),
(174,172,qs),
(209,177,o),
(260,184,o),
(275,186,q),
(275,90,l),
(259,75,o)
);
}
);
userData = {
assembly = "PUSHW[ ]	/* 1 value pushed */
53
MDAP[1]	/* MoveDirectAbsPt */
PUSHW[ ]	/* 1 value pushed */
39
MDAP[1]	/* MoveDirectAbsPt */
PUSHW[ ]	/* 1 value pushed */
0
MDRP[10000]	/* MoveDirectRelPt */
PUSHW[ ]	/* 1 value pushed */
0
MDAP[1]	/* MoveDirectAbsPt */
PUSHW[ ]	/* 1 value pushed */
53
SRP0[ ]	/* SetRefPoint0 */
PUSHW[ ]	/* 1 value pushed */
31
MDRP[10000]	/* MoveDirectRelPt */
PUSHW[ ]	/* 1 value pushed */
31
MDAP[1]	/* MoveDirectAbsPt */
PUSHW[ ]	/* 1 value pushed */
46
MDRP[11100]	/* MoveDirectRelPt */
NPUSHW[ ]	/* 21 values pushed */
102 46 118 46 134 46 150 46 166 46 182 46 198 46 214 46 230 46 246 46 10
DELTAP1[ ]	/* DeltaExceptionP1 */
NPUSHW[ ]	/* 7 values pushed */
6 46 22 46 38 46 3
DELTAP2[ ]	/* DeltaExceptionP2 */
NPUSHW[ ]	/* 5 values pushed */
53 46 69 46 2
DELTAP2[ ]	/* DeltaExceptionP2 */
PUSHW[ ]	/* 3 values pushed */
7 31 46
SRP1[ ]	/* SetRefPoint1 */
SRP2[ ]	/* SetRefPoint2 */
IP[ ]	/* InterpolatePts */
PUSHW[ ]	/* 1 value pushed */
39
SRP0[ ]	/* SetRefPoint0 */
PUSHW[ ]	/* 1 value pushed */
15
MDRP[11100]	/* MoveDirectRelPt */
PUSHW[ ]	/* 1 value pushed */
22
MDRP[10000]	/* MoveDirectRelPt */
PUSHW[ ]	/* 1 value pushed */
22
MDAP[1]	/* MoveDirectAbsPt */
PUSHW[ ]	/* 1 value pushed */
39
SRP0[ ]	/* SetRefPoint0 */
PUSHW[ ]	/* 1 value pushed */
24
MDRP[10000]	/* MoveDirectRelPt */
PUSHW[ ]	/* 1 value pushed */
15
SRP0[ ]	/* SetRefPoint0 */
PUSHW[ ]	/* 1 value pushed */
54
MDRP[11100]	/* MoveDirectRelPt */
SVTCA[0]	/* SetFreedomAndProjectionVectorToAxis */
PUSHW[ ]	/* 1 value pushed */
0
RCVT[ ]	/* ReadCVT */
IF[ ]	/* If */
PUSHW[ ]	/* 1 value pushed */
22
MDAP[1]	/* MoveDirectAbsPt */
ELSE[ ]	/* Else */
PUSHW[ ]	/* 2 values pushed */
22 1
MIAP[0]	/* MoveIndirectAbsPt */
EIF[ ]	/* EndIf */
PUSHW[ ]	/* 1 value pushed */
0
RCVT[ ]	/* ReadCVT */
IF[ ]	/* If */
PUSHW[ ]	/* 1 value pushed */
26
MDAP[1]	/* MoveDirectAbsPt */
ELSE[ ]	/* Else */
PUSHW[ ]	/* 2 values pushed */
26 1
MIAP[0]	/* MoveIndirectAbsPt */
EIF[ ]	/* EndIf */
PUSHW[ ]	/* 3 values pushed */
10 2 3
CALL[ ]	/* CallFunction */
PUSHW[ ]	/* 1 value pushed */
22
SRP0[ ]	/* SetRefPoint0 */
PUSHW[ ]	/* 1 value pushed */
17
MDRP[11100]	/* MoveDirectRelPt */
NPUSHW[ ]	/* 21 values pushed */
103 17 119 17 135 17 151 17 167 17 183 17 199 17 215 17 231 17 247 17 10
DELTAP1[ ]	/* DeltaExceptionP1 */
NPUSHW[ ]	/* 7 values pushed */
7 17 23 17 39 17 3
DELTAP2[ ]	/* DeltaExceptionP2 */
NPUSHW[ ]	/* 5 values pushed */
54 17 70 17 2
DELTAP2[ ]	/* DeltaExceptionP2 */
PUSHW[ ]	/* 3 values pushed */
24 22 17
SRP1[ ]	/* SetRefPoint1 */
SRP2[ ]	/* SetRefPoint2 */
IP[ ]	/* InterpolatePts */
PUSHW[ ]	/* 1 value pushed */
49
MDRP[10000]	/* MoveDirectRelPt */
IUP[0]	/* InterpolateUntPts */
IUP[1]	/* InterpolateUntPts */";
};
width = 427;
}
);
note = a;
unicode = 97;
},
{
glyphname = b;
layers = (
{
layerId = m01;
shapes = (
{
closed = 1;
nodes = (
(359,339,qs),
(304,394,o),
(213,394,qs),
(141,394,o),
(105,349,q),
(105,388,ls),
(105,461,o),
(108,566,o),
(110,600,q),
(42,600,l),
(49,544,o),
(48,387,qs),
(48,316,ls),
(48,315,o),
(48,254,o),
(47,194,qs),
(46,134,o),
(46,74,o),
(46,73,qs),
(45,48,o),
(44,11,o),
(44,0,q),
(109,0,l),
(105,35,l),
(135,-8,o),
(213,-8,qs),
(297,-8,o),
(356,48,qs),
(414,103,o),
(414,194,qs),
(414,284,o)
);
},
{
closed = 1;
nodes = (
(275,47,o),
(215,47,qs),
(137,47,o),
(107,95,q),
(105,164,o),
(104,262,o),
(105,293,q),
(147,341,o),
(215,341,qs),
(246,341,o),
(297,319,o),
(334,279,o),
(353,225,o),
(353,194,qs),
(352,127,o)
);
}
);
userData = {
assembly = "PUSHW[ ]	/* 1 value pushed */
46
MDAP[1]	/* MoveDirectAbsPt */
PUSHW[ ]	/* 1 value pushed */
31
MDAP[1]	/* MoveDirectAbsPt */
NPUSHW[ ]	/* 5 values pushed */
58 31 74 31 2
DELTAP2[ ]	/* DeltaExceptionP2 */
NPUSHW[ ]	/* 21 values pushed */
105 31 121 31 137 31 153 31 169 31 185 31 201 31 217 31 233 31 249 31 10
DELTAP1[ ]	/* DeltaExceptionP1 */
NPUSHW[ ]	/* 7 values pushed */
9 31 25 31 41 31 3
DELTAP2[ ]	/* DeltaExceptionP2 */
PUSHW[ ]	/* 1 value pushed */
0
MDRP[11100]	/* MoveDirectRelPt */
PUSHW[ ]	/* 1 value pushed */
31
SRP0[ ]	/* SetRefPoint0 */
PUSHW[ ]	/* 1 value pushed */
2
MDRP[10000]	/* MoveDirectRelPt */
PUSHW[ ]	/* 1 value pushed */
2
MDAP[1]	/* MoveDirectAbsPt */
PUSHW[ ]	/* 1 value pushed */
46
SRP0[ ]	/* SetRefPoint0 */
PUSHW[ ]	/* 1 value pushed */
17
MDRP[10000]	/* MoveDirectRelPt */
PUSHW[ ]	/* 1 value pushed */
17
MDAP[1]	/* MoveDirectAbsPt */
PUSHW[ ]	/* 1 value pushed */
41
MDRP[11100]	/* MoveDirectRelPt */
PUSHW[ ]	/* 1 value pushed */
6
MDRP[10000]	/* MoveDirectRelPt */
PUSHW[ ]	/* 1 value pushed */
6
MDAP[1]	/* MoveDirectAbsPt */
PUSHW[ ]	/* 1 value pushed */
17
SRP0[ ]	/* SetRefPoint0 */
PUSHW[ ]	/* 1 value pushed */
8
MDRP[10000]	/* MoveDirectRelPt */
PUSHW[ ]	/* 1 value pushed */
8
MDAP[1]	/* MoveDirectAbsPt */
PUSHW[ ]	/* 1 value pushed */
17
SRP0[ ]	/* SetRefPoint0 */
PUSHW[ ]	/* 1 value pushed */
11
MDRP[10000]	/* MoveDirectRelPt */
PUSHW[ ]	/* 1 value pushed */
11
MDAP[1]	/* MoveDirectAbsPt */
PUSHW[ ]	/* 1 value pushed */
17
SRP0[ ]	/* SetRefPoint0 */
PUSHW[ ]	/* 1 value pushed */
14
MDRP[10000]	/* MoveDirectRelPt */
PUSHW[ ]	/* 1 value pushed */
14
MDAP[1]	/* MoveDirectAbsPt */
PUSHW[ ]	/* 1 value pushed */
17
SRP0[ ]	/* SetRefPoint0 */
PUSHW[ ]	/* 1 value pushed */
20
MDRP[10000]	/* MoveDirectRelPt */
PUSHW[ ]	/* 1 value pushed */
20
MDAP[1]	/* MoveDirectAbsPt */
PUSHW[ ]	/* 1 value pushed */
41
SRP0[ ]	/* SetRefPoint0 */
PUSHW[ ]	/* 1 value pushed */
21
MDRP[10000]	/* MoveDirectRelPt */
PUSHW[ ]	/* 1 value pushed */
21
MDAP[1]	/* MoveDirectAbsPt */
PUSHW[ ]	/* 1 value pushed */
41
SRP0[ ]	/* SetRefPoint0 */
PUSHW[ ]	/* 1 value pushed */
24
MDRP[10000]	/* MoveDirectRelPt */
PUSHW[ ]	/* 1 value pushed */
24
MDAP[1]	/* MoveDirectAbsPt */
PUSHW[ ]	/* 3 values pushed */
25 17 41
SRP1[ ]	/* SetRefPoint1 */
SRP2[ ]	/* SetRefPoint2 */
IP[ ]	/* InterpolatePts */
PUSHW[ ]	/* 1 value pushed */
31
SRP0[ ]	/* SetRefPoint0 */
PUSHW[ ]	/* 1 value pushed */
29
MDRP[10000]	/* MoveDirectRelPt */
PUSHW[ ]	/* 1 value pushed */
29
MDAP[1]	/* MoveDirectAbsPt */
PUSHW[ ]	/* 1 value pushed */
41
SRP0[ ]	/* SetRefPoint0 */
PUSHW[ ]	/* 1 value pushed */
38
MDRP[10000]	/* MoveDirectRelPt */
PUSHW[ ]	/* 1 value pushed */
38
MDAP[1]	/* MoveDirectAbsPt */
PUSHW[ ]	/* 1 value pushed */
0
SRP0[ ]	/* SetRefPoint0 */
PUSHW[ ]	/* 1 value pushed */
47
MDRP[11100]	/* MoveDirectRelPt */
SVTCA[0]	/* SetFreedomAndProjectionVectorToAxis */
PUSHW[ ]	/* 1 value pushed */
20
MDAP[1]	/* MoveDirectAbsPt */
PUSHW[ ]	/* 1 value pushed */
0
RCVT[ ]	/* ReadCVT */
IF[ ]	/* If */
PUSHW[ ]	/* 1 value pushed */
7
MDAP[1]	/* MoveDirectAbsPt */
ELSE[ ]	/* Else */
PUSHW[ ]	/* 2 values pushed */
7 1
MIAP[0]	/* MoveIndirectAbsPt */
EIF[ ]	/* EndIf */
PUSHW[ ]	/* 1 value pushed */
0
RCVT[ ]	/* ReadCVT */
IF[ ]	/* If */
PUSHW[ ]	/* 1 value pushed */
4
MDAP[1]	/* MoveDirectAbsPt */
ELSE[ ]	/* Else */
PUSHW[ ]	/* 2 values pushed */
4 1
MIAP[0]	/* MoveIndirectAbsPt */
EIF[ ]	/* EndIf */
PUSHW[ ]	/* 3 values pushed */
27 36 3
CALL[ ]	/* CallFunction */
PUSHW[ ]	/* 1 value pushed */
4
SRP0[ ]	/* SetRefPoint0 */
PUSHW[ ]	/* 1 value pushed */
43
MDRP[11100]	/* MoveDirectRelPt */
NPUSHW[ ]	/* 21 values pushed */
103 43 119 43 135 43 151 43 167 43 183 43 199 43 215 43 231 43 247 43 10
DELTAP1[ ]	/* DeltaExceptionP1 */
NPUSHW[ ]	/* 7 values pushed */
7 43 23 43 39 43 3
DELTAP2[ ]	/* DeltaExceptionP2 */
NPUSHW[ ]	/* 5 values pushed */
54 43 70 43 2
DELTAP2[ ]	/* DeltaExceptionP2 */
PUSHW[ ]	/* 3 values pushed */
6 4 43
SRP1[ ]	/* SetRefPoint1 */
SRP2[ ]	/* SetRefPoint2 */
IP[ ]	/* InterpolatePts */
PUSHW[ ]	/* 3 values pushed */
25 36 27
SRP1[ ]	/* SetRefPoint1 */
SRP2[ ]	/* SetRefPoint2 */
IP[ ]	/* InterpolatePts */
IUP[0]	/* InterpolateUntPts */
IUP[1]	/* InterpolateUntPts */";
};
width = 431;
}
);
note = b;
unicode = 98;
},
{
glyphname = c;
layers = (
{
layerId = m01;
shapes = (
{
closed = 1;
nodes = (
(276,47,o),
(239,47,qs),
(177,48,o),
(136,90,qs),
(95,134,o),
(95,193,qs),
(97,299,o),
(177,330,qs),
(205,341,o),
(240,341,qs),
(273,341,o),
(315,330,q),
(324,383,l),
(267,399,o),
(210,393,qs),
(131,384,o),
(82,329,qs),
(35,274,o),
(33,196,qs),
(32,108,o),
(86,49,qs),
(144,-12,o),
(237,-8,qs),
(273,-7,o),
(300,1,qs),
(308,3,o),
(327,12,o),
(340,17,q),
(323,68,l)
);
}
);
userData = {
assembly = "PUSHW[ ]	/* 3 values pushed */
22 9 3
CALL[ ]	/* CallFunction */
NPUSHW[ ]	/* 21 values pushed */
102 22 118 22 134 22 150 22 166 22 182 22 198 22 214 22 230 22 246 22 10
DELTAP1[ ]	/* DeltaExceptionP1 */
NPUSHW[ ]	/* 7 values pushed */
6 22 22 22 38 22 3
DELTAP2[ ]	/* DeltaExceptionP2 */
NPUSHW[ ]	/* 5 values pushed */
53 22 69 22 2
DELTAP2[ ]	/* DeltaExceptionP2 */
SVTCA[0]	/* SetFreedomAndProjectionVectorToAxis */
PUSHW[ ]	/* 1 value pushed */
0
RCVT[ ]	/* ReadCVT */
IF[ ]	/* If */
PUSHW[ ]	/* 1 value pushed */
5
MDAP[1]	/* MoveDirectAbsPt */
ELSE[ ]	/* Else */
PUSHW[ ]	/* 2 values pushed */
5 1
MIAP[0]	/* MoveIndirectAbsPt */
EIF[ ]	/* EndIf */
PUSHW[ ]	/* 1 value pushed */
26
MDRP[11100]	/* MoveDirectRelPt */
NPUSHW[ ]	/* 21 values pushed */
103 26 119 26 135 26 151 26 167 26 183 26 199 26 215 26 231 26 247 26 10
DELTAP1[ ]	/* DeltaExceptionP1 */
NPUSHW[ ]	/* 7 values pushed */
7 26 23 26 39 26 3
DELTAP2[ ]	/* DeltaExceptionP2 */
NPUSHW[ ]	/* 5 values pushed */
54 26 70 26 2
DELTAP2[ ]	/* DeltaExceptionP2 */
IUP[0]	/* InterpolateUntPts */
IUP[1]	/* InterpolateUntPts */";
};
width = 368;
}
);
note = c;
unicode = 99;
},
{
glyphname = d;
layers = (
{
layerId = m01;
shapes = (
{
closed = 1;
nodes = (
(353,517,o),
(349,387,qs),
(348,347,l),
(319,394,o),
(237,394,qs),
(147,394,o),
(90,337,qs),
(34,281,o),
(33,196,qs),
(31,109,o),
(87,52,qs),
(145,-8,o),
(237,-8,qs),
(306,-8,o),
(347,42,q),
(345,0,l),
(410,0,l),
(410,-2,o),
(410,12,o),
(409,26,qs),
(409,84,ls),
(409,109,o),
(408,180,o),
(407,227,qs),
(406,267,o),
(406,327,o),
(406,349,qs),
(406,388,ls),
(406,461,o),
(409,566,o),
(411,600,q),
(343,600,l)
);
},
{
closed = 1;
nodes = (
(349,287,q),
(349,239,o),
(348,146,o),
(347,99,q),
(308,47,o),
(239,47,qs),
(178,47,o),
(135,90,qs),
(93,133,o),
(93,194,qs),
(93,256,o),
(134,299,qs),
(176,341,o),
(239,341,qs),
(308,341,o)
);
}
);
userData = {
assembly = "PUSHW[ ]	/* 1 value pushed */
47
MDAP[1]	/* MoveDirectAbsPt */
PUSHW[ ]	/* 1 value pushed */
45
MDAP[1]	/* MoveDirectAbsPt */
PUSHW[ ]	/* 1 value pushed */
10
MDRP[11100]	/* MoveDirectRelPt */
PUSHW[ ]	/* 1 value pushed */
0
MDRP[10000]	/* MoveDirectRelPt */
PUSHW[ ]	/* 1 value pushed */
0
MDAP[1]	/* MoveDirectAbsPt */
PUSHW[ ]	/* 1 value pushed */
10
SRP0[ ]	/* SetRefPoint0 */
PUSHW[ ]	/* 1 value pushed */
3
MDRP[10000]	/* MoveDirectRelPt */
PUSHW[ ]	/* 1 value pushed */
3
MDAP[1]	/* MoveDirectAbsPt */
PUSHW[ ]	/* 1 value pushed */
10
SRP0[ ]	/* SetRefPoint0 */
PUSHW[ ]	/* 1 value pushed */
7
MDRP[10000]	/* MoveDirectRelPt */
PUSHW[ ]	/* 1 value pushed */
7
MDAP[1]	/* MoveDirectAbsPt */
PUSHW[ ]	/* 1 value pushed */
10
SRP0[ ]	/* SetRefPoint0 */
PUSHW[ ]	/* 1 value pushed */
14
MDRP[10000]	/* MoveDirectRelPt */
PUSHW[ ]	/* 1 value pushed */
14
MDAP[1]	/* MoveDirectAbsPt */
PUSHW[ ]	/* 1 value pushed */
45
SRP0[ ]	/* SetRefPoint0 */
PUSHW[ ]	/* 1 value pushed */
15
MDRP[10000]	/* MoveDirectRelPt */
PUSHW[ ]	/* 1 value pushed */
15
MDAP[1]	/* MoveDirectAbsPt */
PUSHW[ ]	/* 1 value pushed */
47
SRP0[ ]	/* SetRefPoint0 */
PUSHW[ ]	/* 1 value pushed */
22
MDRP[10000]	/* MoveDirectRelPt */
PUSHW[ ]	/* 1 value pushed */
22
MDAP[1]	/* MoveDirectAbsPt */
PUSHW[ ]	/* 1 value pushed */
36
MDRP[11100]	/* MoveDirectRelPt */
NPUSHW[ ]	/* 21 values pushed */
102 36 118 36 134 36 150 36 166 36 182 36 198 36 214 36 230 36 246 36 10
DELTAP1[ ]	/* DeltaExceptionP1 */
NPUSHW[ ]	/* 7 values pushed */
6 36 22 36 38 36 3
DELTAP2[ ]	/* DeltaExceptionP2 */
NPUSHW[ ]	/* 5 values pushed */
53 36 69 36 2
DELTAP2[ ]	/* DeltaExceptionP2 */
PUSHW[ ]	/* 1 value pushed */
20
MDRP[10000]	/* MoveDirectRelPt */
PUSHW[ ]	/* 1 value pushed */
20
MDAP[1]	/* MoveDirectAbsPt */
PUSHW[ ]	/* 1 value pushed */
36
SRP0[ ]	/* SetRefPoint0 */
PUSHW[ ]	/* 1 value pushed */
24
MDRP[10000]	/* MoveDirectRelPt */
PUSHW[ ]	/* 1 value pushed */
24
MDAP[1]	/* MoveDirectAbsPt */
PUSHW[ ]	/* 1 value pushed */
45
SRP0[ ]	/* SetRefPoint0 */
PUSHW[ ]	/* 1 value pushed */
28
MDRP[10000]	/* MoveDirectRelPt */
PUSHW[ ]	/* 1 value pushed */
28
MDAP[1]	/* MoveDirectAbsPt */
PUSHW[ ]	/* 1 value pushed */
45
SRP0[ ]	/* SetRefPoint0 */
PUSHW[ ]	/* 1 value pushed */
31
MDRP[10000]	/* MoveDirectRelPt */
PUSHW[ ]	/* 1 value pushed */
31
MDAP[1]	/* MoveDirectAbsPt */
PUSHW[ ]	/* 1 value pushed */
45
SRP0[ ]	/* SetRefPoint0 */
PUSHW[ ]	/* 1 value pushed */
42
MDRP[10000]	/* MoveDirectRelPt */
PUSHW[ ]	/* 1 value pushed */
42
MDAP[1]	/* MoveDirectAbsPt */
PUSHW[ ]	/* 1 value pushed */
10
SRP0[ ]	/* SetRefPoint0 */
PUSHW[ ]	/* 1 value pushed */
48
MDRP[11100]	/* MoveDirectRelPt */
SVTCA[0]	/* SetFreedomAndProjectionVectorToAxis */
PUSHW[ ]	/* 1 value pushed */
0
MDAP[1]	/* MoveDirectAbsPt */
PUSHW[ ]	/* 1 value pushed */
0
RCVT[ ]	/* ReadCVT */
IF[ ]	/* If */
PUSHW[ ]	/* 1 value pushed */
14
MDAP[1]	/* MoveDirectAbsPt */
ELSE[ ]	/* Else */
PUSHW[ ]	/* 2 values pushed */
14 1
MIAP[0]	/* MoveIndirectAbsPt */
EIF[ ]	/* EndIf */
PUSHW[ ]	/* 1 value pushed */
0
RCVT[ ]	/* ReadCVT */
IF[ ]	/* If */
PUSHW[ ]	/* 1 value pushed */
18
MDAP[1]	/* MoveDirectAbsPt */
ELSE[ ]	/* Else */
PUSHW[ ]	/* 2 values pushed */
18 1
MIAP[0]	/* MoveIndirectAbsPt */
EIF[ ]	/* EndIf */
PUSHW[ ]	/* 3 values pushed */
26 32 3
CALL[ ]	/* CallFunction */
PUSHW[ ]	/* 1 value pushed */
18
SRP0[ ]	/* SetRefPoint0 */
PUSHW[ ]	/* 1 value pushed */
40
MDRP[11100]	/* MoveDirectRelPt */
NPUSHW[ ]	/* 21 values pushed */
103 40 119 40 135 40 151 40 167 40 183 40 199 40 215 40 231 40 247 40 10
DELTAP1[ ]	/* DeltaExceptionP1 */
NPUSHW[ ]	/* 7 values pushed */
7 40 23 40 39 40 3
DELTAP2[ ]	/* DeltaExceptionP2 */
NPUSHW[ ]	/* 5 values pushed */
54 40 70 40 2
DELTAP2[ ]	/* DeltaExceptionP2 */
PUSHW[ ]	/* 3 values pushed */
16 18 40
SRP1[ ]	/* SetRefPoint1 */
SRP2[ ]	/* SetRefPoint2 */
IP[ ]	/* InterpolatePts */
PUSHW[ ]	/* 3 values pushed */
28 32 26
SRP1[ ]	/* SetRefPoint1 */
SRP2[ ]	/* SetRefPoint2 */
IP[ ]	/* InterpolatePts */
IUP[0]	/* InterpolateUntPts */
IUP[1]	/* InterpolateUntPts */";
};
width = 458;
}
);
note = d;
unicode = 100;
},
{
glyphname = e;
layers = (
{
layerId = m01;
shapes = (
{
closed = 1;
nodes = (
(87,336,qs),
(34,279,o),
(33,195,qs),
(32,108,o),
(86,49,qs),
(144,-12,o),
(237,-8,qs),
(300,-5,o),
(378,38,q),
(349,91,l),
(302,44,o),
(242,45,qs),
(182,47,o),
(140,86,qs),
(94,129,o),
(95,193,qs),
(95,197,l),
(398,197,l),
(399,285,o),
(357,338,qs),
(310,395,o),
(220,394,qs),
(139,392,o)
);
},
{
closed = 1;
nodes = (
(120,292,o),
(182,340,o),
(219,340,qs),
(314,340,o),
(325,250,q),
(105,250,l)
);
}
);
userData = {
assembly = "PUSHW[ ]	/* 3 values pushed */
5 19 3
CALL[ ]	/* CallFunction */
SVTCA[0]	/* SetFreedomAndProjectionVectorToAxis */
PUSHW[ ]	/* 1 value pushed */
0
RCVT[ ]	/* ReadCVT */
IF[ ]	/* If */
PUSHW[ ]	/* 1 value pushed */
15
MDAP[1]	/* MoveDirectAbsPt */
ELSE[ ]	/* Else */
PUSHW[ ]	/* 2 values pushed */
15 1
MIAP[0]	/* MoveIndirectAbsPt */
EIF[ ]	/* EndIf */
PUSHW[ ]	/* 3 values pushed */
0 25 3
CALL[ ]	/* CallFunction */
PUSHW[ ]	/* 3 values pushed */
23 4 3
CALL[ ]	/* CallFunction */
PUSHW[ ]	/* 1 value pushed */
15
SRP0[ ]	/* SetRefPoint0 */
PUSHW[ ]	/* 1 value pushed */
10
MDRP[11100]	/* MoveDirectRelPt */
NPUSHW[ ]	/* 21 values pushed */
103 10 119 10 135 10 151 10 167 10 183 10 199 10 215 10 231 10 247 10 10
DELTAP1[ ]	/* DeltaExceptionP1 */
NPUSHW[ ]	/* 7 values pushed */
7 10 23 10 39 10 3
DELTAP2[ ]	/* DeltaExceptionP2 */
NPUSHW[ ]	/* 5 values pushed */
54 10 70 10 2
DELTAP2[ ]	/* DeltaExceptionP2 */
IUP[0]	/* InterpolateUntPts */
IUP[1]	/* InterpolateUntPts */";
};
width = 435;
}
);
note = e;
unicode = 101;
},
{
glyphname = f;
layers = (
{
layerId = m01;
shapes = (
{
closed = 1;
nodes = (
(287,581,o),
(262,590,o),
(245,598,qs),
(218,611,o),
(189,611,qs),
(111,613,o),
(85,555,qs),
(70,522,o),
(71,395,q),
(22,394,o),
(6,400,q),
(6,342,l),
(19,346,o),
(72,348,q),
(72,310,ls),
(72,50,o),
(66,-1,q),
(133,-1,l),
(132,22,o),
(131,177,o),
(131,312,qs),
(131,348,l),
(237,346,o),
(251,339,q),
(251,407,l),
(242,401,o),
(131,396,q),
(131,493,o),
(135,512,qs),
(144,557,o),
(181,560,qs),
(231,565,o),
(295,501,q),
(295,579,l)
);
}
);
userData = {
assembly = "PUSHW[ ]	/* 3 values pushed */
12 18 3
CALL[ ]	/* CallFunction */
PUSHW[ ]	/* 1 value pushed */
18
SRP0[ ]	/* SetRefPoint0 */
PUSHW[ ]	/* 1 value pushed */
0
MDRP[11100]	/* MoveDirectRelPt */
PUSHW[ ]	/* 1 value pushed */
12
SRP0[ ]	/* SetRefPoint0 */
PUSHW[ ]	/* 1 value pushed */
6
MDRP[10000]	/* MoveDirectRelPt */
PUSHW[ ]	/* 3 values pushed */
8 18 0
SRP1[ ]	/* SetRefPoint1 */
SRP2[ ]	/* SetRefPoint2 */
IP[ ]	/* InterpolatePts */
PUSHW[ ]	/* 1 value pushed */
18
SRP0[ ]	/* SetRefPoint0 */
PUSHW[ ]	/* 1 value pushed */
9
MDRP[11100]	/* MoveDirectRelPt */
PUSHW[ ]	/* 1 value pushed */
12
SRP0[ ]	/* SetRefPoint0 */
PUSHW[ ]	/* 1 value pushed */
15
MDRP[10000]	/* MoveDirectRelPt */
PUSHW[ ]	/* 1 value pushed */
15
MDAP[1]	/* MoveDirectAbsPt */
PUSHW[ ]	/* 1 value pushed */
18
SRP0[ ]	/* SetRefPoint0 */
PUSHW[ ]	/* 1 value pushed */
16
MDRP[10000]	/* MoveDirectRelPt */
PUSHW[ ]	/* 1 value pushed */
16
MDAP[1]	/* MoveDirectAbsPt */
PUSHW[ ]	/* 1 value pushed */
18
SRP0[ ]	/* SetRefPoint0 */
PUSHW[ ]	/* 1 value pushed */
24
MDRP[10000]	/* MoveDirectRelPt */
PUSHW[ ]	/* 1 value pushed */
24
MDAP[1]	/* MoveDirectAbsPt */
SVTCA[0]	/* SetFreedomAndProjectionVectorToAxis */
PUSHW[ ]	/* 1 value pushed */
28
MDAP[1]	/* MoveDirectAbsPt */
PUSHW[ ]	/* 1 value pushed */
0
RCVT[ ]	/* ReadCVT */
IF[ ]	/* If */
PUSHW[ ]	/* 1 value pushed */
15
MDAP[1]	/* MoveDirectAbsPt */
ELSE[ ]	/* Else */
PUSHW[ ]	/* 2 values pushed */
15 1
MIAP[0]	/* MoveIndirectAbsPt */
EIF[ ]	/* EndIf */
PUSHW[ ]	/* 3 values pushed */
6 11 3
CALL[ ]	/* CallFunction */
PUSHW[ ]	/* 3 values pushed */
0 15 28
SRP1[ ]	/* SetRefPoint1 */
SRP2[ ]	/* SetRefPoint2 */
IP[ ]	/* InterpolatePts */
PUSHW[ ]	/* 3 values pushed */
8 15 28
SRP1[ ]	/* SetRefPoint1 */
SRP2[ ]	/* SetRefPoint2 */
IP[ ]	/* InterpolatePts */
PUSHW[ ]	/* 3 values pushed */
9 15 28
SRP1[ ]	/* SetRefPoint1 */
SRP2[ ]	/* SetRefPoint2 */
IP[ ]	/* InterpolatePts */
PUSHW[ ]	/* 1 value pushed */
11
SRP0[ ]	/* SetRefPoint0 */
PUSHW[ ]	/* 1 value pushed */
19
MDRP[10000]	/* MoveDirectRelPt */
PUSHW[ ]	/* 3 values pushed */
21 15 28
SRP1[ ]	/* SetRefPoint1 */
SRP2[ ]	/* SetRefPoint2 */
IP[ ]	/* InterpolatePts */
PUSHW[ ]	/* 3 values pushed */
22 15 28
SRP1[ ]	/* SetRefPoint1 */
SRP2[ ]	/* SetRefPoint2 */
IP[ ]	/* InterpolatePts */
PUSHW[ ]	/* 1 value pushed */
6
SRP0[ ]	/* SetRefPoint0 */
PUSHW[ ]	/* 1 value pushed */
24
MDRP[10000]	/* MoveDirectRelPt */
PUSHW[ ]	/* 1 value pushed */
24
MDAP[1]	/* MoveDirectAbsPt */
IUP[0]	/* InterpolateUntPts */
IUP[1]	/* InterpolateUntPts */";
};
width = 295;
}
);
note = f;
unicode = 102;
},
{
glyphname = g;
layers = (
{
layerId = m01;
shapes = (
{
closed = 1;
nodes = (
(373,371,o),
(373,341,o),
(373,328,q),
(332,394,o),
(237,394,qs),
(147,394,o),
(90,337,qs),
(34,281,o),
(33,196,qs),
(31,109,o),
(87,52,qs),
(145,-8,o),
(237,-8,qs),
(329,-8,o),
(376,64,q),
(374,-32,o),
(373,-63,qs),
(371,-85,o),
(351,-123,o),
(318,-150,o),
(274,-166,o),
(250,-166,qs),
(245,-166,o),
(237,-166,o),
(232,-165,qs),
(165,-158,o),
(120,-116,q),
(83,-177,l),
(100,-183,o),
(124,-192,o),
(131,-196,qs),
(182,-219,o),
(252,-219,qs),
(313,-219,o),
(363,-187,qs),
(412,-156,o),
(426,-103,qs),
(435,-67,o),
(435,112,qs),
(435,204,o),
(437,341,o),
(439,388,q),
(372,388,l)
);
},
{
closed = 1;
nodes = (
(368,274,o),
(376,220,q),
(376,175,l),
(369,118,o),
(296,47,o),
(239,47,qs),
(178,47,o),
(135,90,qs),
(93,133,o),
(93,194,qs),
(93,256,o),
(134,299,qs),
(176,341,o),
(239,341,qs),
(294,341,o)
);
}
);
userData = {
assembly = "PUSHW[ ]	/* 1 value pushed */
58
MDAP[1]	/* MoveDirectAbsPt */
PUSHW[ ]	/* 1 value pushed */
27
MDAP[1]	/* MoveDirectAbsPt */
NPUSHW[ ]	/* 5 values pushed */
58 27 74 27 2
DELTAP2[ ]	/* DeltaExceptionP2 */
NPUSHW[ ]	/* 21 values pushed */
105 27 121 27 137 27 153 27 169 27 185 27 201 27 217 27 233 27 249 27 10
DELTAP1[ ]	/* DeltaExceptionP1 */
NPUSHW[ ]	/* 7 values pushed */
9 27 25 27 41 27 3
DELTAP2[ ]	/* DeltaExceptionP2 */
PUSHW[ ]	/* 1 value pushed */
3
MDRP[11100]	/* MoveDirectRelPt */
PUSHW[ ]	/* 1 value pushed */
0
MDRP[10000]	/* MoveDirectRelPt */
PUSHW[ ]	/* 1 value pushed */
0
MDAP[1]	/* MoveDirectAbsPt */
PUSHW[ ]	/* 1 value pushed */
27
SRP0[ ]	/* SetRefPoint0 */
PUSHW[ ]	/* 1 value pushed */
25
MDRP[10000]	/* MoveDirectRelPt */
PUSHW[ ]	/* 1 value pushed */
25
MDAP[1]	/* MoveDirectAbsPt */
PUSHW[ ]	/* 1 value pushed */
58
SRP0[ ]	/* SetRefPoint0 */
PUSHW[ ]	/* 1 value pushed */
33
MDRP[10000]	/* MoveDirectRelPt */
PUSHW[ ]	/* 1 value pushed */
33
MDAP[1]	/* MoveDirectAbsPt */
PUSHW[ ]	/* 1 value pushed */
47
MDRP[11100]	/* MoveDirectRelPt */
NPUSHW[ ]	/* 21 values pushed */
102 47 118 47 134 47 150 47 166 47 182 47 198 47 214 47 230 47 246 47 10
DELTAP1[ ]	/* DeltaExceptionP1 */
NPUSHW[ ]	/* 7 values pushed */
6 47 22 47 38 47 3
DELTAP2[ ]	/* DeltaExceptionP2 */
NPUSHW[ ]	/* 5 values pushed */
53 47 69 47 2
DELTAP2[ ]	/* DeltaExceptionP2 */
PUSHW[ ]	/* 1 value pushed */
31
MDRP[10000]	/* MoveDirectRelPt */
PUSHW[ ]	/* 1 value pushed */
31
MDAP[1]	/* MoveDirectAbsPt */
PUSHW[ ]	/* 1 value pushed */
47
SRP0[ ]	/* SetRefPoint0 */
PUSHW[ ]	/* 1 value pushed */
35
MDRP[10000]	/* MoveDirectRelPt */
PUSHW[ ]	/* 1 value pushed */
35
MDAP[1]	/* MoveDirectAbsPt */
PUSHW[ ]	/* 1 value pushed */
27
SRP0[ ]	/* SetRefPoint0 */
PUSHW[ ]	/* 1 value pushed */
39
MDRP[10000]	/* MoveDirectRelPt */
PUSHW[ ]	/* 1 value pushed */
39
MDAP[1]	/* MoveDirectAbsPt */
PUSHW[ ]	/* 1 value pushed */
27
SRP0[ ]	/* SetRefPoint0 */
PUSHW[ ]	/* 1 value pushed */
42
MDRP[10000]	/* MoveDirectRelPt */
PUSHW[ ]	/* 1 value pushed */
42
MDAP[1]	/* MoveDirectAbsPt */
PUSHW[ ]	/* 1 value pushed */
27
SRP0[ ]	/* SetRefPoint0 */
PUSHW[ ]	/* 1 value pushed */
54
MDRP[10000]	/* MoveDirectRelPt */
PUSHW[ ]	/* 1 value pushed */
3
SRP0[ ]	/* SetRefPoint0 */
PUSHW[ ]	/* 1 value pushed */
59
MDRP[11100]	/* MoveDirectRelPt */
SVTCA[0]	/* SetFreedomAndProjectionVectorToAxis */
PUSHW[ ]	/* 1 value pushed */
0
RCVT[ ]	/* ReadCVT */
IF[ ]	/* If */
PUSHW[ ]	/* 1 value pushed */
29
MDAP[1]	/* MoveDirectAbsPt */
ELSE[ ]	/* Else */
PUSHW[ ]	/* 2 values pushed */
29 1
MIAP[0]	/* MoveIndirectAbsPt */
EIF[ ]	/* EndIf */
PUSHW[ ]	/* 3 values pushed */
20 9 3
CALL[ ]	/* CallFunction */
PUSHW[ ]	/* 3 values pushed */
37 43 3
CALL[ ]	/* CallFunction */
PUSHW[ ]	/* 1 value pushed */
37
SRP0[ ]	/* SetRefPoint0 */
PUSHW[ ]	/* 1 value pushed */
0
MDRP[10000]	/* MoveDirectRelPt */
PUSHW[ ]	/* 1 value pushed */
0
MDAP[1]	/* MoveDirectAbsPt */
PUSHW[ ]	/* 1 value pushed */
20
SRP0[ ]	/* SetRefPoint0 */
PUSHW[ ]	/* 1 value pushed */
17
MDRP[10000]	/* MoveDirectRelPt */
PUSHW[ ]	/* 1 value pushed */
17
MDAP[1]	/* MoveDirectAbsPt */
PUSHW[ ]	/* 1 value pushed */
29
SRP0[ ]	/* SetRefPoint0 */
PUSHW[ ]	/* 1 value pushed */
51
MDRP[11100]	/* MoveDirectRelPt */
NPUSHW[ ]	/* 21 values pushed */
103 51 119 51 135 51 151 51 167 51 183 51 199 51 215 51 231 51 247 51 10
DELTAP1[ ]	/* DeltaExceptionP1 */
NPUSHW[ ]	/* 7 values pushed */
7 51 23 51 39 51 3
DELTAP2[ ]	/* DeltaExceptionP2 */
NPUSHW[ ]	/* 5 values pushed */
54 51 70 51 2
DELTAP2[ ]	/* DeltaExceptionP2 */
IUP[0]	/* InterpolateUntPts */
IUP[1]	/* InterpolateUntPts */";
};
width = 471;
}
);
note = g;
unicode = 103;
},
{
glyphname = h;
layers = (
{
layerId = m01;
shapes = (
{
closed = 1;
nodes = (
(390,42,o),
(389,78,qs),
(389,196,ls),
(389,314,o),
(355,361,qs),
(324,404,o),
(255,404,qs),
(181,404,o),
(120,349,q),
(120,388,ls),
(120,461,o),
(123,566,o),
(125,600,q),
(57,600,l),
(63,550,o),
(63,387,qs),
(63,340,ls),
(63,222,o),
(61,52,o),
(59,0,q),
(124,0,l),
(124,-1,o),
(123,29,o),
(122,61,qs),
(121,95,o),
(121,155,o),
(120,181,qs),
(120,219,o),
(120,275,o),
(121,295,q),
(129,303,o),
(147,318,o),
(155,326,q),
(195,354,o),
(246,353,qs),
(295,352,o),
(313,299,qs),
(318,283,o),
(323,232,o),
(324,197,qs),
(324,117,ls),
(323,86,o),
(323,28,o),
(323,0,q),
(391,0,l),
(391,-3,o)
);
}
);
userData = {
assembly = "PUSHW[ ]	/* 1 value pushed */
46
MDAP[1]	/* MoveDirectAbsPt */
PUSHW[ ]	/* 1 value pushed */
4
MDAP[1]	/* MoveDirectAbsPt */
PUSHW[ ]	/* 1 value pushed */
43
MDRP[11100]	/* MoveDirectRelPt */
PUSHW[ ]	/* 1 value pushed */
0
MDRP[10000]	/* MoveDirectRelPt */
PUSHW[ ]	/* 1 value pushed */
0
MDAP[1]	/* MoveDirectAbsPt */
PUSHW[ ]	/* 1 value pushed */
4
SRP0[ ]	/* SetRefPoint0 */
PUSHW[ ]	/* 1 value pushed */
1
MDRP[10000]	/* MoveDirectRelPt */
PUSHW[ ]	/* 1 value pushed */
1
MDAP[1]	/* MoveDirectAbsPt */
PUSHW[ ]	/* 1 value pushed */
46
SRP0[ ]	/* SetRefPoint0 */
PUSHW[ ]	/* 1 value pushed */
28
MDRP[10000]	/* MoveDirectRelPt */
PUSHW[ ]	/* 1 value pushed */
28
MDAP[1]	/* MoveDirectAbsPt */
PUSHW[ ]	/* 1 value pushed */
36
MDRP[11100]	/* MoveDirectRelPt */
PUSHW[ ]	/* 1 value pushed */
15
MDRP[10000]	/* MoveDirectRelPt */
PUSHW[ ]	/* 1 value pushed */
15
MDAP[1]	/* MoveDirectAbsPt */
PUSHW[ ]	/* 1 value pushed */
36
SRP0[ ]	/* SetRefPoint0 */
PUSHW[ ]	/* 1 value pushed */
18
MDRP[10000]	/* MoveDirectRelPt */
PUSHW[ ]	/* 1 value pushed */
36
SRP0[ ]	/* SetRefPoint0 */
PUSHW[ ]	/* 1 value pushed */
21
MDRP[10000]	/* MoveDirectRelPt */
PUSHW[ ]	/* 1 value pushed */
21
MDAP[1]	/* MoveDirectAbsPt */
PUSHW[ ]	/* 1 value pushed */
36
SRP0[ ]	/* SetRefPoint0 */
PUSHW[ ]	/* 1 value pushed */
24
MDRP[10000]	/* MoveDirectRelPt */
PUSHW[ ]	/* 1 value pushed */
24
MDAP[1]	/* MoveDirectAbsPt */
PUSHW[ ]	/* 1 value pushed */
28
SRP0[ ]	/* SetRefPoint0 */
PUSHW[ ]	/* 1 value pushed */
25
MDRP[10000]	/* MoveDirectRelPt */
PUSHW[ ]	/* 1 value pushed */
25
MDAP[1]	/* MoveDirectAbsPt */
PUSHW[ ]	/* 1 value pushed */
28
SRP0[ ]	/* SetRefPoint0 */
PUSHW[ ]	/* 1 value pushed */
31
MDRP[10000]	/* MoveDirectRelPt */
PUSHW[ ]	/* 1 value pushed */
31
MDAP[1]	/* MoveDirectAbsPt */
PUSHW[ ]	/* 1 value pushed */
36
SRP0[ ]	/* SetRefPoint0 */
PUSHW[ ]	/* 1 value pushed */
32
MDRP[10000]	/* MoveDirectRelPt */
PUSHW[ ]	/* 1 value pushed */
32
MDAP[1]	/* MoveDirectAbsPt */
PUSHW[ ]	/* 1 value pushed */
43
SRP0[ ]	/* SetRefPoint0 */
PUSHW[ ]	/* 1 value pushed */
47
MDRP[11100]	/* MoveDirectRelPt */
SVTCA[0]	/* SetFreedomAndProjectionVectorToAxis */
PUSHW[ ]	/* 1 value pushed */
31
MDAP[1]	/* MoveDirectAbsPt */
PUSHW[ ]	/* 1 value pushed */
0
RCVT[ ]	/* ReadCVT */
IF[ ]	/* If */
PUSHW[ ]	/* 1 value pushed */
0
MDAP[1]	/* MoveDirectAbsPt */
ELSE[ ]	/* Else */
PUSHW[ ]	/* 2 values pushed */
0 1
MIAP[0]	/* MoveIndirectAbsPt */
EIF[ ]	/* EndIf */
PUSHW[ ]	/* 1 value pushed */
0
RCVT[ ]	/* ReadCVT */
IF[ ]	/* If */
PUSHW[ ]	/* 1 value pushed */
24
MDAP[1]	/* MoveDirectAbsPt */
ELSE[ ]	/* Else */
PUSHW[ ]	/* 2 values pushed */
24 1
MIAP[0]	/* MoveIndirectAbsPt */
EIF[ ]	/* EndIf */
PUSHW[ ]	/* 3 values pushed */
38 10 3
CALL[ ]	/* CallFunction */
PUSHW[ ]	/* 3 values pushed */
36 0 31
SRP1[ ]	/* SetRefPoint1 */
SRP2[ ]	/* SetRefPoint2 */
IP[ ]	/* InterpolatePts */
IUP[0]	/* InterpolateUntPts */
IUP[1]	/* InterpolateUntPts */";
};
width = 423;
}
);
note = h;
unicode = 104;
},
{
glyphname = i;
layers = (
{
layerId = m01;
shapes = (
{
closed = 1;
nodes = (
(119,557,o),
(100,557,qs),
(82,557,o),
(53,528,o),
(53,509,qs),
(53,490,o),
(82,462,o),
(100,462,qs),
(119,462,o),
(149,491,o),
(149,509,qs),
(149,528,o)
);
},
{
closed = 1;
nodes = (
(131,387,q),
(65,387,l),
(74,204,o),
(65,-1,q),
(131,-1,l),
(124,197,o)
);
}
);
userData = {
assembly = "PUSHW[ ]	/* 3 values pushed */
0 6 3
CALL[ ]	/* CallFunction */
NPUSHW[ ]	/* 21 values pushed */
102 0 118 0 134 0 150 0 166 0 182 0 198 0 214 0 230 0 246 0 10
DELTAP1[ ]	/* DeltaExceptionP1 */
NPUSHW[ ]	/* 7 values pushed */
6 0 22 0 38 0 3
DELTAP2[ ]	/* DeltaExceptionP2 */
NPUSHW[ ]	/* 5 values pushed */
53 0 69 0 2
DELTAP2[ ]	/* DeltaExceptionP2 */
PUSHW[ ]	/* 3 values pushed */
13 6 0
SRP1[ ]	/* SetRefPoint1 */
SRP2[ ]	/* SetRefPoint2 */
IP[ ]	/* InterpolatePts */
PUSHW[ ]	/* 1 value pushed */
13
MDAP[1]	/* MoveDirectAbsPt */
PUSHW[ ]	/* 1 value pushed */
12
MDRP[11100]	/* MoveDirectRelPt */
PUSHW[ ]	/* 1 value pushed */
13
SRP0[ ]	/* SetRefPoint0 */
PUSHW[ ]	/* 1 value pushed */
15
MDRP[10000]	/* MoveDirectRelPt */
PUSHW[ ]	/* 1 value pushed */
12
SRP0[ ]	/* SetRefPoint0 */
PUSHW[ ]	/* 1 value pushed */
16
MDRP[10000]	/* MoveDirectRelPt */
SVTCA[0]	/* SetFreedomAndProjectionVectorToAxis */
PUSHW[ ]	/* 1 value pushed */
0
RCVT[ ]	/* ReadCVT */
IF[ ]	/* If */
PUSHW[ ]	/* 1 value pushed */
12
MDAP[1]	/* MoveDirectAbsPt */
ELSE[ ]	/* Else */
PUSHW[ ]	/* 2 values pushed */
12 1
MIAP[0]	/* MoveIndirectAbsPt */
EIF[ ]	/* EndIf */
PUSHW[ ]	/* 3 values pushed */
9 3 3
CALL[ ]	/* CallFunction */
IUP[0]	/* InterpolateUntPts */
IUP[1]	/* InterpolateUntPts */";
};
width = 188;
}
);
note = i;
unicode = 105;
},
{
glyphname = j;
layers = (
{
layerId = m01;
shapes = (
{
closed = 1;
nodes = (
(119,557,o),
(100,557,qs),
(81,557,o),
(53,528,o),
(53,509,qs),
(53,490,o),
(82,462,o),
(100,462,qs),
(119,462,o),
(149,491,o),
(149,509,qs),
(149,528,o)
);
},
{
closed = 1;
nodes = (
(68,342,o),
(70,205,o),
(70,111,qs),
(70,-108,o),
(67,-123,qs),
(58,-167,o),
(22,-170,qs),
(1,-171,o),
(-21,-146,q),
(-31,-165,o),
(-44,-190,o),
(-48,-198,q),
(-16,-208,o),
(-1,-216,q),
(8,-219,o),
(22,-219,qs),
(88,-219,o),
(114,-163,qs),
(126,-136,o),
(129,-57,qs),
(129,112,ls),
(129,233,o),
(131,370,o),
(133,387,q),
(66,387,l)
);
}
);
userData = {
assembly = "PUSHW[ ]	/* 3 values pushed */
0 6 3
CALL[ ]	/* CallFunction */
NPUSHW[ ]	/* 5 values pushed */
58 6 74 6 2
DELTAP2[ ]	/* DeltaExceptionP2 */
NPUSHW[ ]	/* 21 values pushed */
105 6 121 6 137 6 153 6 169 6 185 6 201 6 217 6 233 6 249 6 10
DELTAP1[ ]	/* DeltaExceptionP1 */
NPUSHW[ ]	/* 7 values pushed */
9 6 25 6 41 6 3
DELTAP2[ ]	/* DeltaExceptionP2 */
PUSHW[ ]	/* 3 values pushed */
33 6 0
SRP1[ ]	/* SetRefPoint1 */
SRP2[ ]	/* SetRefPoint2 */
IP[ ]	/* InterpolatePts */
PUSHW[ ]	/* 1 value pushed */
33
MDAP[1]	/* MoveDirectAbsPt */
PUSHW[ ]	/* 1 value pushed */
15
MDRP[11100]	/* MoveDirectRelPt */
PUSHW[ ]	/* 1 value pushed */
33
SRP0[ ]	/* SetRefPoint0 */
PUSHW[ ]	/* 1 value pushed */
36
MDRP[10000]	/* MoveDirectRelPt */
PUSHW[ ]	/* 1 value pushed */
36
MDAP[1]	/* MoveDirectAbsPt */
SVTCA[0]	/* SetFreedomAndProjectionVectorToAxis */
PUSHW[ ]	/* 1 value pushed */
20
MDAP[1]	/* MoveDirectAbsPt */
PUSHW[ ]	/* 1 value pushed */
22
MDAP[1]	/* MoveDirectAbsPt */
PUSHW[ ]	/* 3 values pushed */
9 3 3
CALL[ ]	/* CallFunction */
IUP[0]	/* InterpolateUntPts */
IUP[1]	/* InterpolateUntPts */";
};
width = 188;
}
);
note = j;
unicode = 106;
},
{
glyphname = k;
layers = (
{
layerId = m01;
shapes = (
{
closed = 1;
nodes = (
(229,189,o),
(203,214,q),
(365,360,l),
(324,399,l),
(242,321,o),
(130,217,o),
(100,191,q),
(100,388,ls),
(100,461,o),
(103,566,o),
(105,600,q),
(37,600,l),
(41,567,o),
(45,459,o),
(45,384,qs),
(45,331,o),
(42,222,qs),
(39,112,o),
(39,74,qs),
(39,-6,o),
(48,-9,qs),
(51,-10,o),
(59,-10,qs),
(91,-10,o),
(123,10,q),
(100,32,o),
(97,62,q),
(95,71,o),
(97,130,q),
(160,178,l),
(353,-12,l),
(394,29,l),
(324,97,o)
);
}
);
userData = {
assembly = "PUSHW[ ]	/* 3 values pushed */
24 17 3
CALL[ ]	/* CallFunction */
PUSHW[ ]	/* 1 value pushed */
24
SRP0[ ]	/* SetRefPoint0 */
PUSHW[ ]	/* 1 value pushed */
3
MDRP[10000]	/* MoveDirectRelPt */
PUSHW[ ]	/* 1 value pushed */
3
MDAP[1]	/* MoveDirectAbsPt */
PUSHW[ ]	/* 1 value pushed */
24
SRP0[ ]	/* SetRefPoint0 */
PUSHW[ ]	/* 1 value pushed */
5
MDRP[10000]	/* MoveDirectRelPt */
PUSHW[ ]	/* 1 value pushed */
5
MDAP[1]	/* MoveDirectAbsPt */
PUSHW[ ]	/* 1 value pushed */
17
SRP0[ ]	/* SetRefPoint0 */
PUSHW[ ]	/* 1 value pushed */
13
MDRP[10000]	/* MoveDirectRelPt */
PUSHW[ ]	/* 1 value pushed */
13
MDAP[1]	/* MoveDirectAbsPt */
PUSHW[ ]	/* 1 value pushed */
17
SRP0[ ]	/* SetRefPoint0 */
PUSHW[ ]	/* 1 value pushed */
15
MDRP[10000]	/* MoveDirectRelPt */
PUSHW[ ]	/* 1 value pushed */
15
MDAP[1]	/* MoveDirectAbsPt */
PUSHW[ ]	/* 1 value pushed */
24
SRP0[ ]	/* SetRefPoint0 */
PUSHW[ ]	/* 1 value pushed */
21
MDRP[10000]	/* MoveDirectRelPt */
PUSHW[ ]	/* 1 value pushed */
21
MDAP[1]	/* MoveDirectAbsPt */
SVTCA[0]	/* SetFreedomAndProjectionVectorToAxis */
PUSHW[ ]	/* 1 value pushed */
20
MDAP[1]	/* MoveDirectAbsPt */
PUSHW[ ]	/* 1 value pushed */
0
RCVT[ ]	/* ReadCVT */
IF[ ]	/* If */
PUSHW[ ]	/* 1 value pushed */
1
MDAP[1]	/* MoveDirectAbsPt */
ELSE[ ]	/* Else */
PUSHW[ ]	/* 2 values pushed */
1 1
MIAP[0]	/* MoveIndirectAbsPt */
EIF[ ]	/* EndIf */
PUSHW[ ]	/* 1 value pushed */
0
RCVT[ ]	/* ReadCVT */
IF[ ]	/* If */
PUSHW[ ]	/* 1 value pushed */
9
MDAP[1]	/* MoveDirectAbsPt */
ELSE[ ]	/* Else */
PUSHW[ ]	/* 2 values pushed */
9 1
MIAP[0]	/* MoveIndirectAbsPt */
EIF[ ]	/* EndIf */
PUSHW[ ]	/* 1 value pushed */
0
RCVT[ ]	/* ReadCVT */
IF[ ]	/* If */
PUSHW[ ]	/* 1 value pushed */
11
MDAP[1]	/* MoveDirectAbsPt */
ELSE[ ]	/* Else */
PUSHW[ ]	/* 2 values pushed */
11 1
MIAP[0]	/* MoveIndirectAbsPt */
EIF[ ]	/* EndIf */
PUSHW[ ]	/* 3 values pushed */
25 1 20
SRP1[ ]	/* SetRefPoint1 */
SRP2[ ]	/* SetRefPoint2 */
IP[ ]	/* InterpolatePts */
IUP[0]	/* InterpolateUntPts */
IUP[1]	/* InterpolateUntPts */";
};
width = 401;
}
);
note = k;
unicode = 107;
},
{
glyphname = l;
layers = (
{
layerId = m01;
shapes = (
{
closed = 1;
nodes = (
(72,514,o),
(70,340,qs),
(70,222,o),
(68,52,o),
(66,0,q),
(131,0,l),
(131,-5,o),
(130,65,o),
(129,141,qs),
(128,216,o),
(127,319,o),
(127,349,qs),
(128,433,o),
(130,557,o),
(132,600,q),
(64,600,l)
);
}
);
userData = {
assembly = "PUSHW[ ]	/* 3 values pushed */
6 13 3
CALL[ ]	/* CallFunction */
PUSHW[ ]	/* 1 value pushed */
6
SRP0[ ]	/* SetRefPoint0 */
PUSHW[ ]	/* 1 value pushed */
0
MDRP[10000]	/* MoveDirectRelPt */
PUSHW[ ]	/* 1 value pushed */
0
MDAP[1]	/* MoveDirectAbsPt */
PUSHW[ ]	/* 1 value pushed */
6
SRP0[ ]	/* SetRefPoint0 */
PUSHW[ ]	/* 1 value pushed */
3
MDRP[10000]	/* MoveDirectRelPt */
PUSHW[ ]	/* 1 value pushed */
3
MDAP[1]	/* MoveDirectAbsPt */
PUSHW[ ]	/* 1 value pushed */
6
SRP0[ ]	/* SetRefPoint0 */
PUSHW[ ]	/* 1 value pushed */
9
MDRP[10000]	/* MoveDirectRelPt */
PUSHW[ ]	/* 1 value pushed */
9
MDAP[1]	/* MoveDirectAbsPt */
NPUSHW[ ]	/* 5 values pushed */
58 13 74 13 2
DELTAP2[ ]	/* DeltaExceptionP2 */
NPUSHW[ ]	/* 21 values pushed */
105 13 121 13 137 13 153 13 169 13 185 13 201 13 217 13 233 13 249 13 10
DELTAP1[ ]	/* DeltaExceptionP1 */
NPUSHW[ ]	/* 7 values pushed */
9 13 25 13 41 13 3
DELTAP2[ ]	/* DeltaExceptionP2 */
PUSHW[ ]	/* 1 value pushed */
13
SRP0[ ]	/* SetRefPoint0 */
PUSHW[ ]	/* 1 value pushed */
10
MDRP[10000]	/* MoveDirectRelPt */
PUSHW[ ]	/* 1 value pushed */
10
MDAP[1]	/* MoveDirectAbsPt */
PUSHW[ ]	/* 1 value pushed */
13
SRP0[ ]	/* SetRefPoint0 */
PUSHW[ ]	/* 1 value pushed */
15
MDRP[10000]	/* MoveDirectRelPt */
PUSHW[ ]	/* 1 value pushed */
15
MDAP[1]	/* MoveDirectAbsPt */
SVTCA[0]	/* SetFreedomAndProjectionVectorToAxis */
PUSHW[ ]	/* 1 value pushed */
0
MDAP[1]	/* MoveDirectAbsPt */
PUSHW[ ]	/* 1 value pushed */
0
RCVT[ ]	/* ReadCVT */
IF[ ]	/* If */
PUSHW[ ]	/* 1 value pushed */
9
MDAP[1]	/* MoveDirectAbsPt */
ELSE[ ]	/* Else */
PUSHW[ ]	/* 2 values pushed */
9 1
MIAP[0]	/* MoveIndirectAbsPt */
EIF[ ]	/* EndIf */
IUP[0]	/* InterpolateUntPts */
IUP[1]	/* InterpolateUntPts */";
};
width = 184;
}
);
note = l;
unicode = 108;
},
{
glyphname = m;
layers = (
{
layerId = m01;
shapes = (
{
closed = 1;
nodes = (
(635,30,o),
(635,60,o),
(635,78,qs),
(634,99,o),
(634,158,o),
(634,196,qs),
(634,314,o),
(600,361,qs),
(570,404,o),
(500,404,qs),
(415,404,o),
(355,344,q),
(326,404,o),
(245,404,qs),
(171,404,o),
(121,351,q),
(122,388,l),
(61,388,l),
(62,370,o),
(62,346,o),
(63,340,q),
(63,222,o),
(61,52,o),
(59,0,q),
(124,0,l),
(124,297,l),
(131,305,o),
(145,319,o),
(152,327,q),
(186,354,o),
(236,353,qs),
(285,352,o),
(303,299,qs),
(308,283,o),
(313,232,o),
(314,197,qs),
(316,162,o),
(314,117,qs),
(313,86,o),
(313,28,o),
(313,0,q),
(381,0,l),
(381,-3,o),
(380,42,o),
(379,78,qs),
(379,196,ls),
(379,257,o),
(370,298,q),
(387,313,o),
(404,328,o),
(405,329,qs),
(442,354,o),
(491,353,qs),
(542,351,o),
(558,299,qs),
(563,283,o),
(568,232,o),
(569,197,qs),
(571,162,o),
(569,117,qs),
(568,86,o),
(568,28,o),
(568,0,q),
(636,0,l),
(636,18,ls)
);
}
);
userData = {
assembly = "PUSHW[ ]	/* 3 values pushed */
38 43 3
CALL[ ]	/* CallFunction */
PUSHW[ ]	/* 3 values pushed */
19 26 3
CALL[ ]	/* CallFunction */
PUSHW[ ]	/* 3 values pushed */
61 4 3
CALL[ ]	/* CallFunction */
PUSHW[ ]	/* 1 value pushed */
61
SRP0[ ]	/* SetRefPoint0 */
PUSHW[ ]	/* 1 value pushed */
0
MDRP[10000]	/* MoveDirectRelPt */
PUSHW[ ]	/* 1 value pushed */
0
MDAP[1]	/* MoveDirectAbsPt */
NPUSHW[ ]	/* 5 values pushed */
58 4 74 4 2
DELTAP2[ ]	/* DeltaExceptionP2 */
NPUSHW[ ]	/* 21 values pushed */
105 4 121 4 137 4 153 4 169 4 185 4 201 4 217 4 233 4 249 4 10
DELTAP1[ ]	/* DeltaExceptionP1 */
NPUSHW[ ]	/* 7 values pushed */
9 4 25 4 41 4 3
DELTAP2[ ]	/* DeltaExceptionP2 */
PUSHW[ ]	/* 1 value pushed */
4
SRP0[ ]	/* SetRefPoint0 */
PUSHW[ ]	/* 1 value pushed */
1
MDRP[10000]	/* MoveDirectRelPt */
PUSHW[ ]	/* 1 value pushed */
1
MDAP[1]	/* MoveDirectAbsPt */
PUSHW[ ]	/* 1 value pushed */
4
SRP0[ ]	/* SetRefPoint0 */
PUSHW[ ]	/* 1 value pushed */
6
MDRP[10000]	/* MoveDirectRelPt */
PUSHW[ ]	/* 1 value pushed */
26
SRP0[ ]	/* SetRefPoint0 */
PUSHW[ ]	/* 1 value pushed */
23
MDRP[10000]	/* MoveDirectRelPt */
PUSHW[ ]	/* 1 value pushed */
23
MDAP[1]	/* MoveDirectAbsPt */
PUSHW[ ]	/* 1 value pushed */
26
SRP0[ ]	/* SetRefPoint0 */
PUSHW[ ]	/* 1 value pushed */
28
MDRP[10000]	/* MoveDirectRelPt */
PUSHW[ ]	/* 1 value pushed */
43
SRP0[ ]	/* SetRefPoint0 */
PUSHW[ ]	/* 1 value pushed */
40
MDRP[10000]	/* MoveDirectRelPt */
PUSHW[ ]	/* 1 value pushed */
40
MDAP[1]	/* MoveDirectAbsPt */
PUSHW[ ]	/* 1 value pushed */
43
SRP0[ ]	/* SetRefPoint0 */
PUSHW[ ]	/* 1 value pushed */
46
MDRP[10000]	/* MoveDirectRelPt */
PUSHW[ ]	/* 1 value pushed */
46
MDAP[1]	/* MoveDirectAbsPt */
PUSHW[ ]	/* 1 value pushed */
38
SRP0[ ]	/* SetRefPoint0 */
PUSHW[ ]	/* 1 value pushed */
47
MDRP[10000]	/* MoveDirectRelPt */
PUSHW[ ]	/* 1 value pushed */
47
MDAP[1]	/* MoveDirectAbsPt */
PUSHW[ ]	/* 3 values pushed */
48 43 38
SRP1[ ]	/* SetRefPoint1 */
SRP2[ ]	/* SetRefPoint2 */
IP[ ]	/* InterpolatePts */
PUSHW[ ]	/* 3 values pushed */
52 26 19
SRP1[ ]	/* SetRefPoint1 */
SRP2[ ]	/* SetRefPoint2 */
IP[ ]	/* InterpolatePts */
PUSHW[ ]	/* 1 value pushed */
61
SRP0[ ]	/* SetRefPoint0 */
PUSHW[ ]	/* 1 value pushed */
58
MDRP[10000]	/* MoveDirectRelPt */
PUSHW[ ]	/* 1 value pushed */
58
MDAP[1]	/* MoveDirectAbsPt */
PUSHW[ ]	/* 1 value pushed */
61
SRP0[ ]	/* SetRefPoint0 */
PUSHW[ ]	/* 1 value pushed */
66
MDRP[11100]	/* MoveDirectRelPt */
SVTCA[0]	/* SetFreedomAndProjectionVectorToAxis */
PUSHW[ ]	/* 1 value pushed */
0
RCVT[ ]	/* ReadCVT */
IF[ ]	/* If */
PUSHW[ ]	/* 1 value pushed */
0
MDAP[1]	/* MoveDirectAbsPt */
ELSE[ ]	/* Else */
PUSHW[ ]	/* 2 values pushed */
0 1
MIAP[0]	/* MoveIndirectAbsPt */
EIF[ ]	/* EndIf */
PUSHW[ ]	/* 1 value pushed */
0
RCVT[ ]	/* ReadCVT */
IF[ ]	/* If */
PUSHW[ ]	/* 1 value pushed */
22
MDAP[1]	/* MoveDirectAbsPt */
ELSE[ ]	/* Else */
PUSHW[ ]	/* 2 values pushed */
22 1
MIAP[0]	/* MoveIndirectAbsPt */
EIF[ ]	/* EndIf */
PUSHW[ ]	/* 1 value pushed */
0
RCVT[ ]	/* ReadCVT */
IF[ ]	/* If */
PUSHW[ ]	/* 1 value pushed */
39
MDAP[1]	/* MoveDirectAbsPt */
ELSE[ ]	/* Else */
PUSHW[ ]	/* 2 values pushed */
39 1
MIAP[0]	/* MoveIndirectAbsPt */
EIF[ ]	/* EndIf */
PUSHW[ ]	/* 3 values pushed */
54 11 3
CALL[ ]	/* CallFunction */
PUSHW[ ]	/* 1 value pushed */
11
SRP0[ ]	/* SetRefPoint0 */
PUSHW[ ]	/* 1 value pushed */
33
MDRP[10000]	/* MoveDirectRelPt */
PUSHW[ ]	/* 1 value pushed */
54
SRP0[ ]	/* SetRefPoint0 */
PUSHW[ ]	/* 1 value pushed */
50
MDRP[10000]	/* MoveDirectRelPt */
IUP[0]	/* InterpolateUntPts */
IUP[1]	/* InterpolateUntPts */";
};
width = 689;
}
);
note = m;
unicode = 109;
},
